<svg width="1440" height="765" viewBox="0 0 1440 765" fill="none" xmlns="http://www.w3.org/2000/svg">
<mask id="mask0" mask-type="alpha" maskUnits="userSpaceOnUse" x="0" y="0" width="1440" height="765">
<rect width="1440" height="765" fill="#1B025F"/>
<rect width="1440" height="765" fill="url(#paint0_linear)"/>
</mask>
<g mask="url(#mask0)">
<rect width="1440" height="765" fill="#1B025F"/>
<rect width="1440" height="765" fill="url(#paint1_linear)"/>
<g opacity="0.09">
<path d="M346 513C220.4 454.95 62.6667 553.687 -0.5 610.312V766.125H1459.5L1460 528.75C1378 479.812 1169.5 574.312 977.5 603.562C785.5 632.812 503 585.562 346 513Z" fill="#919CDD"/>
<path d="M346 513C220.4 454.95 62.6667 553.687 -0.5 610.312V766.125H1459.5L1460 528.75C1378 479.812 1169.5 574.312 977.5 603.562C785.5 632.812 503 585.562 346 513Z" fill="url(#paint2_linear)" fill-opacity="0.73"/>
</g>
<g opacity="0.09">
<path d="M1254.4 491.082C1410.48 418.975 1606.5 541.622 1685 611.958V805.5H-129.379L-130 510.646C-28.0966 449.858 231.012 567.241 469.615 603.574C708.218 639.907 1059.29 581.215 1254.4 491.082Z" fill="#919CDD"/>
<path d="M1254.4 491.082C1410.48 418.975 1606.5 541.622 1685 611.958V805.5H-129.379L-130 510.646C-28.0966 449.858 231.012 567.241 469.615 603.574C708.218 639.907 1059.29 581.215 1254.4 491.082Z" fill="url(#paint3_linear)" fill-opacity="0.73"/>
</g>
<g opacity="0.09">
<path d="M1185.83 579.476C1364.34 498.493 1475.77 787.73 1509.17 942.472L1406.82 1297.36L-224.924 701.781L-69.5591 160.912C54.2325 82.8983 225.186 383.193 420.558 528.139C615.931 673.084 962.7 680.705 1185.83 579.476Z" fill="#919CDD"/>
<path d="M1185.83 579.476C1364.34 498.493 1475.77 787.73 1509.17 942.472L1406.82 1297.36L-224.924 701.781L-69.5591 160.912C54.2325 82.8983 225.186 383.193 420.558 528.139C615.931 673.084 962.7 680.705 1185.83 579.476Z" fill="url(#paint4_linear)" fill-opacity="0.73"/>
</g>
<g opacity="0.09">
<path d="M234.731 375.702C45.3133 252.156 -43.9118 612.458 -64.8471 808.052L70.0992 1275.98L1687.51 685.628L1482.48 -27.444C1349.26 -141.253 1200.12 226.85 1012.75 392.327C825.385 557.804 471.504 530.134 234.731 375.702Z" fill="#919CDD"/>
<path d="M234.731 375.702C45.3133 252.156 -43.9118 612.458 -64.8471 808.052L70.0992 1275.98L1687.51 685.628L1482.48 -27.444C1349.26 -141.253 1200.12 226.85 1012.75 392.327C825.385 557.804 471.504 530.134 234.731 375.702Z" fill="url(#paint5_linear)" fill-opacity="0.73"/>
</g>
</g>
<defs>
<linearGradient id="paint0_linear" x1="-109.5" y1="-114.75" x2="1620.37" y2="580.09" gradientUnits="userSpaceOnUse">
<stop offset="0.0758309" stop-color="#0E0033"/>
<stop offset="1" stop-color="#0E0033" stop-opacity="0"/>
</linearGradient>
<linearGradient id="paint1_linear" x1="-109.5" y1="-114.75" x2="1620.37" y2="580.09" gradientUnits="userSpaceOnUse">
<stop offset="0.0758309" stop-color="#0E0033"/>
<stop offset="1" stop-color="#0E0033" stop-opacity="0"/>
</linearGradient>
<linearGradient id="paint2_linear" x1="66.5" y1="495" x2="1575.6" y2="698.178" gradientUnits="userSpaceOnUse">
<stop stop-color="#919CDD"/>
<stop offset="1" stop-color="white"/>
</linearGradient>
<linearGradient id="paint3_linear" x1="1601.74" y1="468.723" x2="-273.632" y2="721.332" gradientUnits="userSpaceOnUse">
<stop stop-color="#919CDD"/>
<stop offset="1" stop-color="white"/>
</linearGradient>
<linearGradient id="paint4_linear" x1="1510.04" y1="652.494" x2="-259.82" y2="268.27" gradientUnits="userSpaceOnUse">
<stop stop-color="#919CDD"/>
<stop offset="1" stop-color="white"/>
</linearGradient>
<linearGradient id="paint5_linear" x1="-90.4935" y1="434.661" x2="1661" y2="23.9768" gradientUnits="userSpaceOnUse">
<stop stop-color="#919CDD"/>
<stop offset="1" stop-color="white"/>
</linearGradient>
</defs>
</svg>
