<svg width="94" height="80" viewBox="0 0 94 80" fill="none" xmlns="http://www.w3.org/2000/svg">
<path d="M43.4486 29.3016C43.3576 29.0744 43.2211 28.8473 43.0391 28.6656C42.9026 28.4839 42.7206 28.3476 42.5841 28.2567L7.14282 48.7905C7.32481 48.8814 7.46129 49.0177 7.59778 49.1994C7.77977 49.3811 7.91625 49.6082 8.00724 49.8354C8.14373 50.1079 8.18923 50.3805 8.18923 50.6077C8.18923 50.6531 8.18923 50.7439 8.18923 50.7894L43.6305 30.2556C43.6305 30.2102 43.6305 30.1647 43.6305 30.0739C43.6305 29.8467 43.585 29.5741 43.4486 29.3016Z" fill="#CB89F0"/>
<path d="M0.454956 20.6247L35.8508 0.0909424L42.5842 28.2568L7.14286 48.836L0.454956 20.6247Z" fill="#2E2233"/>
<path d="M1.3194 20.9882L35.3503 1.27209L41.6743 27.8933L7.68883 47.6548L1.3194 20.9882Z" fill="#101014"/>
<path d="M0 20.5338L35.4413 0L35.8508 0.0908578L0.454959 20.6246L0 20.5338Z" fill="#CB89F0"/>
<path d="M30.1638 63.464L65.5596 42.9302V43.9296L30.1638 64.5088V63.464Z" fill="#CB89F0"/>
<path d="M8.18927 50.8347L43.6306 30.2555L65.5596 42.9301L30.1638 63.4639L8.18927 50.8347Z" fill="url(#paint0_linear_242_8443)"/>
<path d="M0.454959 20.6246L7.18835 48.8358C7.7798 49.1538 8.23476 49.9715 8.23476 50.653C8.23476 50.6984 8.23476 50.7892 8.23476 50.8347L30.2093 63.5093V64.5087L7.18835 51.2435C6.6424 50.8801 6.18744 50.1078 6.18744 49.4718C6.18744 49.1992 6.27844 48.9721 6.41492 48.8358L0 20.5337L0.454959 20.6246Z" fill="#8B3DCE"/>
<path d="M15.4231 50.8348L13.9673 51.6525C13.8308 51.7433 13.6033 51.7433 13.4668 51.6525L12.2384 50.9711C12.1019 50.8802 12.1019 50.7439 12.2384 50.6985L13.6943 49.8808C13.8308 49.7899 14.0583 49.7899 14.1947 49.8808L15.4231 50.5622C15.5596 50.6076 15.5596 50.7439 15.4231 50.8348ZM17.7434 49.1993L16.515 48.5179C16.3785 48.4271 16.1511 48.4271 16.0146 48.5179L14.5587 49.3356C14.4222 49.4265 14.4222 49.5628 14.5587 49.6082L15.7871 50.2896C15.9236 50.3805 16.1511 50.3805 16.2875 50.2896L17.7434 49.4719C17.8799 49.3811 17.8799 49.2448 17.7434 49.1993ZM20.0637 47.8365L18.8353 47.155C18.6988 47.0642 18.4714 47.0642 18.3349 47.155L16.879 47.9728C16.7425 48.0636 16.7425 48.1999 16.879 48.2453L18.1074 48.9268C18.2439 49.0176 18.4714 49.0176 18.6078 48.9268L20.0637 48.109C20.2002 48.0636 20.2002 47.9273 20.0637 47.8365ZM22.384 46.519L21.1556 45.8376C21.0191 45.7468 20.7916 45.7468 20.6552 45.8376L19.1993 46.6553C19.0628 46.7462 19.0628 46.8825 19.1993 46.9279L20.4277 47.6093C20.5642 47.7002 20.7916 47.7002 20.9281 47.6093L22.384 46.7916C22.5205 46.7008 22.5205 46.5645 22.384 46.519ZM24.7043 45.1562L23.4759 44.4747C23.3394 44.3839 23.1119 44.3839 22.9755 44.4747L21.5196 45.2925C21.3831 45.3833 21.3831 45.5196 21.5196 45.565L22.748 46.2465C22.8845 46.3373 23.1119 46.3373 23.2484 46.2465L24.7043 45.4288C24.8408 45.3833 24.8408 45.247 24.7043 45.1562ZM27.0246 43.8387L25.7962 43.1573C25.6597 43.0665 25.4322 43.0665 25.2957 43.1573L23.8399 43.975C23.7034 44.0659 23.7034 44.2022 23.8399 44.2476L25.0683 44.929C25.2047 45.0199 25.4322 45.0199 25.5687 44.929L27.0246 44.1113C27.2066 44.0205 27.2066 43.8842 27.0246 43.8387ZM29.3904 42.4759L28.162 41.7945C28.0255 41.7036 27.798 41.7036 27.6615 41.7945L26.2057 42.6122C26.0692 42.703 26.0692 42.8393 26.2057 42.8847L27.434 43.5662C27.5705 43.657 27.798 43.657 27.9345 43.5662L29.3904 42.7485C29.5269 42.703 29.5269 42.5667 29.3904 42.4759ZM31.7107 41.1585L30.4823 40.4316C30.3458 40.3407 30.1183 40.3407 29.9818 40.4316L28.526 41.2493C28.3895 41.3402 28.3895 41.4764 28.526 41.5219L29.7543 42.2033C29.8908 42.2942 30.1183 42.2942 30.2548 42.2033L31.7107 41.3856C31.8472 41.3402 31.8472 41.2039 31.7107 41.1585ZM34.031 39.7956L32.8026 39.1142C32.6661 39.0233 32.4386 39.0233 32.3021 39.1142L30.8462 39.9319C30.7098 40.0227 30.7098 40.159 30.8462 40.2044L32.0746 40.8859C32.2111 40.9767 32.4386 40.9767 32.5751 40.8859L34.031 40.0682C34.1674 40.0227 34.1674 39.8864 34.031 39.7956ZM37.0792 38.0239L35.8508 37.3424C35.7143 37.2516 35.4868 37.2516 35.3503 37.3424L33.1665 38.6144C33.03 38.7053 33.03 38.8416 33.1665 38.887L34.3949 39.5684C34.5314 39.6593 34.7589 39.6593 34.8954 39.5684L37.0792 38.2964C37.2157 38.251 37.2157 38.1147 37.0792 38.0239ZM47.0883 39.6139L45.8599 38.9324C45.7234 38.8416 45.4959 38.8416 45.3594 38.9324L43.9036 39.7502C43.7671 39.841 43.7671 39.9773 43.9036 40.0227L45.132 40.7042C45.2684 40.795 45.4959 40.795 45.6324 40.7042L47.0883 39.8864C47.2248 39.841 47.2248 39.7047 47.0883 39.6139ZM49.4086 38.2964L48.1802 37.615C48.0437 37.5242 47.8162 37.5242 47.6797 37.615L46.2239 38.4327C46.0874 38.5236 46.0874 38.6599 46.2239 38.7053L47.4523 39.3867C47.5887 39.4776 47.8162 39.4776 47.9527 39.3867L49.4086 38.569C49.5451 38.4782 49.5451 38.3419 49.4086 38.2964ZM51.7289 36.9336L50.5005 36.2521C50.364 36.1613 50.1365 36.1613 50 36.2521L48.5442 37.0699C48.4077 37.1607 48.4077 37.297 48.5442 37.3424L49.7725 38.0239C49.909 38.1147 50.1365 38.1147 50.273 38.0239L51.7289 37.2062C51.8654 37.1607 51.8654 37.0244 51.7289 36.9336ZM49.2266 40.8404L47.9982 40.159C47.8617 40.0682 47.6342 40.0682 47.4977 40.159L46.0419 40.9767C45.9054 41.0676 45.9054 41.2039 46.0419 41.2493L47.2703 41.9307C47.4068 42.0216 47.6342 42.0216 47.7707 41.9307L49.2266 41.113C49.3631 41.0676 49.3631 40.9313 49.2266 40.8404ZM51.5469 39.523L50.3185 38.8416C50.182 38.7507 49.9545 38.7507 49.818 38.8416L48.3622 39.6593C48.2257 39.7502 48.2257 39.8864 48.3622 39.9319L49.5906 40.6133C49.727 40.7042 49.9545 40.7042 50.091 40.6133L51.5469 39.7956C51.6834 39.7047 51.6834 39.5684 51.5469 39.523ZM53.8672 38.1602L52.6388 37.4787C52.5023 37.3879 52.2748 37.3879 52.1383 37.4787L50.6825 38.2964C50.546 38.3873 50.546 38.5236 50.6825 38.569L51.9109 39.2504C52.0473 39.3413 52.2748 39.3413 52.4113 39.2504L53.8672 38.4327C54.0037 38.3873 54.0037 38.251 53.8672 38.1602ZM18.3349 51.2891L17.1065 50.6076C16.97 50.5168 16.7425 50.5168 16.606 50.6076L14.4222 51.8796C14.2857 51.9705 14.2857 52.1068 14.4222 52.1522L15.6506 52.8336C15.7871 52.9245 16.0146 52.9245 16.1511 52.8336L18.3349 51.5616C18.4714 51.5162 18.4714 51.3799 18.3349 51.2891ZM20.6552 49.9716L19.4268 49.2902C19.2903 49.1993 19.0628 49.1993 18.9263 49.2902L17.4704 50.1079C17.334 50.1988 17.334 50.3351 17.4704 50.3805L18.6988 51.0619C18.8353 51.1528 19.0628 51.1528 19.1993 51.0619L20.6552 50.2442C20.7916 50.1533 20.7916 50.0625 20.6552 49.9716ZM22.9755 48.6088L21.7471 47.9273C21.6106 47.8365 21.3831 47.8365 21.2466 47.9273L19.7907 48.7451C19.6542 48.8359 19.6542 48.9722 19.7907 49.0176L21.0191 49.6991C21.1556 49.7899 21.3831 49.7899 21.5196 49.6991L22.9755 48.8813C23.1119 48.8359 23.1119 48.6996 22.9755 48.6088ZM25.2957 47.2913L24.0674 46.6099C23.9309 46.519 23.7034 46.519 23.5669 46.6099L22.111 47.4276C21.9745 47.5185 21.9745 47.6548 22.111 47.7002L23.3394 48.3816C23.4759 48.4725 23.7034 48.4725 23.8399 48.3816L25.2957 47.5639C25.4322 47.473 25.4322 47.3822 25.2957 47.2913ZM27.616 45.9285L26.3876 45.247C26.2512 45.1562 26.0237 45.1562 25.8872 45.247L24.4313 46.0648C24.2948 46.1556 24.2948 46.2919 24.4313 46.3373L25.6597 47.0188C25.7962 47.1096 26.0237 47.1096 26.1602 47.0188L27.616 46.201C27.798 46.1556 27.798 46.0193 27.616 45.9285ZM29.9818 44.611L28.7534 43.9296C28.6169 43.8387 28.3895 43.8387 28.253 43.9296L26.7971 44.7473C26.6606 44.8382 26.6606 44.9745 26.7971 45.0199L28.0255 45.7013C28.162 45.7922 28.3895 45.7922 28.526 45.7013L29.9818 44.8836C30.1183 44.7928 30.1183 44.6565 29.9818 44.611ZM32.3021 43.2482L31.0737 42.5667C30.9372 42.4759 30.7098 42.4759 30.5733 42.5667L29.1174 43.3845C28.9809 43.4753 28.9809 43.6116 29.1174 43.657L30.3458 44.3385C30.4823 44.4293 30.7098 44.4293 30.8462 44.3385L32.3021 43.5207C32.4386 43.4753 32.4386 43.339 32.3021 43.2482ZM34.6224 41.9307L33.394 41.2493C33.2575 41.1585 33.0301 41.1585 32.8936 41.2493L31.4377 42.067C31.3012 42.1579 31.3012 42.2942 31.4377 42.3396L32.6661 43.021C32.8026 43.1119 33.03 43.1119 33.1665 43.021L34.6224 42.2033C34.7589 42.1125 34.7589 41.9762 34.6224 41.9307ZM36.9427 40.5679L35.7143 39.8864C35.5778 39.7956 35.3503 39.7956 35.2139 39.8864L33.758 40.7042C33.6215 40.795 33.6215 40.9313 33.758 40.9767L34.9864 41.6582C35.1229 41.749 35.3503 41.749 35.4868 41.6582L36.9427 40.8404C37.0792 40.795 37.0792 40.6587 36.9427 40.5679ZM39.263 39.2504L38.0346 38.569C37.8981 38.4782 37.6706 38.4782 37.5341 38.569L36.0783 39.3867C35.9418 39.4776 35.9418 39.6139 36.0783 39.6593L37.3067 40.3407C37.4432 40.4316 37.6706 40.4316 37.8071 40.3407L39.263 39.523C39.3995 39.4322 39.3995 39.2959 39.263 39.2504ZM19.6542 52.9699L18.4259 52.2885C18.2894 52.1976 18.0619 52.1976 17.9254 52.2885L16.4695 53.1062C16.333 53.1971 16.333 53.3334 16.4695 53.3788L17.6979 54.0602C17.8344 54.1511 18.0619 54.1511 18.1984 54.0602L19.6542 53.2425C19.7907 53.1516 19.7907 53.0154 19.6542 52.9699ZM21.9745 51.6071L20.7462 50.9256C20.6097 50.8348 20.3822 50.8348 20.2457 50.9256L18.7898 51.7433C18.6533 51.8342 18.6533 51.9705 18.7898 52.0159L20.0182 52.6974C20.1547 52.7882 20.3822 52.7882 20.5187 52.6974L21.9745 51.8796C22.111 51.8342 22.111 51.6979 21.9745 51.6071ZM24.2948 50.2896L23.0664 49.6082C22.93 49.5173 22.7025 49.5173 22.566 49.6082L21.1101 50.4259C20.9736 50.5168 20.9736 50.6531 21.1101 50.6985L22.3385 51.3799C22.475 51.4708 22.7025 51.4708 22.839 51.3799L24.2948 50.5622C24.4313 50.4713 24.4313 50.3351 24.2948 50.2896ZM26.6151 48.9268L25.3867 48.2453C25.2502 48.1545 25.0228 48.1545 24.8863 48.2453L23.4304 49.0631C23.2939 49.1539 23.2939 49.2902 23.4304 49.3356L24.6588 50.0171C24.7953 50.1079 25.0228 50.1079 25.1593 50.0171L26.6151 49.1993C26.7516 49.1539 26.7516 49.0176 26.6151 48.9268ZM23.8854 55.3776L22.657 54.6962C22.5205 54.6054 22.293 54.6054 22.1565 54.6962L20.7007 55.5139C20.5642 55.6048 20.5642 55.7411 20.7007 55.7865L21.929 56.4679C22.0655 56.5588 22.293 56.5588 22.4295 56.4679L23.8854 55.6502C24.0219 55.6048 24.0219 55.4685 23.8854 55.3776ZM26.2057 54.0602L24.9773 53.3788C24.8408 53.2879 24.6133 53.2879 24.4768 53.3788L23.0209 54.1965C22.8845 54.2874 22.8845 54.4236 23.0209 54.4691L24.2493 55.1505C24.3858 55.2414 24.6133 55.2414 24.7498 55.1505L26.2057 54.3328C26.3421 54.2419 26.3421 54.1056 26.2057 54.0602ZM28.526 52.6974L27.2976 52.0159C27.1611 51.9251 26.9336 51.9251 26.7971 52.0159L25.3412 52.8336C25.2048 52.9245 25.2048 53.0608 25.3412 53.1062L26.5696 53.7876C26.7061 53.8785 26.9336 53.8785 27.0701 53.7876L28.526 52.9699C28.6624 52.9245 28.6624 52.7882 28.526 52.6974ZM30.8462 51.3799L29.6179 50.6985C29.4814 50.6076 29.2539 50.6076 29.1174 50.6985L27.6615 51.5162C27.525 51.6071 27.525 51.7434 27.6615 51.7888L28.8899 52.4702C29.0264 52.5611 29.2539 52.5611 29.3904 52.4702L30.8462 51.6525C30.9827 51.5616 30.9827 51.4254 30.8462 51.3799ZM45.5414 42.8847L44.313 42.2033C44.1765 42.1125 43.9491 42.1125 43.8126 42.2033L41.6288 43.4753C41.4923 43.5662 41.4923 43.7025 41.6288 43.7479L42.8572 44.4293C42.9937 44.5202 43.2211 44.5202 43.3576 44.4293L45.5414 43.1573C45.6779 43.1119 45.6779 42.9756 45.5414 42.8847ZM28.9354 47.6093L27.707 46.9279C27.5705 46.837 27.3431 46.837 27.2066 46.9279L25.7507 47.7456C25.6142 47.8365 25.6142 47.9728 25.7507 48.0182L26.9791 48.6996C27.1156 48.7905 27.3431 48.7905 27.4795 48.6996L28.9354 47.8819C29.0719 47.791 29.0719 47.6548 28.9354 47.6093ZM31.2557 46.2465L30.0273 45.565C29.8908 45.4742 29.6634 45.4742 29.5269 45.565L28.071 46.3828C27.9345 46.4736 27.9345 46.6099 28.071 46.6553L29.2994 47.3368C29.4359 47.4276 29.6634 47.4276 29.7998 47.3368L31.2557 46.519C31.3922 46.4736 31.3922 46.3373 31.2557 46.2465ZM33.576 44.929L32.3476 44.2476C32.2111 44.1567 31.9836 44.1567 31.8472 44.2476L30.3913 45.0653C30.2548 45.1562 30.2548 45.2925 30.3913 45.3379L31.6197 46.0193C31.7562 46.1102 31.9836 46.1102 32.1201 46.0193L33.576 45.2016C33.758 45.1108 33.758 44.9745 33.576 44.929ZM35.9418 43.5662L34.7134 42.8847C34.5769 42.7939 34.3494 42.7939 34.2129 42.8847L32.7571 43.7025C32.6206 43.7933 32.6206 43.9296 32.7571 43.975L33.9855 44.6565C34.1219 44.7473 34.3494 44.7473 34.4859 44.6565L35.9418 43.8387C36.0783 43.7933 36.0783 43.657 35.9418 43.5662ZM38.2621 42.2487L37.0337 41.5673C36.8972 41.4765 36.6697 41.4765 36.5332 41.5673L35.0774 42.385C34.9409 42.4759 34.9409 42.6122 35.0774 42.6576L36.3058 43.339C36.4422 43.4299 36.6697 43.4299 36.8062 43.339L38.2621 42.5213C38.3986 42.4305 38.3986 42.2942 38.2621 42.2487ZM41.3103 40.477L40.0819 39.7956C39.9454 39.7047 39.7179 39.7047 39.5815 39.7956L37.3977 41.0676C37.2612 41.1584 37.2612 41.2947 37.3977 41.3402L38.626 42.0216C38.7625 42.1125 38.99 42.1125 39.1265 42.0216L41.3103 40.7496C41.4468 40.6587 41.4468 40.5225 41.3103 40.477ZM22.566 53.7422L21.3376 53.0608C21.2011 52.9699 20.9736 52.9699 20.8371 53.0608L18.6533 54.3328C18.5169 54.4237 18.5169 54.5599 18.6533 54.6054L19.8817 55.2868C20.0182 55.3776 20.2457 55.3776 20.3822 55.2868L22.566 54.0148C22.7025 53.9694 22.7025 53.8331 22.566 53.7422ZM24.8863 52.3794L23.6579 51.6979C23.5214 51.6071 23.2939 51.6071 23.1574 51.6979L21.7016 52.5156C21.5651 52.6065 21.5651 52.7428 21.7016 52.7882L22.93 53.4696C23.0664 53.5605 23.2939 53.5605 23.4304 53.4696L24.8863 52.6519C25.0228 52.6065 25.0228 52.4702 24.8863 52.3794ZM27.2066 51.0619L25.9782 50.3805C25.8417 50.2896 25.6142 50.2896 25.4777 50.3805L24.0219 51.1982C23.8854 51.2891 23.8854 51.4254 24.0219 51.4708L25.2502 52.1522C25.3867 52.2431 25.6142 52.2431 25.7507 52.1522L27.2066 51.3345C27.3431 51.2891 27.3431 51.1528 27.2066 51.0619ZM29.5269 49.6991L28.2985 49.0176C28.162 48.9268 27.9345 48.9268 27.798 49.0176L26.3421 49.8353C26.2057 49.9262 26.2057 50.0625 26.3421 50.1079L27.5705 50.7893C27.707 50.8802 27.9345 50.8802 28.071 50.7893L29.5269 49.9716C29.6634 49.9262 29.6634 49.7899 29.5269 49.6991ZM31.8472 48.3816L30.6188 47.7002C30.4823 47.6093 30.2548 47.6093 30.1183 47.7002L28.6624 48.5179C28.526 48.6088 28.526 48.7451 28.6624 48.7905L29.8908 49.4719C30.0273 49.5628 30.2548 49.5628 30.3913 49.4719L31.8472 48.6542C31.9836 48.5633 31.9836 48.4725 31.8472 48.3816ZM42.4932 44.6565L41.2648 43.975C41.1283 43.8842 40.9008 43.8842 40.7644 43.975L30.0273 50.1533C29.8908 50.2442 29.8908 50.3805 30.0273 50.4259L31.2557 51.1073C31.3922 51.1982 31.6197 51.1982 31.7562 51.1073L42.4932 44.9745C42.6297 44.8836 42.6297 44.7473 42.4932 44.6565ZM34.1674 47.0188L32.9391 46.3373C32.8026 46.2465 32.5751 46.2465 32.4386 46.3373L30.9827 47.155C30.8462 47.2459 30.8462 47.3822 30.9827 47.4276L32.2111 48.109C32.3476 48.1999 32.5751 48.1999 32.7116 48.109L34.1674 47.2913C34.3494 47.2459 34.3494 47.1096 34.1674 47.0188ZM36.5332 45.7013L35.3048 45.0199C35.1684 44.929 34.9409 44.929 34.8044 45.0199L33.3485 45.8376C33.212 45.9285 33.212 46.0648 33.3485 46.1102L34.5769 46.7916C34.7134 46.8825 34.9409 46.8825 35.0774 46.7916L36.5332 45.9739C36.6697 45.883 36.6697 45.7922 36.5332 45.7013ZM38.8535 44.3385L37.6251 43.657C37.4886 43.5662 37.2612 43.5662 37.1247 43.657L35.6688 44.4747C35.5323 44.5656 35.5323 44.7019 35.6688 44.7473L36.8972 45.4288C37.0337 45.5196 37.2612 45.5196 37.3977 45.4288L38.8535 44.611C38.99 44.5656 38.99 44.4293 38.8535 44.3385ZM41.1738 43.021L39.9454 42.3396C39.8089 42.2487 39.5815 42.2487 39.445 42.3396L37.9891 43.1573C37.8526 43.2482 37.8526 43.3845 37.9891 43.4299L39.2175 44.1113C39.354 44.2022 39.5815 44.2022 39.7179 44.1113L41.1738 43.2936C41.3103 43.2027 41.3103 43.1119 41.1738 43.021ZM43.4941 41.6582L42.2657 40.9767C42.1292 40.8859 41.9018 40.8859 41.7653 40.9767L40.3094 41.7945C40.1729 41.8853 40.1729 42.0216 40.3094 42.067L41.5378 42.7485C41.6743 42.8393 41.9018 42.8393 42.0382 42.7485L43.4941 41.9307C43.6306 41.8853 43.6306 41.749 43.4941 41.6582ZM40.7189 35.9341L39.4905 35.2527C39.354 35.1619 39.1265 35.1619 38.99 35.2527L37.5341 36.0704C37.3977 36.1613 37.3977 36.2976 37.5341 36.343L38.7625 37.0244C38.899 37.1153 39.1265 37.1153 39.263 37.0244L40.7189 36.2067C40.8553 36.1613 40.8553 36.025 40.7189 35.9341ZM43.0391 34.6167L41.8108 33.9353C41.6743 33.8444 41.4468 33.8444 41.3103 33.9353L39.8544 34.753C39.7179 34.8439 39.7179 34.9801 39.8544 35.0256L41.0828 35.707C41.2193 35.7979 41.4468 35.7979 41.5833 35.707L43.0391 34.8893C43.1756 34.8439 43.1756 34.7076 43.0391 34.6167ZM45.3594 33.2538L44.1311 32.5724C43.9946 32.4816 43.7671 32.4816 43.6306 32.5724L42.1747 33.3901C42.0382 33.481 42.0382 33.6173 42.1747 33.6627L43.4031 34.3441C43.5396 34.435 43.7671 34.435 43.9036 34.3441L45.3594 33.5264C45.4959 33.481 45.4959 33.3447 45.3594 33.2538ZM47.4977 34.4804L46.2694 33.799C46.1329 33.7081 45.9054 33.7081 45.7689 33.799L44.313 34.6167C44.1765 34.7076 44.1765 34.8439 44.313 34.8893L45.5414 35.5707C45.6779 35.6616 45.9054 35.6616 46.0419 35.5707L47.4977 34.753C47.6342 34.7076 47.6342 34.5713 47.4977 34.4804ZM49.5451 35.6161L48.3622 34.9347C48.2257 34.8893 48.0437 34.8893 47.9527 34.9347L45.9054 36.0704C45.8144 36.1159 45.6324 36.1159 45.5414 36.0704L43.9491 35.1619C43.7671 35.071 43.4941 35.071 43.3121 35.1619L39.6725 37.2516C39.4905 37.3424 39.4905 37.5242 39.6725 37.615L42.8572 39.4322C43.0391 39.523 43.3121 39.523 43.4941 39.4322L49.5451 35.9341C49.7271 35.8887 49.7271 35.707 49.5451 35.6161Z" fill="#291B2A"/>
<path d="M15.4231 50.6075L13.9673 51.4252C13.8308 51.516 13.6033 51.516 13.4668 51.4252L12.2384 50.7438C12.1019 50.6529 12.1019 50.5166 12.2384 50.4712L13.6943 49.6535C13.8308 49.5626 14.0583 49.5626 14.1947 49.6535L15.4231 50.3349C15.5596 50.3803 15.5596 50.5166 15.4231 50.6075ZM17.7434 48.972L16.515 48.2906C16.3785 48.1998 16.1511 48.1998 16.0146 48.2906L14.5587 49.1083C14.4222 49.1992 14.4222 49.3355 14.5587 49.3809L15.7871 50.0623C15.9236 50.1532 16.1511 50.1532 16.2875 50.0623L17.7434 49.2446C17.8799 49.1538 17.8799 49.0175 17.7434 48.972ZM20.0637 47.6092L18.8353 46.9277C18.6988 46.8369 18.4714 46.8369 18.3349 46.9277L16.879 47.7455C16.7425 47.8363 16.7425 47.9726 16.879 48.018L18.1074 48.6995C18.2439 48.7903 18.4714 48.7903 18.6078 48.6995L20.0637 47.8817C20.2002 47.8363 20.2002 47.7 20.0637 47.6092ZM22.384 46.2917L21.1556 45.6103C21.0191 45.5195 20.7916 45.5195 20.6552 45.6103L19.1993 46.428C19.0628 46.5189 19.0628 46.6552 19.1993 46.7006L20.4277 47.382C20.5642 47.4729 20.7916 47.4729 20.9281 47.382L22.384 46.5643C22.5205 46.4735 22.5205 46.3372 22.384 46.2917ZM24.7043 44.9289L23.4759 44.2474C23.3394 44.1566 23.1119 44.1566 22.9755 44.2474L21.5196 45.0652C21.3831 45.156 21.3831 45.2923 21.5196 45.3377L22.748 46.0192C22.8845 46.11 23.1119 46.11 23.2484 46.0192L24.7043 45.2015C24.8408 45.156 24.8408 45.0197 24.7043 44.9289ZM27.0246 43.6114L25.7962 42.93C25.6597 42.8392 25.4322 42.8392 25.2957 42.93L23.8399 43.7477C23.7034 43.8386 23.7034 43.9749 23.8399 44.0203L25.0683 44.7017C25.2047 44.7926 25.4322 44.7926 25.5687 44.7017L27.0246 43.884C27.2066 43.7932 27.2066 43.6569 27.0246 43.6114ZM29.3904 42.2486L28.162 41.5672C28.0255 41.4763 27.798 41.4763 27.6615 41.5672L26.2057 42.3849C26.0692 42.4757 26.0692 42.612 26.2057 42.6574L27.434 43.3389C27.5705 43.4297 27.798 43.4297 27.9345 43.3389L29.3904 42.5212C29.5269 42.4757 29.5269 42.3394 29.3904 42.2486ZM31.7107 40.9312L30.4823 40.2497C30.3458 40.1589 30.1183 40.1589 29.9818 40.2497L28.526 41.0674C28.3895 41.1583 28.3895 41.2946 28.526 41.34L29.7543 42.0214C29.8908 42.1123 30.1183 42.1123 30.2548 42.0214L31.7107 41.2037C31.8472 41.1129 31.8472 40.9766 31.7107 40.9312ZM34.031 39.5683L32.8026 38.8869C32.6661 38.796 32.4386 38.796 32.3021 38.8869L30.8462 39.7046C30.7098 39.7954 30.7098 39.9317 30.8462 39.9771L32.0746 40.6586C32.2111 40.7494 32.4386 40.7494 32.5751 40.6586L34.031 39.8409C34.1674 39.7954 34.1674 39.6592 34.031 39.5683ZM37.0792 37.7966L35.8508 37.1151C35.7143 37.0243 35.4868 37.0243 35.3503 37.1151L33.1665 38.3871C33.03 38.478 33.03 38.6143 33.1665 38.6597L34.3949 39.3412C34.5314 39.432 34.7589 39.432 34.8954 39.3412L37.0792 38.0691C37.2157 38.0237 37.2157 37.8874 37.0792 37.7966ZM47.0883 39.3866L45.8599 38.7051C45.7234 38.6143 45.4959 38.6143 45.3594 38.7051L43.9036 39.5229C43.7671 39.6137 43.7671 39.75 43.9036 39.7954L45.132 40.4769C45.2684 40.5677 45.4959 40.5677 45.6324 40.4769L47.0883 39.6592C47.2248 39.6137 47.2248 39.4774 47.0883 39.3866ZM49.4086 38.0691L48.1802 37.3877C48.0437 37.2969 47.8162 37.2969 47.6797 37.3877L46.2239 38.2054C46.0874 38.2963 46.0874 38.4326 46.2239 38.478L47.4523 39.1594C47.5887 39.2503 47.8162 39.2503 47.9527 39.1594L49.4086 38.3417C49.5451 38.2509 49.5451 38.16 49.4086 38.0691ZM51.7289 36.7063L50.5005 36.0249C50.364 35.934 50.1365 35.934 50 36.0249L48.5442 36.8426C48.4077 36.9334 48.4077 37.0697 48.5442 37.1151L49.7725 37.7966C49.909 37.8874 50.1365 37.8874 50.273 37.7966L51.7289 36.9789C51.8654 36.9334 51.8654 36.7971 51.7289 36.7063ZM49.2266 40.6131L47.9982 39.9317C47.8617 39.8409 47.6342 39.8409 47.4977 39.9317L46.0419 40.7494C45.9054 40.8403 45.9054 40.9766 46.0419 41.022L47.2703 41.7034C47.4068 41.7943 47.6342 41.7943 47.7707 41.7034L49.2266 40.8857C49.3631 40.8403 49.3631 40.704 49.2266 40.6131ZM51.5469 39.2957L50.3185 38.6143C50.182 38.5234 49.9545 38.5234 49.818 38.6143L48.3622 39.432C48.2257 39.5229 48.2257 39.6591 48.3622 39.7046L49.5906 40.386C49.727 40.4769 49.9545 40.4769 50.091 40.386L51.5469 39.5683C51.6834 39.4774 51.6834 39.3866 51.5469 39.2957ZM53.8672 37.9329L52.6388 37.2514C52.5023 37.1606 52.2748 37.1606 52.1383 37.2514L50.6825 38.0691C50.546 38.16 50.546 38.2963 50.6825 38.3417L51.9109 39.0231C52.0473 39.114 52.2748 39.114 52.4113 39.0231L53.8672 38.2054C54.0037 38.16 54.0037 38.0237 53.8672 37.9329ZM18.3349 51.0618L17.1065 50.3803C16.97 50.2895 16.7425 50.2895 16.606 50.3803L14.4222 51.6523C14.2857 51.7432 14.2857 51.8795 14.4222 51.9249L15.6506 52.6063C15.7871 52.6972 16.0146 52.6972 16.1511 52.6063L18.3349 51.3343C18.4714 51.2889 18.4714 51.1526 18.3349 51.0618ZM20.6552 49.7443L19.4268 49.0629C19.2903 48.972 19.0628 48.972 18.9263 49.0629L17.4704 49.8806C17.334 49.9715 17.334 50.1078 17.4704 50.1532L18.6988 50.8346C18.8353 50.9255 19.0628 50.9255 19.1993 50.8346L20.6552 50.0169C20.7916 49.9715 20.7916 49.8352 20.6552 49.7443ZM22.9755 48.3815L21.7471 47.7C21.6106 47.6092 21.3831 47.6092 21.2466 47.7L19.7907 48.5178C19.6542 48.6086 19.6542 48.7449 19.7907 48.7903L21.0191 49.4718C21.1556 49.5626 21.3831 49.5626 21.5196 49.4718L22.9755 48.654C23.1119 48.6086 23.1119 48.4723 22.9755 48.3815ZM25.2957 47.064L24.1128 46.3372C23.9764 46.2463 23.7489 46.2463 23.6124 46.3372L22.1565 47.1549C22.02 47.2458 22.02 47.382 22.1565 47.4275L23.3849 48.1089C23.5214 48.1997 23.7489 48.1997 23.8854 48.1089L25.3412 47.2912C25.4322 47.2458 25.4322 47.1549 25.2957 47.064ZM27.616 45.7012L26.3876 45.0197C26.2512 44.9289 26.0237 44.9289 25.8872 45.0197L24.4313 45.8375C24.2948 45.9283 24.2948 46.0646 24.4313 46.11L25.6597 46.7915C25.7962 46.8823 26.0237 46.8823 26.1602 46.7915L27.616 45.9737C27.798 45.9283 27.798 45.792 27.616 45.7012ZM29.9818 44.3837L28.7534 43.7023C28.6169 43.6114 28.3895 43.6114 28.253 43.7023L26.7971 44.52C26.6606 44.6109 26.6606 44.7472 26.7971 44.7926L28.0255 45.474C28.162 45.5649 28.3895 45.5649 28.526 45.474L29.9818 44.6563C30.1183 44.5655 30.1183 44.4746 29.9818 44.3837ZM32.3021 43.0209L31.0737 42.3394C30.9372 42.2486 30.7098 42.2486 30.5733 42.3394L29.1174 43.1572C28.9809 43.248 28.9809 43.3843 29.1174 43.4297L30.3458 44.1112C30.4823 44.202 30.7098 44.202 30.8462 44.1112L32.3021 43.2934C32.4386 43.248 32.4386 43.1117 32.3021 43.0209ZM34.6224 41.7034L33.394 41.022C33.2575 40.9312 33.0301 40.9312 32.8936 41.022L31.4377 41.8397C31.3012 41.9306 31.3012 42.0669 31.4377 42.1123L32.6661 42.7937C32.8026 42.8846 33.03 42.8846 33.1665 42.7937L34.6224 41.976C34.7589 41.8852 34.7589 41.7943 34.6224 41.7034ZM36.9427 40.3406L35.7143 39.6592C35.5778 39.5683 35.3503 39.5683 35.2139 39.6592L33.758 40.4769C33.6215 40.5677 33.6215 40.704 33.758 40.7494L34.9864 41.4309C35.1229 41.5217 35.3503 41.5217 35.4868 41.4309L36.9427 40.6131C37.0792 40.5677 37.0792 40.4314 36.9427 40.3406ZM39.263 39.0231L38.0346 38.3417C37.8981 38.2509 37.6706 38.2509 37.5341 38.3417L36.0783 39.1594C35.9418 39.2503 35.9418 39.3866 36.0783 39.432L37.3067 40.1134C37.4432 40.2043 37.6706 40.2043 37.8071 40.1134L39.263 39.2957C39.3995 39.2049 39.3995 39.114 39.263 39.0231ZM19.6542 52.7426L18.4259 52.0612C18.2894 51.9703 18.0619 51.9703 17.9254 52.0612L16.4695 52.8789C16.333 52.9698 16.333 53.1061 16.4695 53.1515L17.6979 53.8329C17.8344 53.9238 18.0619 53.9238 18.1984 53.8329L19.6542 53.0152C19.7907 52.9243 19.7907 52.8335 19.6542 52.7426ZM21.9745 51.3798L20.7462 50.6983C20.6097 50.6075 20.3822 50.6075 20.2457 50.6983L18.7898 51.516C18.6533 51.6069 18.6533 51.7432 18.7898 51.7886L20.0182 52.4701C20.1547 52.5609 20.3822 52.5609 20.5187 52.4701L21.9745 51.6523C22.111 51.6069 22.111 51.4706 21.9745 51.3798ZM24.2948 50.0623L23.0664 49.3809C22.93 49.29 22.7025 49.29 22.566 49.3809L21.1101 50.1986C20.9736 50.2895 20.9736 50.4258 21.1101 50.4712L22.3385 51.1526C22.475 51.2435 22.7025 51.2435 22.839 51.1526L24.2948 50.3349C24.4313 50.244 24.4313 50.1532 24.2948 50.0623ZM26.6151 48.6995L25.3867 48.018C25.2502 47.9272 25.0228 47.9272 24.8863 48.018L23.4304 48.8358C23.2939 48.9266 23.2939 49.0629 23.4304 49.1083L24.6588 49.7898C24.7953 49.8806 25.0228 49.8806 25.1593 49.7898L26.6151 48.972C26.7516 48.9266 26.7516 48.7903 26.6151 48.6995ZM23.8854 55.1503L22.657 54.4689C22.5205 54.3781 22.293 54.3781 22.1565 54.4689L20.7007 55.2866C20.5642 55.3775 20.5642 55.5138 20.7007 55.5592L21.929 56.2406C22.0655 56.3315 22.293 56.3315 22.4295 56.2406L23.8854 55.4229C24.0219 55.3775 24.0219 55.2412 23.8854 55.1503ZM26.2057 53.8329L24.9773 53.1515C24.8408 53.0606 24.6133 53.0606 24.4768 53.1515L23.0209 53.9692C22.8845 54.0601 22.8845 54.1963 23.0209 54.2418L24.2493 54.9232C24.3858 55.0141 24.6133 55.0141 24.7498 54.9232L26.2057 54.1055C26.3421 54.0146 26.3421 53.9238 26.2057 53.8329ZM28.526 52.4701L27.2976 51.7886C27.1611 51.6978 26.9336 51.6978 26.7971 51.7886L25.3412 52.6063C25.2048 52.6972 25.2048 52.8335 25.3412 52.8789L26.5696 53.5603C26.7061 53.6512 26.9336 53.6512 27.0701 53.5603L28.526 52.7426C28.6624 52.6972 28.6624 52.5609 28.526 52.4701ZM30.8462 51.1526L29.6179 50.4712C29.4814 50.3803 29.2539 50.3803 29.1174 50.4712L27.6615 51.2889C27.525 51.3798 27.525 51.5161 27.6615 51.5615L28.8899 52.2429C29.0264 52.3338 29.2539 52.3338 29.3904 52.2429L30.8462 51.4252C30.9827 51.3343 30.9827 51.2435 30.8462 51.1526ZM45.5414 42.6574L44.313 41.976C44.1765 41.8852 43.9491 41.8852 43.8126 41.976L41.6288 43.248C41.4923 43.3389 41.4923 43.4752 41.6288 43.5206L42.8572 44.202C42.9937 44.2929 43.2211 44.2929 43.3576 44.202L45.5414 42.93C45.6779 42.8846 45.6779 42.7483 45.5414 42.6574ZM28.9354 47.382L27.707 46.7006C27.5705 46.6097 27.3431 46.6097 27.2066 46.7006L25.7507 47.5183C25.6142 47.6092 25.6142 47.7455 25.7507 47.7909L26.9791 48.4723C27.1156 48.5632 27.3431 48.5632 27.4795 48.4723L28.9354 47.6546C29.0719 47.5637 29.0719 47.4729 28.9354 47.382ZM31.2557 46.0192L30.0273 45.3377C29.8908 45.2469 29.6634 45.2469 29.5269 45.3377L28.071 46.1555C27.9345 46.2463 27.9345 46.3826 28.071 46.428L29.2994 47.1095C29.4359 47.2003 29.6634 47.2003 29.7998 47.1095L31.2557 46.2917C31.3922 46.2463 31.3922 46.11 31.2557 46.0192ZM33.576 44.7017L32.3476 44.0203C32.2111 43.9294 31.9836 43.9294 31.8472 44.0203L30.3913 44.838C30.2548 44.9289 30.2548 45.0652 30.3913 45.1106L31.6197 45.792C31.7562 45.8829 31.9836 45.8829 32.1201 45.792L33.576 44.9743C33.758 44.8835 33.758 44.7926 33.576 44.7017ZM35.9418 43.3389L34.7134 42.6574C34.5769 42.5666 34.3494 42.5666 34.2129 42.6574L32.7571 43.4752C32.6206 43.566 32.6206 43.7023 32.7571 43.7477L33.9855 44.4292C34.1219 44.52 34.3494 44.52 34.4859 44.4292L35.9418 43.6114C36.0783 43.566 36.0783 43.4297 35.9418 43.3389ZM38.2621 42.0214L37.0337 41.34C36.8972 41.2492 36.6697 41.2492 36.5332 41.34L35.0774 42.1577C34.9409 42.2486 34.9409 42.3849 35.0774 42.4303L36.3058 43.1117C36.4422 43.2026 36.6697 43.2026 36.8062 43.1117L38.2621 42.294C38.3986 42.2032 38.3986 42.1123 38.2621 42.0214ZM41.3103 40.2497L40.0819 39.5683C39.9454 39.4774 39.7179 39.4774 39.5815 39.5683L37.3977 40.8403C37.2612 40.9312 37.2612 41.0674 37.3977 41.1129L38.626 41.7943C38.7625 41.8852 38.99 41.8852 39.1265 41.7943L41.3103 40.5223C41.4468 40.4314 41.4468 40.3406 41.3103 40.2497ZM22.566 53.5149L21.3376 52.8335C21.2011 52.7426 20.9736 52.7426 20.8371 52.8335L18.6533 54.0601C18.5169 54.1509 18.5169 54.2872 18.6533 54.3326L19.8817 55.0141C20.0182 55.1049 20.2457 55.1049 20.3822 55.0141L22.566 53.7421C22.7025 53.7421 22.7025 53.6058 22.566 53.5149ZM24.8863 52.1521L23.6579 51.4706C23.5214 51.3798 23.2939 51.3798 23.1574 51.4706L21.7016 52.2883C21.5651 52.3792 21.5651 52.5155 21.7016 52.5609L22.93 53.2423C23.0664 53.3332 23.2939 53.3332 23.4304 53.2423L24.8863 52.4246C25.0228 52.3792 25.0228 52.2429 24.8863 52.1521ZM27.2066 50.8346L25.9782 50.1532C25.8417 50.0623 25.6142 50.0623 25.4777 50.1532L24.0219 50.9709C23.8854 51.0618 23.8854 51.198 24.0219 51.2435L25.2502 51.9249C25.3867 52.0158 25.6142 52.0158 25.7507 51.9249L27.2066 51.1072C27.3431 51.0618 27.3431 50.9255 27.2066 50.8346ZM29.5269 49.4718L28.2985 48.7903C28.162 48.6995 27.9345 48.6995 27.798 48.7903L26.3421 49.608C26.2057 49.6989 26.2057 49.8352 26.3421 49.8806L27.5705 50.562C27.707 50.6529 27.9345 50.6529 28.071 50.562L29.5269 49.7443C29.6634 49.6989 29.6634 49.5626 29.5269 49.4718ZM31.8472 48.1543L30.6188 47.4729C30.4823 47.382 30.2548 47.382 30.1183 47.4729L28.6624 48.2906C28.526 48.3815 28.526 48.5177 28.6624 48.5632L29.8908 49.2446C30.0273 49.3355 30.2548 49.3355 30.3913 49.2446L31.8472 48.4269C31.9836 48.3815 31.9836 48.2452 31.8472 48.1543ZM42.4932 44.4292L41.2648 43.7477C41.1283 43.6569 40.9008 43.6569 40.7644 43.7477L30.0273 49.9715C29.8908 50.0623 29.8908 50.1986 30.0273 50.244L31.2557 50.9255C31.3922 51.0163 31.6197 51.0163 31.7562 50.9255L42.5387 44.7017C42.6297 44.6563 42.6297 44.52 42.4932 44.4292ZM34.1674 46.7915L32.9391 46.11C32.8026 46.0192 32.5751 46.0192 32.4386 46.11L30.9827 46.9277C30.8462 47.0186 30.8462 47.1549 30.9827 47.2003L32.2111 47.8817C32.3476 47.9726 32.5751 47.9726 32.7116 47.8817L34.1674 47.064C34.3494 47.0186 34.3494 46.8823 34.1674 46.7915ZM36.5332 45.474L35.3048 44.7926C35.1684 44.7017 34.9409 44.7017 34.8044 44.7926L33.3485 45.6103C33.212 45.7012 33.212 45.8375 33.3485 45.8829L34.5769 46.5643C34.7134 46.6552 34.9409 46.6552 35.0774 46.5643L36.5332 45.7466C36.6697 45.7012 36.6697 45.5649 36.5332 45.474ZM38.8535 44.1112L37.6251 43.4297C37.4886 43.3389 37.2612 43.3389 37.1247 43.4297L35.6688 44.2474C35.5323 44.3383 35.5323 44.4746 35.6688 44.52L36.8972 45.2015C37.0337 45.2923 37.2612 45.2923 37.3977 45.2015L38.8535 44.3837C38.99 44.3383 38.99 44.202 38.8535 44.1112ZM41.1738 42.7937L39.9454 42.1123C39.8089 42.0214 39.5815 42.0214 39.445 42.1123L37.9891 42.93C37.8526 43.0209 37.8526 43.1572 37.9891 43.2026L39.2175 43.884C39.354 43.9749 39.5815 43.9749 39.7179 43.884L41.1738 43.0663C41.3103 43.0209 41.3103 42.8846 41.1738 42.7937ZM43.4941 41.4309L42.2657 40.7494C42.1292 40.6586 41.9018 40.6586 41.7653 40.7494L40.3094 41.5672C40.1729 41.658 40.1729 41.7943 40.3094 41.8397L41.5378 42.5212C41.6743 42.612 41.9018 42.612 42.0382 42.5212L43.4941 41.7034C43.6306 41.658 43.6306 41.5217 43.4941 41.4309ZM40.7189 35.7523L39.4905 35.0708C39.354 34.98 39.1265 34.98 38.99 35.0708L37.5341 35.8886C37.3977 35.9794 37.3977 36.1157 37.5341 36.1611L38.7625 36.8426C38.899 36.9334 39.1265 36.9334 39.263 36.8426L40.7189 36.0249C40.8553 35.934 40.8553 35.7977 40.7189 35.7523ZM43.0391 34.3894L41.8108 33.708C41.6743 33.6171 41.4468 33.6171 41.3103 33.708L39.8544 34.5257C39.7179 34.6166 39.7179 34.7528 39.8544 34.7983L41.0828 35.4797C41.2193 35.5706 41.4468 35.5706 41.5833 35.4797L43.0391 34.662C43.1756 34.6166 43.1756 34.4803 43.0391 34.3894ZM45.3594 33.0266L44.1311 32.3451C43.9946 32.2543 43.7671 32.2543 43.6306 32.3451L42.1747 33.1628C42.0382 33.2537 42.0382 33.39 42.1747 33.4354L43.4031 34.1168C43.5396 34.2077 43.7671 34.2077 43.9036 34.1168L45.3594 33.2991C45.4959 33.2537 45.4959 33.1174 45.3594 33.0266ZM47.4977 34.2531L46.2694 33.5717C46.1329 33.4808 45.9054 33.4808 45.7689 33.5717L44.313 34.3894C44.1765 34.4803 44.1765 34.6166 44.313 34.662L45.5414 35.3434C45.6779 35.4343 45.9054 35.4343 46.0419 35.3434L47.4977 34.5257C47.6342 34.4803 47.6342 34.344 47.4977 34.2531ZM49.5451 35.3888L48.3622 34.7074C48.2257 34.662 48.0437 34.662 47.9527 34.7074L45.9054 35.8431C45.8144 35.8886 45.6324 35.8886 45.5414 35.8431L43.9491 34.9346C43.7671 34.8437 43.4941 34.8437 43.3121 34.9346L39.6725 37.0243C39.4905 37.1151 39.4905 37.2969 39.6725 37.3877L42.8572 39.2049C43.0391 39.2957 43.3121 39.2957 43.4941 39.2049L49.5451 35.7068C49.7271 35.6614 49.7271 35.4797 49.5451 35.3888Z" fill="#412B42"/>
<path opacity="0.6" d="M50.1365 49.1085L41.3558 54.1965L35.6688 50.9257L44.4495 45.8376L50.1365 49.1085Z" fill="#FDC1FF"/>
<path opacity="0.6" d="M7.14285 49.1994C6.73339 48.9722 6.41492 49.1539 6.41492 49.6082C6.41492 50.0625 6.73339 50.6076 7.14285 50.8348C7.55231 51.0619 7.87079 50.8802 7.87079 50.4259C7.82529 49.9716 7.50682 49.4265 7.14285 49.1994Z" fill="#4E2189"/>
<path d="M24.0218 60.7382L22.7024 59.9659C22.6114 59.9205 22.5659 59.7842 22.5659 59.7387V59.4662C22.5659 59.3753 22.6569 59.3299 22.7024 59.4207L24.0218 60.193C24.1128 60.2385 24.1583 60.3747 24.1583 60.4202V60.6927C24.1583 60.7836 24.1128 60.7836 24.0218 60.7382Z" fill="#4E2189"/>
<path d="M26.615 62.2373L25.2957 61.465C25.2047 61.4196 25.1592 61.2833 25.1592 61.2379V60.9653C25.1592 60.8745 25.2502 60.829 25.2957 60.9199L26.615 61.6922C26.706 61.7376 26.7515 61.8739 26.7515 61.9193V62.1919C26.7515 62.2827 26.706 62.2827 26.615 62.2373Z" fill="#4E2189"/>
<path opacity="0.5" d="M44.4495 45.8376L35.6688 50.9257L35.8963 51.0619L44.4495 46.1102L49.909 49.2448L50.1365 49.1085L44.4495 45.8376Z" fill="#CB89F0"/>
<path opacity="0.44" d="M56.6879 80.0001C77.2164 80.0001 93.8581 63.383 93.8581 42.8848C93.8581 22.3866 77.2164 5.76953 56.6879 5.76953C36.1594 5.76953 19.5178 22.3866 19.5178 42.8848C19.5178 63.383 36.1594 80.0001 56.6879 80.0001Z" fill="url(#paint1_radial_242_8443)"/>
<defs>
<linearGradient id="paint0_linear_242_8443" x1="8.2056" y1="46.8693" x2="65.5805" y2="46.8693" gradientUnits="userSpaceOnUse">
<stop stop-color="#F5ABFF"/>
<stop offset="0.4557" stop-color="#FFC5FF"/>
<stop offset="1" stop-color="#FFDEFF"/>
</linearGradient>
<radialGradient id="paint1_radial_242_8443" cx="0" cy="0" r="1" gradientUnits="userSpaceOnUse" gradientTransform="translate(56.6843 42.878) scale(37.1725 37.1176)">
<stop stop-color="#FF3DD5" stop-opacity="0.8"/>
<stop offset="0.0984119" stop-color="#FF2AE2" stop-opacity="0.7213"/>
<stop offset="0.2327" stop-color="#FF17EF" stop-opacity="0.6138"/>
<stop offset="0.391" stop-color="#FF0AF8" stop-opacity="0.4872"/>
<stop offset="0.5943" stop-color="#FF02FD" stop-opacity="0.3246"/>
<stop offset="1" stop-color="#FF00FF" stop-opacity="0"/>
</radialGradient>
</defs>
</svg>
