<svg width="85" height="85" viewBox="0 0 85 85" fill="none" xmlns="http://www.w3.org/2000/svg">
<path d="M33.1812 58.5752C36.3749 55.3816 37.4798 51.3128 35.6758 49.5087C33.8717 47.7047 29.8029 48.8096 26.6093 52.0033C23.4157 55.1969 15.0768 70.1077 15.0768 70.1077C15.0768 70.1077 29.9876 61.7688 33.1812 58.5752Z" fill="url(#paint0_linear_242_8386)"/>
<path d="M32.4052 42.4059C31.2889 43.8444 30.3655 45.4121 29.7634 47.1095C30.8371 50.6103 34.3164 54.0896 37.7853 55.1952C39.4827 54.5932 41.0504 53.6698 42.5211 52.5857L32.3733 42.4378L32.4052 42.4059Z" fill="url(#paint1_linear_242_8386)"/>
<path d="M31.2897 44.0368C31.7138 45.6745 33.0702 47.7974 35.0675 49.7947C37.1293 51.8565 39.3807 53.2776 41.0823 53.6378C41.3061 53.4784 41.5622 53.3512 41.786 53.1918C37.577 51.5377 33.4856 47.4463 31.8956 43.2376C31.6399 43.4289 31.4488 43.7488 31.2897 44.0368Z" fill="url(#paint2_radial_242_8386)"/>
<path d="M47.8667 57.4203C48.9836 56.11 49.1713 55.0203 48.943 54.1533L48.6169 52.933C48.8452 53.8 48.6575 54.8898 47.5406 56.2C47.349 56.3916 47.3179 56.616 47.3507 56.7765L47.6767 57.9968C47.6439 57.8363 47.7073 57.6441 47.8667 57.4203Z" fill="url(#paint3_linear_242_8386)"/>
<path d="M50.9349 47.5224C56.1169 51.6185 49.2819 58.3246 48.8984 58.6437L48.2561 58.4484C47.6781 58.3176 47.5157 57.8358 47.8986 57.3884C50.9939 53.7132 46.9443 51.8352 46.7193 51.738L50.9349 47.5224Z" fill="#8B3DCE"/>
<path d="M52.3841 48.8438C52.3838 48.7796 52.3838 48.7796 52.3516 48.7474C52.3513 48.6832 52.3191 48.651 52.3188 48.5869C52.3188 48.5869 52.2866 48.5547 52.3186 48.5227C52.2863 48.4905 52.2539 48.3941 52.2216 48.3619C52.2216 48.3619 52.2216 48.3619 52.1894 48.3297C52.1572 48.2975 52.1569 48.2333 52.0925 48.1689L52.0603 48.1367C52.0281 48.1045 52.0278 48.0403 51.9634 47.9759L51.9311 47.9437C51.8667 47.8793 51.8664 47.8151 51.802 47.7507L51.7698 47.7185C51.7376 47.6862 51.7051 47.5899 51.6729 47.5577C51.6729 47.5577 51.6729 47.5577 51.6406 47.5254L51.6084 47.4932C51.5762 47.461 51.5118 47.3966 51.5115 47.3324L51.4793 47.3002C51.4149 47.2358 51.3504 47.1714 51.3182 47.1391L51.286 47.1069C51.2216 47.0425 51.1894 47.0103 51.1249 46.9458C51.0927 46.9136 51.0927 46.9136 51.0605 46.8814C50.9961 46.817 50.9316 46.7526 50.8672 46.6881C50.835 46.6559 50.8028 46.6237 50.7706 46.5915C50.7383 46.5593 50.7383 46.5593 50.7061 46.527C50.6417 46.4626 50.6095 46.4304 50.5131 46.3979L50.8392 47.6182C50.9036 47.6826 50.9358 47.7148 51.0322 47.7473C51.0644 47.7795 51.0644 47.7795 51.0966 47.8118C51.1288 47.844 51.161 47.8762 51.1933 47.9084C51.2577 47.9728 51.3221 48.0373 51.3865 48.1017C51.4188 48.1339 51.4188 48.1339 51.451 48.1661C51.5154 48.2306 51.5476 48.2628 51.6121 48.3272L51.6443 48.3594C51.7087 48.4238 51.7731 48.4883 51.8053 48.5205L51.8376 48.5527C51.8698 48.5849 51.9342 48.6494 51.9345 48.7135C51.9667 48.7457 51.9667 48.7457 51.9989 48.7779C52.0311 48.8102 52.0636 48.9065 52.0958 48.9387L52.1281 48.9709C52.1925 49.0354 52.1928 49.0995 52.2572 49.164L52.2894 49.1962C52.3216 49.2284 52.3219 49.2925 52.3863 49.357L52.4186 49.3892C52.4508 49.4214 52.451 49.4856 52.5155 49.55L52.5477 49.5822C52.5802 49.6786 52.6124 49.7108 52.6127 49.7749C52.6127 49.7749 52.6449 49.8072 52.613 49.8391C52.6132 49.9032 52.6455 49.9355 52.6457 49.9996C52.6779 50.0318 52.646 50.0638 52.6782 50.096L52.3841 48.8438Z" fill="url(#paint4_linear_242_8386)"/>
<path d="M46.6874 51.7699L46.3613 50.5497L50.6089 46.3021L50.9349 47.5224L46.6874 51.7699Z" fill="url(#paint5_linear_242_8386)"/>
<path d="M26.5402 36.0937C27.8504 34.9768 28.9402 34.789 29.8072 35.0173L31.0275 35.3434C30.1604 35.1151 29.0707 35.3028 27.7605 36.4197C27.5688 36.6114 27.3444 36.6425 27.1839 36.6097L25.9637 36.2836C26.1242 36.3164 26.3486 36.2853 26.5402 36.0937Z" fill="url(#paint6_linear_242_8386)"/>
<path d="M36.4702 33.0576C32.3741 27.8757 25.6681 34.7106 25.3167 35.0619L25.512 35.7043C25.6428 36.2822 26.1246 36.4447 26.572 36.0617C30.2472 32.9664 32.1252 37.0161 32.2224 37.241L36.4702 33.0576Z" fill="#8B3DCE"/>
<path d="M32.1905 37.273L33.4108 37.5991L37.6583 33.3515L36.4703 33.0577L32.1905 37.273Z" fill="url(#paint7_linear_242_8386)"/>
<path d="M53.1223 48.9431C50.4057 51.2087 47.3987 53.056 44.132 54.1965C38.3505 52.3751 32.5195 46.5441 30.7301 40.7307C31.9025 37.4321 33.7498 34.425 36.0156 31.7726C40.5467 26.3395 46.7513 22.1967 52.3211 19.5908C53.9215 18.8279 55.5225 18.1934 56.9639 17.7185C62.953 15.6597 67.986 15.008 69.3018 15.1741C69.5584 15.1752 69.7839 15.4007 69.785 15.6573C69.9192 17.005 69.2994 22.0061 67.2725 27.9633C66.7657 29.4365 66.1631 31.0056 65.3683 32.638C62.7623 38.2077 58.5554 44.4121 53.1223 48.9431Z" fill="url(#paint8_linear_242_8386)"/>
<path d="M66.4164 30.2369C66.7338 29.4685 67.019 28.6678 67.2725 27.9633C69.2994 22.0061 69.9511 16.9731 69.785 15.6573C69.7839 15.4007 69.5584 15.1752 69.3018 15.1741C67.986 15.008 62.953 15.6597 56.9958 17.6866C56.2913 17.9401 55.4906 18.2253 54.7222 18.5427C56.6682 23.4908 61.4364 28.3228 66.4164 30.2369Z" fill="url(#paint9_linear_242_8386)"/>
<path d="M69.72 15.4645C67.543 16.4173 62.5811 18.6731 56.7595 22.3685C55.9202 21.146 55.209 19.8599 54.6899 18.5105C54.946 18.3833 55.2023 18.3203 55.4583 18.1931C55.7785 18.0662 56.0987 17.9393 56.4189 17.8124C56.6111 17.749 56.8033 17.6857 56.9955 17.6224C62.9529 15.6596 67.9859 15.008 69.3017 15.1741C69.43 15.1746 69.5908 15.2715 69.6875 15.3682C69.7197 15.4004 69.7197 15.4004 69.72 15.4645Z" fill="url(#paint10_linear_242_8386)"/>
<path opacity="0.38" d="M69.7198 15.4647C69.6229 15.3039 69.4621 15.207 69.3015 15.1742C67.9857 15.0081 62.9527 15.6598 56.9956 17.6867C55.5223 18.1935 53.9854 18.8283 52.3528 19.559C46.783 22.1649 40.6106 26.3399 36.0474 31.7408C33.8138 34.4254 31.9665 37.4325 30.7618 40.6989C31.3145 42.4013 32.1879 44.1051 33.2855 45.7136C43.8866 27.3164 64.5652 17.6555 69.7198 15.4647Z" fill="#C4BC9A"/>
<path opacity="0.53" d="M42.1842 34.1089C40.9575 32.3073 39.9227 30.3783 39.2409 28.4829C39.3686 28.3551 39.4964 28.2274 39.6239 28.0355C39.8155 27.8439 40.039 27.6203 40.2629 27.4609C40.8805 29.3561 41.8512 31.2848 43.1423 33.1508C42.8229 33.4701 42.5036 33.7895 42.1842 34.1089Z" fill="#0031BA"/>
<path opacity="0.53" d="M39.9814 36.5049C38.7225 34.6711 37.6555 32.7099 36.9415 30.7823C37.2606 30.3988 37.5799 30.0794 37.9312 29.7281L37.9632 29.6962C38.6131 31.6235 39.584 33.6164 40.9073 35.5146C40.588 35.834 40.2686 36.1533 39.9814 36.5049Z" fill="#0031BA"/>
<path d="M18.2134 46.4178C18.6285 46.0026 26.5154 37.7935 37.9014 37.6185L36.903 36.684C36.903 36.684 27.15 36.1925 17.9526 45.4544L18.2134 46.4178Z" fill="url(#paint11_linear_242_8386)"/>
<path d="M37.9014 37.6186C26.5154 37.7936 18.6285 46.0026 18.2134 46.4178L18.984 46.6136C19.6905 46.8091 20.6517 46.5567 21.1949 46.078C25.9562 41.961 33.177 42.8584 33.4981 42.9239L37.9014 37.6186Z" fill="#8B3DCE"/>
<path d="M37.9292 66.1336C38.3444 65.7184 46.5535 57.8315 46.7285 46.4456L47.663 47.444C47.663 47.444 48.1545 57.197 38.8926 66.3944L37.9292 66.1336Z" fill="url(#paint12_linear_242_8386)"/>
<path d="M46.7285 46.4455C46.5534 57.8315 38.3444 65.7184 37.9292 66.1335L37.7334 65.3629C37.5379 64.6564 37.7903 63.6952 38.2691 63.152C42.3861 58.3907 41.4886 51.1699 41.4231 50.8488L46.7285 46.4455Z" fill="#8B3DCE"/>
<path opacity="0.6" d="M53.8986 28.3221C52.4348 31.01 49.0757 33.0162 46.4449 32.8764C43.7819 32.7045 42.8737 30.3911 44.3375 27.7032C45.8013 25.0152 49.1605 23.0091 51.7912 23.1488C54.4542 23.3208 55.3946 25.6663 53.8986 28.3221Z" fill="#4E2189"/>
<path d="M52.8077 28.2532C51.6619 30.301 49.1028 31.8937 47.0494 31.7564C44.996 31.6192 44.2825 29.8199 45.4283 27.772C46.5741 25.7242 49.1332 24.1316 51.1866 24.2688C53.24 24.406 53.9535 26.2053 52.8077 28.2532Z" fill="#362437"/>
<path d="M47.123 34.0023C47.1872 34.0026 47.2513 34.0029 47.3155 34.0032L47.3796 34.0034C47.3796 34.0034 47.3796 34.0034 47.4438 34.0037L47.5079 34.004C47.5721 34.0043 47.6362 34.0046 47.7004 34.0048C47.7645 34.0051 47.8287 34.0054 47.9248 33.9737C47.9889 33.974 48.0531 33.9743 48.1492 33.9426C48.2133 33.9429 48.3094 33.9113 48.3736 33.9115L48.4377 33.9118C48.4377 33.9118 48.4696 33.8799 48.5019 33.9121C48.5338 33.8802 48.566 33.9124 48.5979 33.8804C48.6621 33.8807 48.7582 33.8491 48.8223 33.8493C48.8865 33.8496 48.9184 33.8177 48.9826 33.818C48.9826 33.818 48.9826 33.818 49.0145 33.786C49.0145 33.786 49.0145 33.786 49.0464 33.7541C49.1106 33.7544 49.2067 33.7227 49.2706 33.6588C49.3666 33.6272 49.3986 33.5952 49.4947 33.5636L49.5266 33.5316C49.5266 33.5316 49.5266 33.5316 49.5585 33.4997C49.5905 33.4678 49.6546 33.468 49.6866 33.4361C49.7827 33.4045 49.8146 33.3725 49.9107 33.3409C49.9426 33.3089 50.0068 33.3092 50.0387 33.2773C50.0387 33.2773 50.0387 33.2773 50.0706 33.2453C50.0706 33.2453 50.0706 33.2453 50.1026 33.2134C50.1987 33.1817 50.2306 33.1498 50.3267 33.1181C50.4228 33.0865 50.4867 33.0226 50.5508 33.0229L50.5827 32.991L50.6147 32.959C50.6466 32.9271 50.7427 32.8954 50.7746 32.8635C50.8707 32.8318 50.9346 32.768 50.9985 32.7041C51.0304 32.6721 51.0623 32.6402 51.1265 32.6405L51.1584 32.6086C51.2223 32.5447 51.2865 32.545 51.3503 32.4811C51.4464 32.4494 51.5422 32.3536 51.6061 32.2897L51.638 32.2578C51.798 32.1623 51.8938 32.0665 52.0538 31.9709C52.1176 31.9071 52.2457 31.8435 52.3095 31.7796C52.3734 31.7157 52.4373 31.6519 52.5012 31.588C52.565 31.5241 52.6289 31.4602 52.6928 31.3964C52.7567 31.3325 52.8205 31.2686 52.8844 31.2047L52.9163 31.1728L52.9483 31.1409C52.9802 31.1089 53.0441 31.0451 53.076 31.0131C53.1399 30.9493 53.2038 30.8854 53.2676 30.8215C53.2996 30.7896 53.2996 30.7896 53.3315 30.7576L53.3634 30.7257C53.3954 30.6938 53.4273 30.6618 53.4593 30.6299C53.5231 30.566 53.587 30.5021 53.6187 30.4061C53.6506 30.3741 53.6825 30.3422 53.7145 30.3102L53.7464 30.2783C53.7783 30.2464 53.7783 30.2464 53.8103 30.2144C53.8741 30.1506 53.9058 30.0545 53.9697 29.9906C54.0016 29.9587 54.0333 29.8626 54.0652 29.8306C54.0652 29.8306 54.0652 29.8306 54.0971 29.7987C54.0971 29.7987 54.0971 29.7987 54.1291 29.7668C54.193 29.7029 54.1927 29.6387 54.2565 29.5749C54.3204 29.511 54.3201 29.4468 54.384 29.383L54.416 29.351C54.4479 29.3191 54.4476 29.255 54.5115 29.1911C54.5754 29.1272 54.5751 29.0631 54.6067 28.967C54.6387 28.935 54.6384 28.8709 54.6703 28.8389C54.6703 28.8389 54.6703 28.8389 54.7023 28.807L54.7342 28.7751C54.7339 28.7109 54.7978 28.647 54.7975 28.5829C54.7972 28.5187 54.8611 28.4549 54.8608 28.3907C54.8608 28.3907 54.8608 28.3907 54.8928 28.3588C54.8928 28.3588 54.8928 28.3588 54.9247 28.3268C54.9566 28.2949 54.9564 28.2308 54.9883 28.1988C54.988 28.1347 55.0519 28.0708 55.0516 28.0066C55.0835 27.9747 55.0513 27.9425 55.0833 27.9106C55.0833 27.9106 55.1152 27.8786 55.083 27.8464C55.083 27.8464 55.1149 27.8145 55.0827 27.7822C55.0824 27.7181 55.1141 27.622 55.1138 27.5579C55.1135 27.4937 55.1455 27.4618 55.1133 27.4296C55.1133 27.4296 55.1452 27.3976 55.113 27.3654C55.113 27.3654 55.1449 27.3335 55.1127 27.3012C55.1124 27.2371 55.1441 27.141 55.1438 27.0769C55.1435 27.0127 55.1435 27.0127 55.1432 26.9486L55.143 26.8844L55.1427 26.8203C55.1421 26.6919 55.1418 26.6278 55.1093 26.5314L55.1091 26.4673C55.0766 26.3709 55.1082 26.2748 55.0757 26.1785C55.0757 26.1785 55.0757 26.1785 55.0435 26.1462C55.0435 26.1462 55.0113 26.114 55.0432 26.0821C55.0108 25.9857 54.978 25.8252 54.9135 25.7608L54.4275 24.636C54.46 24.7324 54.5247 24.861 54.5572 24.9573C54.5572 24.9573 54.5894 24.9896 54.5575 25.0215C54.59 25.1179 54.5906 25.2462 54.6231 25.3425C54.6231 25.3425 54.6553 25.3747 54.6233 25.4067C54.6239 25.535 54.6244 25.6633 54.625 25.7916L54.6253 25.8557C54.6258 25.984 54.6264 26.1123 54.5947 26.2084C54.5947 26.2084 54.5628 26.2404 54.595 26.2726C54.5956 26.4009 54.5642 26.5611 54.5006 26.6892C54.5006 26.6892 54.4687 26.7211 54.5009 26.7533C54.4695 26.9135 54.4059 27.0416 54.3745 27.2018C54.3745 27.2018 54.3745 27.2018 54.3426 27.2338C54.3112 27.394 54.2157 27.554 54.1521 27.682C54.1521 27.682 54.1521 27.682 54.1202 27.7139C54.0246 27.8739 53.9932 28.0341 53.8977 28.1941C53.8022 28.354 53.7067 28.514 53.6111 28.674C53.6111 28.674 53.6111 28.674 53.5792 28.7059C53.4837 28.8659 53.3559 28.9936 53.2604 29.1536L53.2284 29.1855C53.1007 29.3132 53.0052 29.4732 52.8774 29.601L52.8455 29.6329C52.7177 29.7606 52.59 29.8884 52.4623 30.0161L52.4303 30.0481C52.3026 30.1758 52.1429 30.3355 52.0151 30.4632C51.8874 30.591 51.6955 30.7184 51.5678 30.8462C51.44 30.9739 51.28 31.0695 51.1201 31.165C51.0562 31.2289 50.9282 31.2925 50.8643 31.3563C50.8004 31.4202 50.7044 31.4519 50.6405 31.5157C50.6085 31.5477 50.5766 31.5796 50.5125 31.5793C50.3844 31.6429 50.2245 31.7385 50.0964 31.8021L50.0645 31.834C49.9045 31.9295 49.7124 31.9928 49.5524 32.0884C49.5524 32.0884 49.5524 32.0884 49.5205 32.1203C49.3605 32.2158 49.2003 32.2472 49.0403 32.3427C49.0403 32.3427 49.0403 32.3427 49.0084 32.3747C48.8162 32.438 48.6882 32.5016 48.496 32.5649C48.496 32.5649 48.496 32.5649 48.4641 32.5968C48.3038 32.6282 48.1436 32.6596 47.9514 32.7229C47.9514 32.7229 47.9195 32.7548 47.8873 32.7226C47.727 32.754 47.5668 32.7854 47.4065 32.8168C47.2463 32.8481 47.0538 32.8473 46.9255 32.8468C46.9255 32.8468 46.9255 32.8468 46.8614 32.8465C46.7011 32.8779 46.5406 32.8451 46.3801 32.8123C46.2196 32.7795 46.0913 32.779 45.9308 32.7462C45.9308 32.7462 45.9308 32.7462 45.8985 32.714C45.7702 32.7134 45.6417 32.6487 45.5134 32.6482C45.5134 32.6482 45.4811 32.6159 45.4492 32.6479C45.3528 32.6154 45.2243 32.5507 45.1279 32.5182L45.0957 32.486C44.9993 32.4535 44.8707 32.3888 44.8063 32.3243L44.7741 32.2921C44.6455 32.2274 44.5811 32.163 44.4844 32.0663L44.4522 32.0341C44.3878 31.9697 44.3233 31.9053 44.2589 31.8408C44.2267 31.8086 44.1945 31.7764 44.1945 31.7764C44.1301 31.712 44.0656 31.6475 44.0653 31.5834C44.0331 31.5512 44.0331 31.5512 44.0009 31.519C43.9684 31.4226 43.8718 31.3259 43.8393 31.2296L44.3253 32.3543C44.3578 32.4507 44.4225 32.5793 44.4869 32.6437C44.5191 32.6759 44.5191 32.6759 44.5514 32.7081C44.6158 32.7726 44.6161 32.8367 44.6805 32.9011C44.7127 32.9334 44.7449 32.9656 44.7449 32.9656C44.8094 33.03 44.8738 33.0944 44.9382 33.1589L44.9704 33.1911C45.0349 33.2555 45.1635 33.3202 45.2279 33.3847L45.2601 33.4169C45.3245 33.4813 45.3887 33.4816 45.4531 33.546C45.4853 33.5782 45.5495 33.5785 45.5495 33.5785L45.5817 33.6107L45.6139 33.6429C45.6781 33.6432 45.7425 33.7076 45.8066 33.7079C45.8389 33.7401 45.8708 33.7082 45.903 33.7404C45.903 33.7404 45.9352 33.7726 45.9672 33.7407C45.9994 33.7729 46.0313 33.741 46.0635 33.7732C46.1277 33.7735 46.224 33.806 46.2563 33.8382C46.2885 33.8704 46.3204 33.8385 46.3526 33.8707C46.3526 33.8707 46.3526 33.8707 46.3848 33.9029C46.3848 33.9029 46.4171 33.9351 46.449 33.9032C46.5131 33.9034 46.5773 33.9037 46.6415 33.904C46.7056 33.9043 46.7698 33.9046 46.8339 33.9048C46.9947 34.0018 47.0589 34.002 47.123 34.0023Z" fill="#8B3DCE"/>
<path d="M66.4166 30.2373C66.734 29.4688 67.0192 28.6682 67.2728 27.9636C69.2997 22.0064 69.9514 16.9735 69.7853 15.6577C69.7842 15.401 69.5587 15.1755 69.302 15.1744C67.9862 15.0083 62.9533 15.66 56.9961 17.6869C56.2915 17.9405 55.4909 18.2257 54.7224 18.5431C56.6685 23.4911 61.4366 28.3232 66.4166 30.2373Z" fill="#CB89F0"/>
<path opacity="0.6" d="M69.72 15.4645C67.543 16.4173 62.5811 18.6731 56.7595 22.3685C55.9202 21.146 55.209 19.8599 54.6899 18.5105C54.946 18.3833 55.2023 18.3203 55.4583 18.1931C55.7785 18.0662 56.0987 17.9393 56.4189 17.8124C56.6111 17.749 56.8033 17.6857 56.9955 17.6224C62.9529 15.6596 67.9859 15.008 69.3017 15.174C69.43 15.1746 69.5908 15.2715 69.6875 15.3682C69.7197 15.4004 69.7197 15.4004 69.72 15.4645Z" fill="#4E2189"/>
<path d="M54.3364 47.8578C54.72 47.5387 55.0713 47.1874 55.4226 46.8361C51.7612 45.7296 47.9659 43.3396 44.6155 39.9892C41.4262 36.7999 39.0689 33.1651 37.8988 29.6317C37.5475 29.983 37.2284 30.3665 36.8771 30.7178C39.6999 38.1395 46.9803 45.356 54.3364 47.8578Z" fill="url(#paint13_linear_242_8386)"/>
<path d="M56.6039 45.5903C56.9874 45.2713 57.3387 44.92 57.69 44.5687C54.0287 43.4622 50.2334 41.0721 46.883 37.7217C43.6937 34.5324 41.3364 30.8976 40.1663 27.3643C39.815 27.7156 39.4959 28.0991 39.1446 28.4504C41.9674 35.8721 49.2478 43.0886 56.6039 45.5903Z" fill="url(#paint14_linear_242_8386)"/>
<g opacity="0.53">
<g opacity="0.4">
<path opacity="0.4" d="M39.9814 36.505C38.7225 34.6713 37.6555 32.71 36.9415 30.7824C37.2606 30.3989 37.5799 30.0795 37.9312 29.7282L37.9632 29.6963C38.6131 31.6236 39.584 33.6165 40.9073 35.5147C40.588 35.8341 40.2686 36.1534 39.9814 36.505Z" fill="#0031BA"/>
</g>
<g opacity="0.53">
<path opacity="0.4" d="M42.1843 34.1089C40.9576 32.3074 39.9228 30.3784 39.241 28.483C39.3687 28.3552 39.4964 28.2275 39.6239 28.0356C39.8475 27.812 40.0069 27.5882 40.2304 27.3646C40.2626 27.3968 40.2307 27.4288 40.2629 27.461C40.8806 29.3561 41.8512 31.2849 43.1424 33.1508C42.823 33.4702 42.5036 33.7896 42.1843 34.1089Z" fill="#0031BA"/>
</g>
</g>
<path opacity="0.6" d="M16.6705 67.8053C24.8015 75.9362 37.9273 75.9933 45.9879 67.9327C54.0485 59.8722 53.9914 46.7463 45.8604 38.6154C37.7295 30.4844 24.6036 30.4273 16.5431 38.4879C8.48251 46.5485 8.53958 59.6743 16.6705 67.8053Z" fill="url(#paint15_radial_242_8386)"/>
<defs>
<linearGradient id="paint0_linear_242_8386" x1="17.3934" y1="67.7868" x2="33.2851" y2="51.895" gradientUnits="userSpaceOnUse">
<stop stop-color="#FFFB03" stop-opacity="0"/>
<stop offset="0.2517" stop-color="#FFF103" stop-opacity="0.2958"/>
<stop offset="0.6806" stop-color="#FFE304" stop-opacity="0.8"/>
<stop offset="0.7784" stop-color="#FFCF05" stop-opacity="0.8612"/>
<stop offset="0.9125" stop-color="#FFBA06" stop-opacity="0.9452"/>
<stop offset="1" stop-color="#FFB206"/>
</linearGradient>
<linearGradient id="paint1_linear_242_8386" x1="33.7254" y1="51.2283" x2="35.8356" y2="49.1181" gradientUnits="userSpaceOnUse">
<stop stop-color="#DBAEFF"/>
<stop offset="0.1728" stop-color="#CF9FF8"/>
<stop offset="0.7201" stop-color="#AC74E5"/>
<stop offset="0.9996" stop-color="#9E64DE"/>
</linearGradient>
<radialGradient id="paint2_radial_242_8386" cx="0" cy="0" r="1" gradientUnits="userSpaceOnUse" gradientTransform="translate(36.4171 48.4179) rotate(45) scale(6.27617 1.62638)">
<stop offset="0.0143436" stop-color="#AFA477"/>
<stop offset="0.1521" stop-color="#B2A87D"/>
<stop offset="0.3339" stop-color="#BCB38E"/>
<stop offset="0.5405" stop-color="#CCC5A9"/>
<stop offset="0.7652" stop-color="#E3DFCF"/>
<stop offset="0.9995" stop-color="white"/>
</radialGradient>
<linearGradient id="paint3_linear_242_8386" x1="47.5748" y1="57.6418" x2="48.9472" y2="53.9157" gradientUnits="userSpaceOnUse">
<stop stop-color="#7314CE"/>
<stop offset="1" stop-color="#453189"/>
</linearGradient>
<linearGradient id="paint4_linear_242_8386" x1="50.2151" y1="46.6978" x2="53.1446" y2="49.6272" gradientUnits="userSpaceOnUse">
<stop offset="0.0742808" stop-color="#BFB89D"/>
<stop offset="1" stop-color="#EFEBDA"/>
</linearGradient>
<linearGradient id="paint5_linear_242_8386" x1="48.2664" y1="48.6465" x2="49.0421" y2="49.4222" gradientUnits="userSpaceOnUse">
<stop offset="0.0375744" stop-color="#FFFDF5"/>
<stop offset="1" stop-color="#EFEBDA"/>
</linearGradient>
<linearGradient id="paint6_linear_242_8386" x1="26.6349" y1="36.5598" x2="29.4783" y2="35.2476" gradientUnits="userSpaceOnUse">
<stop stop-color="#7314CE"/>
<stop offset="1" stop-color="#453189"/>
</linearGradient>
<linearGradient id="paint7_linear_242_8386" x1="35.328" y1="35.708" x2="34.5522" y2="34.9323" gradientUnits="userSpaceOnUse">
<stop offset="0.0375744" stop-color="#FFFDF5"/>
<stop offset="1" stop-color="#EFEBDA"/>
</linearGradient>
<linearGradient id="paint8_linear_242_8386" x1="46.3812" y1="17.7399" x2="56.5047" y2="45.5015" gradientUnits="userSpaceOnUse">
<stop stop-color="#F5ABFF"/>
<stop offset="0.4557" stop-color="#FFC5FF"/>
<stop offset="1" stop-color="#FFDEFF"/>
</linearGradient>
<linearGradient id="paint9_linear_242_8386" x1="58.3817" y1="14.2717" x2="70.4406" y2="26.3306" gradientUnits="userSpaceOnUse">
<stop stop-color="#0031BA"/>
<stop offset="1" stop-color="#0089F9"/>
</linearGradient>
<linearGradient id="paint10_linear_242_8386" x1="62.5501" y1="24.5296" x2="62.1842" y2="14.0225" gradientUnits="userSpaceOnUse">
<stop stop-color="#0031BA"/>
<stop offset="1" stop-color="#0089F9"/>
</linearGradient>
<linearGradient id="paint11_linear_242_8386" x1="18.5253" y1="43.4121" x2="45.6673" y2="36.7496" gradientUnits="userSpaceOnUse">
<stop stop-color="#7314CE"/>
<stop offset="1" stop-color="#453189"/>
</linearGradient>
<linearGradient id="paint12_linear_242_8386" x1="40.9222" y1="65.809" x2="47.5848" y2="38.667" gradientUnits="userSpaceOnUse">
<stop stop-color="#7314CE"/>
<stop offset="1" stop-color="#453189"/>
</linearGradient>
<linearGradient id="paint13_linear_242_8386" x1="36.6592" y1="30.9609" x2="53.9939" y2="48.2956" gradientUnits="userSpaceOnUse">
<stop stop-color="#AC6EE6"/>
<stop offset="0.9792" stop-color="#730DF9"/>
</linearGradient>
<linearGradient id="paint14_linear_242_8386" x1="38.9242" y1="28.6959" x2="56.2589" y2="46.0306" gradientUnits="userSpaceOnUse">
<stop stop-color="#AC6EE6"/>
<stop offset="0.9792" stop-color="#730DF9"/>
</linearGradient>
<radialGradient id="paint15_radial_242_8386" cx="0" cy="0" r="1" gradientUnits="userSpaceOnUse" gradientTransform="translate(31.2906 53.214) rotate(45) scale(20.841 20.6606)">
<stop stop-color="#F6FF00" stop-opacity="0.6"/>
<stop offset="0.0662628" stop-color="#F7FD00" stop-opacity="0.5602"/>
<stop offset="0.5647" stop-color="#FDEF00" stop-opacity="0.2612"/>
<stop offset="1" stop-color="#FFEA00" stop-opacity="0"/>
</radialGradient>
</defs>
</svg>
