<svg width="485" height="141" viewBox="0 0 485 141" fill="none" xmlns="http://www.w3.org/2000/svg">
<path d="M4.268 18.28V24H2.244V8.6H14.74C16.9253 8.6 18.502 8.974 19.47 9.722C20.438 10.4553 20.922 11.6433 20.922 13.286V13.704C20.922 15.288 20.438 16.4467 19.47 17.18C18.5167 17.9133 16.94 18.28 14.74 18.28H4.268ZM14.168 10.294H4.268V16.586H14.168C15.972 16.586 17.2113 16.366 17.886 15.926C18.5607 15.4713 18.898 14.694 18.898 13.594V13.286C18.898 12.1713 18.5533 11.394 17.864 10.954C17.1893 10.514 15.9573 10.294 14.168 10.294ZM26.1176 17.51V24H24.0936V8.6H36.7216C38.9363 8.6 40.4983 8.91533 41.4076 9.546C42.3169 10.162 42.7716 11.1373 42.7716 12.472V13.044C42.7716 14.1147 42.5149 14.9287 42.0016 15.486C41.5029 16.0287 40.7549 16.3587 39.7576 16.476V16.564C40.8136 16.696 41.5763 17.0187 42.0456 17.532C42.5296 18.0307 42.7716 18.8593 42.7716 20.018V24H40.7476V20.414C40.7476 19.226 40.4249 18.4487 39.7796 18.082C39.1489 17.7007 37.8509 17.51 35.8856 17.51H26.1176ZM35.8856 10.294H26.1176V15.816H36.1496C37.8803 15.816 39.0756 15.6327 39.7356 15.266C40.4103 14.8847 40.7476 14.188 40.7476 13.176V12.934C40.7476 11.9073 40.4029 11.2107 39.7136 10.844C39.0243 10.4773 37.7483 10.294 35.8856 10.294ZM58.108 24.22H55.556C52.212 24.22 49.8213 23.67 48.384 22.57C46.9613 21.47 46.25 19.7027 46.25 17.268V15.332C46.25 12.8973 46.9613 11.13 48.384 10.03C49.8213 8.93 52.212 8.38 55.556 8.38H58.108C61.452 8.38 63.8353 8.93 65.258 10.03C66.6953 11.13 67.414 12.8973 67.414 15.332V17.268C67.414 19.7027 66.6953 21.47 65.258 22.57C63.8353 23.67 61.452 24.22 58.108 24.22ZM56.04 22.526H57.624C59.1933 22.526 60.484 22.416 61.496 22.196C62.508 21.976 63.3 21.624 63.872 21.14C64.444 20.6413 64.8327 20.0547 65.038 19.38C65.258 18.7053 65.368 17.8473 65.368 16.806V15.794C65.368 14.7527 65.258 13.8947 65.038 13.22C64.8327 12.5453 64.444 11.966 63.872 11.482C63.3 10.9833 62.508 10.624 61.496 10.404C60.484 10.184 59.1933 10.074 57.624 10.074H56.04C54.4707 10.074 53.18 10.184 52.168 10.404C51.156 10.624 50.364 10.9833 49.792 11.482C49.22 11.966 48.824 12.5453 48.604 13.22C48.3987 13.8947 48.296 14.7527 48.296 15.794V16.806C48.296 17.8473 48.3987 18.7053 48.604 19.38C48.824 20.0547 49.22 20.6413 49.792 21.14C50.364 21.624 51.156 21.976 52.168 22.196C53.18 22.416 54.4707 22.526 56.04 22.526ZM73.0799 24H69.4059V22.306H72.2439C74.5465 22.306 76.1525 21.954 77.0619 21.25C77.9712 20.546 78.4259 19.468 78.4259 18.016V8.6H80.4499V18.126C80.4499 20.0913 79.8705 21.5653 78.7119 22.548C77.5532 23.516 75.6759 24 73.0799 24ZM101.468 22.306V24H84.5721V8.6H101.468V10.294H86.5961V15.442H101.468V17.136H86.5961V22.306H101.468ZM116.629 24.22H114.077C110.763 24.22 108.394 23.67 106.971 22.57C105.563 21.47 104.859 19.7027 104.859 17.268V15.332C104.859 12.8973 105.563 11.13 106.971 10.03C108.394 8.93 110.763 8.38 114.077 8.38H116.629C119.401 8.38 121.491 8.754 122.899 9.502C124.322 10.25 125.217 11.482 125.583 13.198H123.471C123.134 12.1127 122.415 11.3207 121.315 10.822C120.23 10.3233 118.499 10.074 116.123 10.074H114.583C113.014 10.074 111.723 10.184 110.711 10.404C109.714 10.624 108.937 10.9833 108.379 11.482C107.822 11.966 107.433 12.5453 107.213 13.22C107.008 13.8947 106.905 14.7527 106.905 15.794V16.806C106.905 17.8473 107.008 18.7053 107.213 19.38C107.433 20.0547 107.822 20.6413 108.379 21.14C108.937 21.624 109.714 21.976 110.711 22.196C111.723 22.416 113.014 22.526 114.583 22.526H116.123C118.499 22.526 120.23 22.2767 121.315 21.778C122.415 21.2793 123.134 20.4873 123.471 19.402H125.583C125.217 21.118 124.322 22.35 122.899 23.098C121.491 23.846 119.401 24.22 116.629 24.22ZM138.19 10.382V24H136.166V10.382H127.674V8.6H146.682V10.382H138.19ZM158.483 18.28V24H156.459V8.6H168.955C171.14 8.6 172.717 8.974 173.685 9.722C174.653 10.4553 175.137 11.6433 175.137 13.286V13.704C175.137 15.288 174.653 16.4467 173.685 17.18C172.732 17.9133 171.155 18.28 168.955 18.28H158.483ZM168.383 10.294H158.483V16.586H168.383C170.187 16.586 171.426 16.366 172.101 15.926C172.776 15.4713 173.113 14.694 173.113 13.594V13.286C173.113 12.1713 172.768 11.394 172.079 10.954C171.404 10.514 170.172 10.294 168.383 10.294ZM189.506 24.22H186.954C183.61 24.22 181.22 23.67 179.782 22.57C178.36 21.47 177.648 19.7027 177.648 17.268V15.332C177.648 12.8973 178.36 11.13 179.782 10.03C181.22 8.93 183.61 8.38 186.954 8.38H189.506C192.85 8.38 195.234 8.93 196.656 10.03C198.094 11.13 198.812 12.8973 198.812 15.332V17.268C198.812 19.7027 198.094 21.47 196.656 22.57C195.234 23.67 192.85 24.22 189.506 24.22ZM187.438 22.526H189.022C190.592 22.526 191.882 22.416 192.894 22.196C193.906 21.976 194.698 21.624 195.27 21.14C195.842 20.6413 196.231 20.0547 196.436 19.38C196.656 18.7053 196.766 17.8473 196.766 16.806V15.794C196.766 14.7527 196.656 13.8947 196.436 13.22C196.231 12.5453 195.842 11.966 195.27 11.482C194.698 10.9833 193.906 10.624 192.894 10.404C191.882 10.184 190.592 10.074 189.022 10.074H187.438C185.869 10.074 184.578 10.184 183.566 10.404C182.554 10.624 181.762 10.9833 181.19 11.482C180.618 11.966 180.222 12.5453 180.002 13.22C179.797 13.8947 179.694 14.7527 179.694 15.794V16.806C179.694 17.8473 179.797 18.7053 180.002 19.38C180.222 20.0547 180.618 20.6413 181.19 21.14C181.762 21.624 182.554 21.976 183.566 22.196C184.578 22.416 185.869 22.526 187.438 22.526ZM213.848 24.22H211.296C207.952 24.22 205.562 23.67 204.124 22.57C202.702 21.47 201.99 19.7027 201.99 17.268V15.332C201.99 12.8973 202.702 11.13 204.124 10.03C205.562 8.93 207.952 8.38 211.296 8.38H213.848C217.192 8.38 219.576 8.93 220.998 10.03C222.436 11.13 223.154 12.8973 223.154 15.332V17.268C223.154 19.7027 222.436 21.47 220.998 22.57C219.576 23.67 217.192 24.22 213.848 24.22ZM211.78 22.526H213.364C214.934 22.526 216.224 22.416 217.236 22.196C218.248 21.976 219.04 21.624 219.612 21.14C220.184 20.6413 220.573 20.0547 220.778 19.38C220.998 18.7053 221.108 17.8473 221.108 16.806V15.794C221.108 14.7527 220.998 13.8947 220.778 13.22C220.573 12.5453 220.184 11.966 219.612 11.482C219.04 10.9833 218.248 10.624 217.236 10.404C216.224 10.184 214.934 10.074 213.364 10.074H211.78C210.211 10.074 208.92 10.184 207.908 10.404C206.896 10.624 206.104 10.9833 205.532 11.482C204.96 11.966 204.564 12.5453 204.344 13.22C204.139 13.8947 204.036 14.7527 204.036 15.794V16.806C204.036 17.8473 204.139 18.7053 204.344 19.38C204.564 20.0547 204.96 20.6413 205.532 21.14C206.104 21.624 206.896 21.976 207.908 22.196C208.92 22.416 210.211 22.526 211.78 22.526ZM242.656 22.218V24H226.992V8.6H229.016V22.218H242.656ZM254.667 24.22H254.183C248.536 24.22 245.324 22.9073 244.547 20.282H246.703C247.553 21.8367 250.179 22.614 254.579 22.614C257.145 22.614 259.045 22.3867 260.277 21.932C261.523 21.4773 262.147 20.6853 262.147 19.556V19.358C262.147 18.5073 261.839 17.928 261.223 17.62C260.607 17.2973 259.455 17.0993 257.769 17.026L251.323 16.806C249.167 16.7473 247.641 16.432 246.747 15.86C245.867 15.2733 245.427 14.3273 245.427 13.022V12.912C245.427 11.2693 246.138 10.1033 247.561 9.414C248.998 8.72467 251.117 8.38 253.919 8.38H254.447C255.62 8.38 256.669 8.43867 257.593 8.556C258.517 8.67333 259.404 8.87133 260.255 9.15C261.105 9.42867 261.817 9.83933 262.389 10.382C262.961 10.9247 263.364 11.5847 263.599 12.362H261.487C261.105 11.4673 260.291 10.8513 259.045 10.514C257.798 10.162 256.17 9.986 254.161 9.986C251.785 9.986 250.076 10.206 249.035 10.646C247.993 11.086 247.473 11.79 247.473 12.758V12.802C247.473 13.6527 247.781 14.2393 248.397 14.562C249.013 14.87 250.164 15.0607 251.851 15.134L258.297 15.376C260.482 15.464 262.007 15.7867 262.873 16.344C263.753 16.9013 264.193 17.8327 264.193 19.138V19.314C264.193 20.282 263.965 21.096 263.511 21.756C263.071 22.4013 262.403 22.9 261.509 23.252C260.629 23.604 259.639 23.8533 258.539 24C257.453 24.1467 256.163 24.22 254.667 24.22Z" fill="white" fill-opacity="0.54"/>
<path d="M19.25 83.35H17.395C15.9717 83.35 14.6883 83.315 13.545 83.245C12.425 83.175 11.27 83.0467 10.08 82.86C8.91333 82.6733 7.875 82.405 6.965 82.055C6.07833 81.705 5.25 81.285 4.48 80.795C3.73333 80.2817 3.10333 79.64 2.59 78.87C2.1 78.1 1.75 77.225 1.54 76.245H8.855C9.36833 77.1317 10.3483 77.7267 11.795 78.03C13.265 78.31 15.6333 78.45 18.9 78.45C22.26 78.45 24.6283 78.2517 26.005 77.855C27.405 77.4583 28.1167 76.7117 28.14 75.615V75.405C28.14 74.705 27.8833 74.1917 27.37 73.865C26.8567 73.515 25.8883 73.3283 24.465 73.305L12.425 72.885C8.785 72.7917 6.23 72.2317 4.76 71.205C3.29 70.1783 2.555 68.545 2.555 66.305V66.025C2.555 63.1083 3.73333 61.0667 6.09 59.9C8.47 58.7333 12.285 58.15 17.535 58.15H18.935C21.035 58.15 22.855 58.2433 24.395 58.43C25.935 58.6167 27.44 58.955 28.91 59.445C30.4033 59.935 31.6167 60.6933 32.55 61.72C33.4833 62.7233 34.1367 63.9833 34.51 65.5H27.195C26.7983 64.5433 25.865 63.9017 24.395 63.575C22.9483 63.225 20.79 63.05 17.92 63.05C14.63 63.05 12.4133 63.2483 11.27 63.645C10.1267 64.0183 9.555 64.6717 9.555 65.605V65.675C9.555 66.375 9.81167 66.9 10.325 67.25C10.8383 67.5767 11.795 67.7633 13.195 67.81L25.235 68.23C28.8983 68.37 31.4533 68.93 32.9 69.91C34.3467 70.89 35.07 72.4883 35.07 74.705V74.985C35.07 78.1583 33.81 80.3517 31.29 81.565C28.7933 82.755 24.78 83.35 19.25 83.35ZM56.5939 77.26H62.9639C62.4506 79.43 61.2956 80.9933 59.4989 81.95C57.7256 82.8833 54.8322 83.35 50.8189 83.35H49.9789C45.7322 83.35 42.6289 82.6967 40.6689 81.39C38.7322 80.0833 37.7639 77.7733 37.7639 74.46V72.99C37.7639 69.6767 38.7322 67.3667 40.6689 66.06C42.6289 64.7533 45.7322 64.1 49.9789 64.1H50.6789C54.9489 64.1 58.0872 64.765 60.0939 66.095C62.1006 67.4017 63.1039 69.7 63.1039 72.99V74.95H44.0289C44.0989 76.6533 44.6006 77.7617 45.5339 78.275C46.4906 78.765 48.1239 79.01 50.4339 79.01C52.4872 79.01 53.9222 78.8817 54.7389 78.625C55.5789 78.3683 56.1972 77.9133 56.5939 77.26ZM50.4339 68.055C48.3106 68.055 46.7589 68.2883 45.7789 68.755C44.7989 69.1983 44.2272 70.1317 44.0639 71.555H56.8389V71.415C56.8389 70.1083 56.3139 69.2217 55.2639 68.755C54.2372 68.2883 52.6272 68.055 50.4339 68.055ZM84.4504 77.26H90.8204C90.307 79.43 89.152 80.9933 87.3554 81.95C85.582 82.8833 82.6887 83.35 78.6754 83.35H77.8354C73.5887 83.35 70.4854 82.6967 68.5254 81.39C66.5887 80.0833 65.6204 77.7733 65.6204 74.46V72.99C65.6204 69.6767 66.5887 67.3667 68.5254 66.06C70.4854 64.7533 73.5887 64.1 77.8354 64.1H78.5354C82.8054 64.1 85.9437 64.765 87.9504 66.095C89.957 67.4017 90.9604 69.7 90.9604 72.99V74.95H71.8854C71.9554 76.6533 72.457 77.7617 73.3904 78.275C74.347 78.765 75.9804 79.01 78.2904 79.01C80.3437 79.01 81.7787 78.8817 82.5954 78.625C83.4354 78.3683 84.0537 77.9133 84.4504 77.26ZM78.2904 68.055C76.167 68.055 74.6154 68.2883 73.6354 68.755C72.6554 69.1983 72.0837 70.1317 71.9204 71.555H84.6954V71.415C84.6954 70.1083 84.1704 69.2217 83.1204 68.755C82.0937 68.2883 80.4837 68.055 78.2904 68.055ZM128.525 64.45L119.18 83H110.885L101.54 64.45H108.645L115.155 78.03H115.47L121.98 64.45H128.525ZM152.773 71.905V83H146.508V79.5H146.368C145.318 82.0667 142.25 83.35 137.163 83.35C131.073 83.35 128.028 81.3667 128.028 77.4V77.12C128.052 73.76 130.245 72.01 134.608 71.87L146.508 71.485V71.345C146.508 70.0617 146.088 69.1983 145.248 68.755C144.408 68.2883 142.95 68.055 140.873 68.055C139.17 68.055 137.922 68.2067 137.128 68.51C136.335 68.79 135.763 69.2917 135.413 70.015H128.903C129.487 67.9383 130.665 66.4333 132.438 65.5C134.212 64.5667 137.047 64.1 140.943 64.1H141.818C145.878 64.1 148.713 64.6833 150.323 65.85C151.957 66.9933 152.773 69.0117 152.773 71.905ZM134.363 77.05V77.19C134.363 78.0533 134.737 78.6717 135.483 79.045C136.253 79.395 137.49 79.57 139.193 79.57C141.41 79.57 143.183 79.1967 144.513 78.45C145.843 77.68 146.508 76.6067 146.508 75.23V74.915L137.618 75.23C136.475 75.2767 135.647 75.44 135.133 75.72C134.62 76 134.363 76.4433 134.363 77.05ZM170.387 64.45H171.682V69.28H168.742C166.479 69.28 164.834 69.6183 163.807 70.295C162.78 70.9717 162.267 72.185 162.267 73.935V83H156.002V64.45H162.267V67.705H162.442C162.979 66.5383 163.889 65.71 165.172 65.22C166.455 64.7067 168.194 64.45 170.387 64.45ZM173.878 58.5H180.143V62.35H173.878V58.5ZM173.878 64.45H180.143V83H173.878V64.45ZM197.69 83.35H195.415C191.192 83.35 188.088 82.6967 186.105 81.39C184.122 80.06 183.13 77.75 183.13 74.46V72.99C183.13 69.7 184.122 67.4017 186.105 66.095C188.088 64.765 191.192 64.1 195.415 64.1H197.69C201.937 64.1 205.04 64.765 207 66.095C208.983 67.4017 209.975 69.7 209.975 72.99V74.46C209.975 77.75 208.983 80.06 207 81.39C205.04 82.6967 201.937 83.35 197.69 83.35ZM191.005 77.785C192.078 78.345 193.933 78.625 196.57 78.625C199.207 78.625 201.062 78.345 202.135 77.785C203.208 77.2017 203.745 76 203.745 74.18V73.27C203.745 71.4733 203.197 70.2833 202.1 69.7C201.027 69.1167 199.183 68.825 196.57 68.825C193.933 68.825 192.078 69.1167 191.005 69.7C189.932 70.26 189.395 71.45 189.395 73.27V74.18C189.395 76 189.932 77.2017 191.005 77.785ZM212.77 75.615V64.45H219V74.6C219 76.2333 219.409 77.3183 220.225 77.855C221.042 78.3683 222.302 78.625 224.005 78.625C225.965 78.625 227.424 78.2633 228.38 77.54C229.36 76.7933 229.85 75.545 229.85 73.795V64.45H236.115V83H229.85V79.71H229.64C228.404 82.1367 225.814 83.35 221.87 83.35C220.447 83.35 219.222 83.245 218.195 83.035C217.192 82.825 216.259 82.4517 215.395 81.915C214.532 81.3783 213.879 80.585 213.435 79.535C212.992 78.485 212.77 77.1783 212.77 75.615ZM252.522 83.35H251.507C247.541 83.35 244.601 82.9533 242.687 82.16C240.774 81.3667 239.561 79.9667 239.047 77.96H245.767C246.187 78.4967 246.864 78.8583 247.797 79.045C248.754 79.2317 250.224 79.325 252.207 79.325C254.541 79.325 256.127 79.185 256.967 78.905C257.831 78.625 258.262 78.135 258.262 77.435V77.33C258.262 76.8167 257.994 76.455 257.457 76.245C256.944 76.035 255.917 75.9067 254.377 75.86L247.237 75.58C244.484 75.4867 242.536 75.0433 241.392 74.25C240.249 73.4333 239.677 72.1383 239.677 70.365V70.015C239.677 67.7517 240.657 66.2 242.617 65.36C244.577 64.52 247.599 64.1 251.682 64.1H252.172C255.836 64.1 258.566 64.52 260.362 65.36C262.182 66.2 263.466 67.5767 264.212 69.49H257.422C256.676 68.58 254.762 68.125 251.682 68.125C249.512 68.125 248.031 68.2533 247.237 68.51C246.467 68.7667 246.082 69.1983 246.082 69.805V69.945C246.082 70.4583 246.351 70.82 246.887 71.03C247.424 71.24 248.451 71.3683 249.967 71.415L257.142 71.695C259.896 71.8117 261.832 72.2667 262.952 73.06C264.096 73.8533 264.667 75.1367 264.667 76.91V77.225C264.667 79.5117 263.722 81.11 261.832 82.02C259.942 82.9067 256.839 83.35 252.522 83.35ZM285.009 73.445V83H278.149V58.5H306.639V63.68H285.009V68.265H306.639V73.445H285.009ZM328.015 77.26H334.385C333.871 79.43 332.716 80.9933 330.92 81.95C329.146 82.8833 326.253 83.35 322.24 83.35H321.4C317.153 83.35 314.05 82.6967 312.09 81.39C310.153 80.0833 309.185 77.7733 309.185 74.46V72.99C309.185 69.6767 310.153 67.3667 312.09 66.06C314.05 64.7533 317.153 64.1 321.4 64.1H322.1C326.37 64.1 329.508 64.765 331.515 66.095C333.521 67.4017 334.525 69.7 334.525 72.99V74.95H315.45C315.52 76.6533 316.021 77.7617 316.955 78.275C317.911 78.765 319.545 79.01 321.855 79.01C323.908 79.01 325.343 78.8817 326.16 78.625C327 78.3683 327.618 77.9133 328.015 77.26ZM321.855 68.055C319.731 68.055 318.18 68.2883 317.2 68.755C316.22 69.1983 315.648 70.1317 315.485 71.555H328.26V71.415C328.26 70.1083 327.735 69.2217 326.685 68.755C325.658 68.2883 324.048 68.055 321.855 68.055ZM361.611 71.905V83H355.346V79.5H355.206C354.156 82.0667 351.088 83.35 346.001 83.35C339.911 83.35 336.866 81.3667 336.866 77.4V77.12C336.89 73.76 339.083 72.01 343.446 71.87L355.346 71.485V71.345C355.346 70.0617 354.926 69.1983 354.086 68.755C353.246 68.2883 351.788 68.055 349.711 68.055C348.008 68.055 346.76 68.2067 345.966 68.51C345.173 68.79 344.601 69.2917 344.251 70.015H337.741C338.325 67.9383 339.503 66.4333 341.276 65.5C343.05 64.5667 345.885 64.1 349.781 64.1H350.656C354.716 64.1 357.551 64.6833 359.161 65.85C360.795 66.9933 361.611 69.0117 361.611 71.905ZM343.201 77.05V77.19C343.201 78.0533 343.575 78.6717 344.321 79.045C345.091 79.395 346.328 79.57 348.031 79.57C350.248 79.57 352.021 79.1967 353.351 78.45C354.681 77.68 355.346 76.6067 355.346 75.23V74.915L346.456 75.23C345.313 75.2767 344.485 75.44 343.971 75.72C343.458 76 343.201 76.4433 343.201 77.05ZM368.445 68.93H363.79V64.45H368.445V58.5H374.675V64.45H381.15V68.93H374.675V74.775C374.675 76.385 375.002 77.4233 375.655 77.89C376.332 78.3567 377.615 78.59 379.505 78.59H381.15V83H377.335C373.998 83 371.677 82.4633 370.37 81.39C369.087 80.2933 368.445 78.4033 368.445 75.72V68.93ZM383.669 75.615V64.45H389.899V74.6C389.899 76.2333 390.307 77.3183 391.124 77.855C391.941 78.3683 393.201 78.625 394.904 78.625C396.864 78.625 398.322 78.2633 399.279 77.54C400.259 76.7933 400.749 75.545 400.749 73.795V64.45H407.014V83H400.749V79.71H400.539C399.302 82.1367 396.712 83.35 392.769 83.35C391.346 83.35 390.121 83.245 389.094 83.035C388.091 82.825 387.157 82.4517 386.294 81.915C385.431 81.3783 384.777 80.585 384.334 79.535C383.891 78.485 383.669 77.1783 383.669 75.615ZM424.821 64.45H426.116V69.28H423.176C420.912 69.28 419.267 69.6183 418.241 70.295C417.214 70.9717 416.701 72.185 416.701 73.935V83H410.436V64.45H416.701V67.705H416.876C417.412 66.5383 418.322 65.71 419.606 65.22C420.889 64.7067 422.627 64.45 424.821 64.45ZM446.55 77.26H452.92C452.407 79.43 451.252 80.9933 449.455 81.95C447.682 82.8833 444.788 83.35 440.775 83.35H439.935C435.688 83.35 432.585 82.6967 430.625 81.39C428.688 80.0833 427.72 77.7733 427.72 74.46V72.99C427.72 69.6767 428.688 67.3667 430.625 66.06C432.585 64.7533 435.688 64.1 439.935 64.1H440.635C444.905 64.1 448.043 64.765 450.05 66.095C452.057 67.4017 453.06 69.7 453.06 72.99V74.95H433.985C434.055 76.6533 434.557 77.7617 435.49 78.275C436.447 78.765 438.08 79.01 440.39 79.01C442.443 79.01 443.878 78.8817 444.695 78.625C445.535 78.3683 446.153 77.9133 446.55 77.26ZM440.39 68.055C438.267 68.055 436.715 68.2883 435.735 68.755C434.755 69.1983 434.183 70.1317 434.02 71.555H446.795V71.415C446.795 70.1083 446.27 69.2217 445.22 68.755C444.193 68.2883 442.583 68.055 440.39 68.055ZM482.421 58.5V83H476.191V79.71H476.016C475.433 80.97 474.43 81.8917 473.006 82.475C471.583 83.0583 469.611 83.35 467.091 83.35H466.321C462.775 83.35 460.091 82.685 458.271 81.355C456.475 80.025 455.576 77.7267 455.576 74.46V72.99C455.576 69.7233 456.475 67.425 458.271 66.095C460.091 64.765 462.775 64.1 466.321 64.1H467.091C469.611 64.1 471.583 64.3917 473.006 64.975C474.43 65.5583 475.433 66.48 476.016 67.74H476.191V58.5H482.421ZM463.451 77.785C464.525 78.345 466.38 78.625 469.016 78.625C471.653 78.625 473.508 78.345 474.581 77.785C475.655 77.2017 476.191 76 476.191 74.18V73.27C476.191 71.4733 475.643 70.2833 474.546 69.7C473.473 69.1167 471.63 68.825 469.016 68.825C466.38 68.825 464.525 69.1167 463.451 69.7C462.378 70.26 461.841 71.45 461.841 73.27V74.18C461.841 76 462.378 77.2017 463.451 77.785ZM210.501 117.93H205.846V113.45H210.501V107.5H216.731V113.45H223.206V117.93H216.731V123.775C216.731 125.385 217.057 126.423 217.711 126.89C218.387 127.357 219.671 127.59 221.561 127.59H223.206V132H219.391C216.054 132 213.732 131.463 212.426 130.39C211.142 129.293 210.501 127.403 210.501 124.72V117.93ZM239.731 132.35H237.456C233.233 132.35 230.129 131.697 228.146 130.39C226.163 129.06 225.171 126.75 225.171 123.46V121.99C225.171 118.7 226.163 116.402 228.146 115.095C230.129 113.765 233.233 113.1 237.456 113.1H239.731C243.978 113.1 247.081 113.765 249.041 115.095C251.024 116.402 252.016 118.7 252.016 121.99V123.46C252.016 126.75 251.024 129.06 249.041 130.39C247.081 131.697 243.978 132.35 239.731 132.35ZM233.046 126.785C234.119 127.345 235.974 127.625 238.611 127.625C241.248 127.625 243.103 127.345 244.176 126.785C245.249 126.202 245.786 125 245.786 123.18V122.27C245.786 120.473 245.238 119.283 244.141 118.7C243.068 118.117 241.224 117.825 238.611 117.825C235.974 117.825 234.119 118.117 233.046 118.7C231.973 119.26 231.436 120.45 231.436 122.27V123.18C231.436 125 231.973 126.202 233.046 126.785ZM270.889 132H264.659V107.5H270.889V116.74H271.064C271.648 115.48 272.651 114.558 274.074 113.975C275.498 113.392 277.469 113.1 279.989 113.1H280.759C284.306 113.1 286.978 113.765 288.774 115.095C290.594 116.425 291.504 118.723 291.504 121.99V123.46C291.504 126.727 290.594 129.025 288.774 130.355C286.978 131.685 284.306 132.35 280.759 132.35H279.989C277.469 132.35 275.498 132.058 274.074 131.475C272.651 130.892 271.648 129.97 271.064 128.71H270.889V132ZM272.499 126.785C273.573 127.345 275.428 127.625 278.064 127.625C280.701 127.625 282.556 127.345 283.629 126.785C284.703 126.202 285.239 125 285.239 123.18V122.27C285.239 120.45 284.703 119.26 283.629 118.7C282.556 118.117 280.701 117.825 278.064 117.825C275.451 117.825 273.596 118.117 272.499 118.7C271.426 119.283 270.889 120.473 270.889 122.27V123.18C270.889 125 271.426 126.202 272.499 126.785ZM318.579 120.905V132H312.314V128.5H312.174C311.124 131.067 308.056 132.35 302.969 132.35C296.879 132.35 293.834 130.367 293.834 126.4V126.12C293.857 122.76 296.051 121.01 300.414 120.87L312.314 120.485V120.345C312.314 119.062 311.894 118.198 311.054 117.755C310.214 117.288 308.756 117.055 306.679 117.055C304.976 117.055 303.727 117.207 302.934 117.51C302.141 117.79 301.569 118.292 301.219 119.015H294.709C295.292 116.938 296.471 115.433 298.244 114.5C300.017 113.567 302.852 113.1 306.749 113.1H307.624C311.684 113.1 314.519 113.683 316.129 114.85C317.762 115.993 318.579 118.012 318.579 120.905ZM300.169 126.05V126.19C300.169 127.053 300.542 127.672 301.289 128.045C302.059 128.395 303.296 128.57 304.999 128.57C307.216 128.57 308.989 128.197 310.319 127.45C311.649 126.68 312.314 125.607 312.314 124.23V123.915L303.424 124.23C302.281 124.277 301.452 124.44 300.939 124.72C300.426 125 300.169 125.443 300.169 126.05ZM335.108 132.35H333.568C329.321 132.35 326.218 131.697 324.258 130.39C322.321 129.083 321.353 126.773 321.353 123.46V121.99C321.353 118.677 322.321 116.367 324.258 115.06C326.218 113.753 329.321 113.1 333.568 113.1H335.108C339.074 113.1 342.014 113.672 343.928 114.815C345.841 115.958 346.961 117.627 347.288 119.82H340.883C340.369 119.097 339.669 118.583 338.783 118.28C337.896 117.977 336.519 117.825 334.653 117.825C332.039 117.825 330.208 118.117 329.158 118.7C328.131 119.26 327.618 120.45 327.618 122.27V123.18C327.618 125 328.131 126.202 329.158 126.785C330.208 127.345 332.039 127.625 334.653 127.625C336.519 127.625 337.896 127.473 338.783 127.17C339.669 126.867 340.369 126.353 340.883 125.63H347.288C346.961 127.823 345.841 129.492 343.928 130.635C342.014 131.778 339.074 132.35 335.108 132.35ZM356.271 127.275V132H350.006V107.5H356.271V121.36H356.446L367.121 113.45H375.346L364.671 121.22L376.396 132H367.891L360.016 124.685H359.841L356.271 127.275Z" fill="white"/>
<path d="M9.555 124.58V132H2.695V107.5H23.975C27.9417 107.5 30.7883 108.13 32.515 109.39C34.265 110.627 35.14 112.808 35.14 115.935V116.46C35.14 119.353 34.2767 121.43 32.55 122.69C30.8467 123.95 27.9883 124.58 23.975 124.58H9.555ZM22.785 112.68H9.555V119.4H22.82C25.0367 119.4 26.495 119.178 27.195 118.735C27.9183 118.268 28.28 117.428 28.28 116.215V115.865C28.28 114.628 27.9183 113.788 27.195 113.345C26.4717 112.902 25.0017 112.68 22.785 112.68ZM52.1938 113.45H53.4888V118.28H50.5488C48.2854 118.28 46.6404 118.618 45.6138 119.295C44.5871 119.972 44.0738 121.185 44.0738 122.935V132H37.8088V113.45H44.0738V116.705H44.2488C44.7854 115.538 45.6954 114.71 46.9788 114.22C48.2621 113.707 50.0004 113.45 52.1938 113.45ZM69.653 132.35H67.378C63.1547 132.35 60.0513 131.697 58.068 130.39C56.0847 129.06 55.093 126.75 55.093 123.46V121.99C55.093 118.7 56.0847 116.402 58.068 115.095C60.0513 113.765 63.1547 113.1 67.378 113.1H69.653C73.8997 113.1 77.003 113.765 78.963 115.095C80.9463 116.402 81.938 118.7 81.938 121.99V123.46C81.938 126.75 80.9463 129.06 78.963 130.39C77.003 131.697 73.8997 132.35 69.653 132.35ZM62.968 126.785C64.0413 127.345 65.8963 127.625 68.533 127.625C71.1697 127.625 73.0247 127.345 74.098 126.785C75.1713 126.202 75.708 125 75.708 123.18V122.27C75.708 120.473 75.1597 119.283 74.063 118.7C72.9897 118.117 71.1463 117.825 68.533 117.825C65.8963 117.825 64.0413 118.117 62.968 118.7C61.8947 119.26 61.358 120.45 61.358 122.27V123.18C61.358 125 61.8947 126.202 62.968 126.785ZM84.9084 107.5H91.1734V111.35H84.9084V107.5ZM84.9084 113.45H91.1734V127.17C91.1734 130.087 90.975 132.198 90.5784 133.505C90.205 134.812 89.33 136.293 87.9534 137.95H81.5484C82.925 136.247 83.8234 134.8 84.2434 133.61C84.6867 132.443 84.9084 130.857 84.9084 128.85V113.45ZM112.99 126.26H119.36C118.847 128.43 117.692 129.993 115.895 130.95C114.122 131.883 111.229 132.35 107.215 132.35H106.375C102.129 132.35 99.0254 131.697 97.0654 130.39C95.1287 129.083 94.1604 126.773 94.1604 123.46V121.99C94.1604 118.677 95.1287 116.367 97.0654 115.06C99.0254 113.753 102.129 113.1 106.375 113.1H107.075C111.345 113.1 114.484 113.765 116.49 115.095C118.497 116.402 119.5 118.7 119.5 121.99V123.95H100.425C100.495 125.653 100.997 126.762 101.93 127.275C102.887 127.765 104.52 128.01 106.83 128.01C108.884 128.01 110.319 127.882 111.135 127.625C111.975 127.368 112.594 126.913 112.99 126.26ZM106.83 117.055C104.707 117.055 103.155 117.288 102.175 117.755C101.195 118.198 100.624 119.132 100.46 120.555H113.235V120.415C113.235 119.108 112.71 118.222 111.66 117.755C110.634 117.288 109.024 117.055 106.83 117.055ZM135.772 132.35H134.232C129.985 132.35 126.882 131.697 124.922 130.39C122.985 129.083 122.017 126.773 122.017 123.46V121.99C122.017 118.677 122.985 116.367 124.922 115.06C126.882 113.753 129.985 113.1 134.232 113.1H135.772C139.739 113.1 142.679 113.672 144.592 114.815C146.505 115.958 147.625 117.627 147.952 119.82H141.547C141.034 119.097 140.334 118.583 139.447 118.28C138.56 117.977 137.184 117.825 135.317 117.825C132.704 117.825 130.872 118.117 129.822 118.7C128.795 119.26 128.282 120.45 128.282 122.27V123.18C128.282 125 128.795 126.202 129.822 126.785C130.872 127.345 132.704 127.625 135.317 127.625C137.184 127.625 138.56 127.473 139.447 127.17C140.334 126.867 141.034 126.353 141.547 125.63H147.952C147.625 127.823 146.505 129.492 144.592 130.635C142.679 131.778 139.739 132.35 135.772 132.35ZM153.865 117.93H149.21V113.45H153.865V107.5H160.095V113.45H166.57V117.93H160.095V123.775C160.095 125.385 160.422 126.423 161.075 126.89C161.752 127.357 163.035 127.59 164.925 127.59H166.57V132H162.755C159.418 132 157.097 131.463 155.79 130.39C154.507 129.293 153.865 127.403 153.865 124.72V117.93ZM182.249 132.35H181.234C177.267 132.35 174.327 131.953 172.414 131.16C170.5 130.367 169.287 128.967 168.774 126.96H175.494C175.914 127.497 176.59 127.858 177.524 128.045C178.48 128.232 179.95 128.325 181.934 128.325C184.267 128.325 185.854 128.185 186.694 127.905C187.557 127.625 187.989 127.135 187.989 126.435V126.33C187.989 125.817 187.72 125.455 187.184 125.245C186.67 125.035 185.644 124.907 184.104 124.86L176.964 124.58C174.21 124.487 172.262 124.043 171.119 123.25C169.975 122.433 169.404 121.138 169.404 119.365V119.015C169.404 116.752 170.384 115.2 172.344 114.36C174.304 113.52 177.325 113.1 181.409 113.1H181.899C185.562 113.1 188.292 113.52 190.089 114.36C191.909 115.2 193.192 116.577 193.939 118.49H187.149C186.402 117.58 184.489 117.125 181.409 117.125C179.239 117.125 177.757 117.253 176.964 117.51C176.194 117.767 175.809 118.198 175.809 118.805V118.945C175.809 119.458 176.077 119.82 176.614 120.03C177.15 120.24 178.177 120.368 179.694 120.415L186.869 120.695C189.622 120.812 191.559 121.267 192.679 122.06C193.822 122.853 194.394 124.137 194.394 125.91V126.225C194.394 128.512 193.449 130.11 191.559 131.02C189.669 131.907 186.565 132.35 182.249 132.35Z" fill="#00A3FF"/>
</svg>
