<svg width="80" height="60" viewBox="0 0 80 60" fill="none" xmlns="http://www.w3.org/2000/svg">
<path d="M76.8882 3.48454C76.7332 3.38135 76.5781 3.38135 76.3715 3.38135L71.3593 3.9489C71.1526 3.9489 70.9975 3.9489 70.8425 3.84571L72.5477 5.85795C72.7027 5.96114 72.8577 5.96114 73.0644 5.96114L78.8517 4.67124L76.8882 3.48454Z" fill="url(#paint0_linear_242_8529)"/>
<path d="M31.9334 56.0092V55.0805C31.9334 54.6161 31.7784 54.2549 31.4684 54.1002L29.4532 52.9135C29.7115 53.0682 29.8665 53.4294 29.9182 53.8938V54.8225C29.9182 55.0289 29.9699 55.1837 30.1249 55.2869L32.1401 56.4736C32.0368 56.3704 31.9334 56.2156 31.9334 56.0092Z" fill="#8B3DCE"/>
<path d="M70.2225 1.47237C70.1191 1.42077 69.9124 1.42077 69.7057 1.52397L30.4866 24.1229L32.5018 25.3097L71.721 2.71067C71.9277 2.60748 72.0827 2.60748 72.2377 2.65907L70.2225 1.47237Z" fill="url(#paint1_linear_242_8529)"/>
<path d="M32.5534 25.3096L30.5382 24.1229C30.1765 24.3293 29.8665 24.8969 29.8665 25.3096V26.2384C29.8665 26.9607 29.5048 27.7862 28.9364 28.4054L30.9516 29.5921C31.52 29.0245 31.8817 28.1474 31.8817 27.4251V26.4963C31.83 26.032 32.1401 25.516 32.5534 25.3096Z" fill="#8B3DCE"/>
<path d="M25.061 53.5325L25.0093 36.9186L22.9941 35.7319L23.0458 52.3458C23.0458 52.8102 23.2008 53.1713 23.4592 53.3261L25.4744 54.5128C25.216 54.3064 25.061 53.9969 25.061 53.5325Z" fill="#8B3DCE"/>
<path d="M25.9395 34.7518L23.9243 33.6167L28.9364 28.4055L30.9 29.5922L25.9395 34.7518Z" fill="url(#paint2_linear_242_8529)"/>
<path d="M71.721 2.71054C72.0827 2.50416 72.3927 2.65895 72.3927 3.12331V4.05203C72.3927 4.77437 72.7544 5.18714 73.3228 5.13555L78.335 4.56799C78.9034 4.5164 79.2651 4.92917 79.2651 5.65151L79.3168 22.2654C79.3168 22.9877 78.9551 23.8132 78.3867 24.4324L73.4262 29.592C72.8578 30.1595 72.4961 31.0367 72.4961 31.759V32.6877C72.4961 33.1005 72.186 33.6681 71.8243 33.8744L32.6052 56.4734C32.2434 56.6798 31.9334 56.525 31.9334 56.0607V55.1319C31.9334 54.4096 31.5717 53.9968 31.0033 54.0484L25.9911 54.616C25.4227 54.6676 25.061 54.2548 25.061 53.5325L25.0093 36.9186C25.0093 36.1963 25.3711 35.3707 25.9394 34.7516L30.9 29.592C31.4684 29.0244 31.8301 28.1473 31.8301 27.425V26.4962C31.8301 26.0835 32.1401 25.5159 32.5018 25.3095L71.721 2.71054Z" fill="#CB89F0"/>
<path d="M25.0093 36.9188L22.9941 35.7321C22.9941 35.0097 23.3558 34.1842 23.9242 33.5651L25.9394 34.7518C25.371 35.3709 25.0093 36.1964 25.0093 36.9188Z" fill="#CB89F0"/>
<path d="M33.3802 26.6513V52.5008L71.0491 30.779V4.92944L33.3802 26.6513Z" fill="#101014"/>
<path opacity="0.7" d="M33.3802 26.6513V29.5407L71.0491 7.81881V4.92944L33.3802 26.6513Z" fill="#131617"/>
<path d="M68.1039 7.6126V8.48973L69.6024 7.6126V6.73547L68.1039 7.6126Z" fill="#FB6EFF"/>
<path d="M67.6905 8.1284V8.48957L67.5872 8.54116V8.17999L67.6905 8.1284ZM69.654 6.68372V7.61244L67.7422 8.69595V7.76723L69.654 6.68372ZM69.6024 6.78691L67.8455 7.81882V8.59276L69.6024 7.56084V6.78691Z" fill="#FFE1FD"/>
<path d="M39.2191 30.1598C39.2191 31.1401 38.4441 32.3784 37.4623 32.9459C36.4805 33.5135 35.7054 33.1523 35.7054 32.172C35.7054 31.1917 36.4805 29.9534 37.4623 29.3858C38.4441 28.8699 39.2191 29.1795 39.2191 30.1598Z" fill="#82A951"/>
<path d="M46.66 25.8773C46.66 26.8576 45.8849 28.0959 44.9031 28.6635C43.9213 29.231 43.1462 28.8699 43.1462 27.8895C43.1462 26.9092 43.9213 25.6709 44.9031 25.1034C45.8849 24.5874 46.66 24.897 46.66 25.8773Z" fill="#259ECB"/>
<path d="M53.9457 21.6981C53.9457 22.6784 53.1706 23.9167 52.1888 24.4842C51.2071 25.0518 50.432 24.6906 50.432 23.7103C50.432 22.73 51.2071 21.4917 52.1888 20.9241C53.1706 20.3566 53.9457 20.7177 53.9457 21.6981Z" fill="#B73D3D"/>
<path d="M61.2831 29.0762C61.2831 30.0565 60.508 31.2948 59.5263 31.8623C58.5445 32.4299 57.7694 32.0687 57.7694 31.0884C57.7694 30.1081 58.5445 28.8698 59.5263 28.3022C60.4564 27.7863 61.2831 28.0958 61.2831 29.0762Z" fill="#D77C5D"/>
<path d="M68.7239 24.7938C68.7239 25.7741 67.9488 27.0124 66.9671 27.58C65.9853 28.1475 65.2102 27.7863 65.2102 26.806C65.2102 25.8257 65.9853 24.5874 66.9671 24.0198C67.9488 23.4523 68.7239 23.8135 68.7239 24.7938Z" fill="#F9DF81"/>
<path d="M61.1798 17.5187C61.1798 18.4991 60.4047 19.7374 59.423 20.3049C58.4412 20.8725 57.6661 20.5113 57.6661 19.531C57.6661 18.5507 58.4412 17.3124 59.423 16.7448C60.4047 16.1773 61.1798 16.5384 61.1798 17.5187Z" fill="#AF43A7"/>
<path d="M39.2191 36.0417C39.2191 37.0221 38.4441 38.2604 37.4623 38.8279C36.4805 39.3955 35.7054 39.0343 35.7054 38.054C35.7054 37.0737 36.4805 35.8354 37.4623 35.2678C38.4441 34.7518 39.2191 35.0614 39.2191 36.0417Z" fill="#AF43A7"/>
<path d="M46.66 31.7593C46.66 32.7396 45.8849 33.9779 44.9031 34.5454C43.9213 35.113 43.1462 34.7518 43.1462 33.7715C43.1462 32.7912 43.9213 31.5529 44.9031 30.9853C45.8849 30.4694 46.66 30.7789 46.66 31.7593Z" fill="#F9F9F8"/>
<path d="M53.9457 27.5799C53.9457 28.5602 53.1706 29.7985 52.1888 30.3661C51.2071 30.9336 50.432 30.5725 50.432 29.5921C50.432 28.6118 51.2071 27.3735 52.1888 26.806C53.1706 26.2384 53.9457 26.5996 53.9457 27.5799Z" fill="#D77C5D"/>
<path d="M39.2191 41.8719C39.2191 42.8523 38.4441 44.0906 37.4623 44.6581C36.4805 45.2257 35.7054 44.8645 35.7054 43.8842C35.7054 42.9039 36.4805 41.6656 37.4623 41.098C38.4441 40.582 39.2191 40.8916 39.2191 41.8719Z" fill="#F9DF81"/>
<path d="M46.66 37.5895C46.66 38.5698 45.8849 39.8081 44.9031 40.3756C43.9213 40.9432 43.1462 40.582 43.1462 39.6017C43.1462 38.6214 43.9213 37.3831 44.9031 36.8155C45.8849 36.2996 46.66 36.6091 46.66 37.5895Z" fill="#74B87C"/>
<path d="M53.9457 33.4104C53.9457 34.3907 53.1706 35.629 52.1888 36.1966C51.2071 36.7641 50.432 36.4029 50.432 35.4226C50.432 34.4423 51.2071 33.204 52.1888 32.6364C53.1706 32.1205 53.9457 32.4301 53.9457 33.4104Z" fill="#706588"/>
<path d="M61.2315 23.2459C61.2315 24.2262 60.4564 25.4645 59.4746 26.0321C58.4929 26.5996 57.7178 26.2385 57.7178 25.2582C57.7178 24.2778 58.4929 23.0395 59.4746 22.472C60.4047 21.9044 61.2315 22.2656 61.2315 23.2459Z" fill="#627874"/>
<path d="M68.7755 18.9119C68.7755 19.8923 68.0005 21.1306 67.0187 21.6981C66.0369 22.2657 65.2618 21.9045 65.2618 20.9242C65.2618 19.9439 66.0369 18.7056 67.0187 18.138C67.9488 17.5704 68.7755 17.9316 68.7755 18.9119Z" fill="#B0B1B6"/>
<path d="M68.6206 13.1848C68.6206 14.1651 67.8456 15.4034 66.8638 15.971C65.882 16.5385 65.1069 16.1774 65.1069 15.197C65.1069 14.2167 65.882 12.9784 66.8638 12.4109C67.8456 11.8949 68.6206 12.2045 68.6206 13.1848Z" fill="#BC89F8"/>
<path d="M75.2346 7.76708C73.6844 8.64421 72.3926 10.8628 72.3926 12.6687C72.3926 14.4745 73.6844 15.1969 75.2346 14.2682C76.7848 13.391 78.0766 11.1724 78.0766 9.36655C78.0766 7.61229 76.7848 6.88995 75.2346 7.76708Z" fill="#8B3DCE"/>
<path d="M75.5964 9.21187C76.5265 8.69591 77.2499 9.10868 77.2499 10.1406C77.2499 11.1725 76.5265 12.4624 75.5964 12.9784C74.718 13.4943 73.9429 13.0816 73.9429 12.0496C73.9429 11.0177 74.6663 9.77943 75.5964 9.21187Z" fill="#291B2A"/>
<path d="M76.8364 7.97339C76.7848 7.9218 76.6814 7.92179 76.6297 7.8702H76.5781H76.5264C76.4747 7.8702 76.3714 7.8186 76.3197 7.8186C76.268 7.8186 76.268 7.8186 76.2164 7.8186C76.1647 7.8186 76.113 7.8186 76.0613 7.8186C76.0097 7.8186 76.0097 7.8186 75.958 7.8186C75.9063 7.8186 75.9063 7.8186 75.9063 7.8186C75.8546 7.8186 75.7513 7.8186 75.6996 7.8702C75.648 7.8702 75.648 7.8702 75.5963 7.92179C75.5446 7.92179 75.493 7.9218 75.493 7.97339H75.4413C75.3379 8.02499 75.2346 8.07658 75.0279 8.17977C74.9762 8.23137 74.9246 8.23137 74.9246 8.23137C74.4078 8.54095 73.9945 9.00531 73.6328 9.46967C73.5294 9.62446 73.4777 9.72765 73.4261 9.83084C73.4261 9.88244 73.3744 9.88244 73.3744 9.93403C73.3227 10.0372 73.2711 10.1404 73.2194 10.2436C73.2194 10.2952 73.1677 10.2952 73.1677 10.3468C73.0644 10.6048 72.961 10.8628 72.9093 11.0175C72.9093 11.0691 72.9093 11.0691 72.9093 11.1207C72.9093 11.1723 72.9093 11.1723 72.9093 11.2239C72.8577 11.3787 72.8577 11.4819 72.806 11.5851C72.806 11.6883 72.7543 11.8431 72.7543 11.9979C72.7543 12.2042 72.7543 12.5138 72.806 12.6686C72.8577 12.875 72.9093 13.133 73.0644 13.3394C73.1677 13.5457 73.271 13.6489 73.3744 13.7005C73.4261 13.7521 73.4777 13.8037 73.5294 13.8037L73.6328 13.8553C73.2194 13.5973 72.961 13.0814 72.9093 12.3074C72.9093 10.8112 73.9945 8.95371 75.2863 8.17977C75.958 7.8186 76.5781 7.76701 76.9914 8.02499L76.8364 7.97339Z" fill="#291B2A"/>
<path d="M77.6631 9.21183C77.6631 9.10864 77.6115 8.79907 77.4048 8.48949C77.2497 8.23151 77.0947 8.12832 76.9397 8.02513C76.5263 7.76715 75.9063 7.81874 75.2345 8.17991C73.8911 8.95385 72.8576 10.8113 72.8576 12.3076C72.8576 13.0815 73.116 13.5975 73.581 13.8555C73.891 14.0618 74.2528 14.0618 74.6661 14.0102C75.3379 13.8555 75.8546 13.4427 76.1646 13.1331C76.9397 12.4108 77.2497 11.6368 77.4048 11.3273C77.5598 10.8629 77.6631 10.6049 77.7148 10.1922C77.7148 9.83098 77.7148 9.573 77.6631 9.21183ZM75.5962 12.9783C74.7178 13.4943 73.9427 13.0815 73.9427 12.0496C73.9427 11.0177 74.6661 9.72779 75.5962 9.21183C76.5263 8.69587 77.2497 9.10864 77.2497 10.1406C77.1981 11.2241 76.4747 12.4624 75.5962 12.9783Z" fill="#362437"/>
<path d="M29.2464 34.2873C27.6963 35.1645 26.4044 37.3831 26.4044 39.189C26.4044 40.9948 27.6963 41.7171 29.2464 40.7884C30.7966 39.9113 32.0884 37.6927 32.0884 35.8868C32.0884 34.1326 30.7966 33.4102 29.2464 34.2873Z" fill="#8B3DCE"/>
<path d="M29.5563 35.7323C30.4864 35.2163 31.2098 35.6291 31.2098 36.661C31.2098 37.6929 30.4864 38.9828 29.5563 39.4988C28.6779 40.0147 27.9028 39.602 27.9028 38.57C27.9545 37.5381 28.6779 36.2998 29.5563 35.7323Z" fill="#291B2A"/>
<path d="M30.8482 34.4937C30.7965 34.4421 30.6932 34.4421 30.6415 34.3905H30.5898H30.5382C30.4865 34.3905 30.3831 34.3389 30.3315 34.3389C30.2798 34.3389 30.2798 34.3389 30.2281 34.3389C30.1764 34.3389 30.1248 34.3389 30.0731 34.3389C30.0214 34.3389 30.0214 34.3389 29.9698 34.3389C29.9181 34.3389 29.9181 34.3389 29.9181 34.3389C29.8664 34.3389 29.7631 34.3389 29.7114 34.3905C29.6597 34.3905 29.6597 34.3905 29.6081 34.4421C29.5564 34.4421 29.5047 34.4421 29.5047 34.4937H29.453C29.3497 34.5453 29.2463 34.5969 29.0397 34.7C28.988 34.7516 28.9363 34.7516 28.9363 34.7516C28.4196 35.0612 28.0062 35.5256 27.6445 35.9899C27.5412 36.1447 27.4895 36.2479 27.4378 36.3511C27.4378 36.4027 27.3861 36.4027 27.3861 36.4543C27.3345 36.5575 27.2828 36.6607 27.2311 36.7639C27.2311 36.8155 27.1795 36.8155 27.1795 36.8671C27.0761 37.125 26.9728 37.383 26.9211 37.5378C26.9211 37.5894 26.9211 37.5894 26.9211 37.641C26.9211 37.6926 26.9211 37.6926 26.9211 37.7442C26.8694 37.899 26.8694 38.0022 26.8177 38.1054C26.8177 38.2086 26.7661 38.3633 26.7661 38.5181C26.7661 38.7245 26.7661 39.0341 26.8177 39.1889C26.8694 39.3953 26.9211 39.6532 27.0761 39.8596C27.1794 40.066 27.2828 40.1692 27.3861 40.2208C27.4378 40.2724 27.4895 40.324 27.5412 40.324L27.6445 40.3756C27.2311 40.1176 26.9728 39.6017 26.9211 38.8277C26.9211 37.3314 28.0062 35.474 29.298 34.7C29.9698 34.3389 30.5898 34.2873 31.0032 34.5453L30.8482 34.4937Z" fill="#291B2A"/>
<path d="M31.6749 35.7321C31.6749 35.6289 31.6232 35.3193 31.4165 35.0098C31.2615 34.7518 31.1065 34.6486 30.9515 34.5454C30.5381 34.2874 29.918 34.339 29.2463 34.7002C27.9028 35.4741 26.8694 37.3316 26.8694 38.8278C26.8694 39.6018 27.1277 40.1177 27.5928 40.3757C27.9028 40.5821 28.2645 40.5821 28.6779 40.5305C29.3496 40.3757 29.8664 39.963 30.1764 39.6534C30.9515 38.931 31.2615 38.1571 31.4165 37.8475C31.5715 37.3832 31.6749 37.1252 31.7266 36.7124C31.7266 36.3512 31.7266 36.0933 31.6749 35.7321ZM29.608 39.4986C28.7296 40.0145 27.9545 39.6018 27.9545 38.5699C27.9545 37.538 28.6779 36.2481 29.608 35.7321C30.5381 35.2161 31.2615 35.6289 31.2615 36.6608C31.2098 37.7443 30.4864 38.9826 29.608 39.4986Z" fill="#362437"/>
<path d="M27.6446 49.9211L26.3011 50.695C26.1978 50.7466 26.0944 50.695 26.0944 50.5918V47.5477C26.0944 47.4961 26.1461 47.4445 26.1461 47.4445L27.7479 46.5157C27.7996 46.4641 27.7996 46.4641 27.7996 46.4126V44.5551C27.7996 44.5035 27.8513 44.4519 27.8513 44.4519L30.4866 42.904C30.5899 42.8524 30.6932 42.904 30.6932 43.0072V44.5035C30.6932 44.6067 30.7966 44.7099 30.8999 44.6067L32.2434 43.8328C32.3467 43.7812 32.4501 43.8328 32.4501 43.9359V46.9801C32.4501 47.0317 32.3984 47.0833 32.3984 47.0833L30.7966 48.012C30.7449 48.0636 30.7449 48.0636 30.7449 48.1152V49.9727C30.7449 50.0243 30.6932 50.0759 30.6932 50.0759L28.058 51.6237C27.9546 51.6753 27.8513 51.6237 27.8513 51.5205V50.0243C27.9029 49.9211 27.7479 49.8695 27.6446 49.9211Z" fill="#8B3DCE"/>
<path d="M28.5746 51.4172L28.0579 51.1076V48.9406L28.5746 49.2501V51.4172Z" fill="#291B2A"/>
<path d="M26.7144 50.3337L26.1977 50.0242V47.6508L26.7144 47.9603V50.3337Z" fill="#291B2A"/>
<path d="M28.5746 46.8768L28.0579 46.5672V44.4518L28.5746 44.7614V46.8768Z" fill="#291B2A"/>
<path d="M31.985 44.3485L30.1248 45.3804L30.6415 45.69L32.5017 44.6065L31.985 44.3485Z" fill="#291B2A"/>
<path d="M26.1977 47.6508L26.7144 47.9604L28.5747 46.8768L28.0579 46.5673L26.1977 47.6508Z" fill="#291B2A"/>
<path d="M30.6415 43.5747L30.1248 43.2651L28.0579 44.4518L28.5746 44.7614L30.6415 43.5747Z" fill="#291B2A"/>
<path d="M32.5017 46.9801V44.6067L30.6415 45.6903V43.5748L28.5746 44.7615V46.877L26.7144 47.9605V50.3339L28.5746 49.2504V51.4174L30.6415 50.1791V48.0637L32.5017 46.9801Z" fill="#362437"/>
<g opacity="0.7">
<path opacity="0.7" d="M29.608 46.3093C30.1764 45.9997 30.5898 46.2577 30.5898 46.8768C30.5898 47.496 30.1764 48.2699 29.608 48.5795C29.0396 48.8891 28.6263 48.6311 28.6263 48.0119C28.6263 47.3928 29.0913 46.6189 29.608 46.3093Z" fill="#291B2A"/>
</g>
<path d="M73.8912 25.8772C73.5295 25.8772 73.1678 25.774 72.8578 25.6192C72.4444 25.3612 72.0827 24.9484 71.9277 24.4325C71.7727 24.0197 72.0827 23.4522 72.4444 23.2458L74.2013 22.2139C74.3046 22.1623 74.4596 22.1107 74.563 22.1107C74.9247 22.1107 75.183 22.3687 75.183 22.7814V24.7937C75.183 25.1548 74.9764 25.5676 74.6663 25.7224C74.6147 25.774 74.5113 25.774 74.408 25.8256C74.2529 25.8772 74.0463 25.8772 73.8912 25.8772ZM76.0615 24.8453C75.6998 24.8453 75.4414 24.5873 75.4414 24.1745V22.1623C75.4414 21.8011 75.6481 21.3883 76.0098 21.2335L77.7667 20.2016C77.87 20.15 78.025 20.0984 78.1284 20.0984C78.3351 20.0984 78.4901 20.2016 78.5934 20.3048C78.7484 20.4596 78.7484 20.7176 78.6968 20.9756C78.5418 21.6463 78.2834 22.3171 77.9217 22.9362C77.56 23.5554 77.0949 24.1229 76.6299 24.5873C76.5782 24.6389 76.5265 24.6905 76.4232 24.7421C76.2682 24.7937 76.1648 24.8453 76.0615 24.8453ZM72.4961 22.833C72.2894 22.833 72.1344 22.7298 72.031 22.6266C71.876 22.4718 71.876 22.2139 71.9277 21.9559C72.0827 21.2851 72.3411 20.6144 72.7028 19.9952C73.0645 19.3761 73.5295 18.8085 73.9946 18.3442C74.0463 18.2926 74.0979 18.241 74.1496 18.1894C74.2529 18.1378 74.408 18.0862 74.5113 18.0862C74.873 18.0862 75.1314 18.3442 75.1314 18.7569V20.7692C75.1314 21.1304 74.9247 21.5431 74.563 21.6979L72.8061 22.7298C72.7544 22.7814 72.5994 22.833 72.4961 22.833ZM76.0098 20.7692C75.6481 20.7692 75.3897 20.5112 75.3897 20.0984V18.0862C75.3897 17.725 75.5964 17.3123 75.9065 17.1575C75.9581 17.1059 76.0615 17.1059 76.1132 17.0543C76.2682 17.0027 76.4749 17.0027 76.6299 17.0027C76.9916 17.0027 77.3533 17.1059 77.6633 17.2607C78.0767 17.5186 78.4384 17.9314 78.5934 18.4474C78.7484 18.8601 78.4384 19.4277 78.0767 19.6341L76.3198 20.666C76.2682 20.7692 76.1648 20.7692 76.0098 20.7692Z" fill="#8B3DCE"/>
<path d="M72.3927 23.4007C72.1861 23.5039 72.031 23.8651 72.0827 24.0714C72.2377 24.4842 72.4961 24.8454 72.8578 25.0518L73.2712 25.3097C72.9095 25.1034 72.6511 24.7422 72.4961 24.3294C72.4444 24.123 72.5994 23.7619 72.8061 23.6587L74.563 22.6268L74.1496 22.3688L72.3927 23.4007Z" fill="#291B2A"/>
<path d="M77.9733 20.3048C77.9217 20.2532 77.8183 20.2532 77.715 20.3048L75.9581 21.3367C75.7514 21.4399 75.6481 21.6979 75.6481 21.9043V23.9165C75.6481 24.0197 75.6997 24.0713 75.7514 24.1229L76.1648 24.3809C76.1131 24.3293 76.0615 24.2777 76.0615 24.1745V22.1623C76.0615 21.9559 76.2165 21.6979 76.3715 21.5947L78.1283 20.5628C78.2317 20.5112 78.2834 20.5112 78.3867 20.5628L77.9733 20.3048Z" fill="#291B2A"/>
<path d="M74.2014 22.3688L74.6147 22.6267C74.7181 22.5752 74.7697 22.5752 74.8731 22.6267L74.4597 22.3688C74.3564 22.3172 74.253 22.3172 74.2014 22.3688Z" fill="#291B2A"/>
<path d="M72.5995 22.4204C72.4961 22.3688 72.4962 22.2656 72.4962 22.1109C72.6512 21.4917 72.9095 20.8726 73.2712 20.2534C73.6329 19.6343 74.0463 19.1183 74.5114 18.6539C74.563 18.6023 74.563 18.6023 74.6147 18.6023C74.718 18.5507 74.7697 18.5507 74.8214 18.6023L74.408 18.3444C74.3563 18.2928 74.253 18.2928 74.2013 18.3444C74.1497 18.3444 74.1497 18.396 74.098 18.396C73.6329 18.8087 73.2196 19.3763 72.8579 19.9954C72.4961 20.6146 72.2378 21.2337 72.0828 21.8529C72.0311 22.0077 72.0828 22.1625 72.1861 22.1625L72.5995 22.4204Z" fill="#291B2A"/>
<path d="M76.1132 20.4081C76.0615 20.3565 76.0098 20.3049 76.0098 20.2017V18.1895C76.0098 17.9831 76.1648 17.7251 76.3198 17.6219C76.3715 17.6219 76.3715 17.5703 76.4232 17.5703C76.8882 17.4671 77.3016 17.5187 77.6633 17.7251L77.2499 17.4671C76.8882 17.2607 76.4749 17.2091 76.0098 17.3123C75.9581 17.3123 75.9581 17.3123 75.9065 17.3639C75.7514 17.4671 75.5964 17.7251 75.5964 17.9315V19.9437C75.5964 20.0469 75.6481 20.0985 75.6998 20.1501L76.1132 20.4081Z" fill="#291B2A"/>
<path d="M72.8578 22.4202L74.6147 21.3883C74.8214 21.2851 74.9247 21.0271 74.9247 20.8207V18.8085C74.9247 18.6021 74.7697 18.4989 74.6147 18.6021C74.563 18.6021 74.563 18.6537 74.5113 18.6537C74.0463 19.0665 73.6329 19.634 73.2712 20.2532C72.9095 20.8723 72.6511 21.4915 72.4961 22.1106C72.4444 22.3686 72.5994 22.5234 72.8578 22.4202Z" fill="#362437"/>
<path d="M74.6147 22.6265L72.8579 23.6585C72.6512 23.7617 72.4962 24.1228 72.5479 24.3292C72.7029 24.742 72.9612 25.1031 73.3229 25.3095C73.6846 25.5159 74.098 25.5675 74.5631 25.4643C74.6148 25.4643 74.6147 25.4643 74.6664 25.4127C74.8214 25.3095 74.9765 25.0515 74.9765 24.8452V22.8329C74.9248 22.6265 74.8214 22.5234 74.6147 22.6265Z" fill="#362437"/>
<path d="M76.3715 20.3563L78.1283 19.3244C78.335 19.2212 78.49 18.86 78.4384 18.6536C78.2834 18.2409 78.025 17.8797 77.6633 17.6733C77.3016 17.4669 76.8882 17.4153 76.4231 17.5185C76.3715 17.5185 76.3715 17.5185 76.3198 17.5701C76.1648 17.6733 76.0098 17.9313 76.0098 18.1377V20.1499C76.0098 20.3563 76.1648 20.4595 76.3715 20.3563Z" fill="#362437"/>
<path d="M78.1285 20.6142L76.3716 21.6462C76.1649 21.7494 76.0616 22.0073 76.0616 22.2137V24.226C76.0616 24.4323 76.2166 24.5355 76.3716 24.4323C76.4233 24.4323 76.4233 24.3807 76.475 24.3291C76.94 23.9164 77.3534 23.3488 77.7151 22.7297C78.0768 22.1105 78.3351 21.4914 78.4902 20.8722C78.5418 20.6142 78.3868 20.4595 78.1285 20.6142Z" fill="#362437"/>
<path d="M47.7967 45.948V45.8964C47.7967 45.432 47.9517 45.1224 48.3134 44.9161C48.6235 44.7097 48.8302 44.7613 48.8302 45.1224V45.174L48.5201 45.3288C48.5201 45.1224 48.4685 45.0709 48.3134 45.1224C48.1068 45.2256 48.0551 45.432 48.0551 45.69V45.7416C48.0551 45.9996 48.1068 46.1544 48.3134 46.0512C48.4168 45.9996 48.4685 45.948 48.5201 45.8964V45.69L48.3134 45.7932V45.4836L48.7785 45.2256V45.8448C48.6751 45.9996 48.5201 46.1544 48.2618 46.3092C48.0034 46.5155 47.7967 46.4123 47.7967 45.948ZM51.5171 43.0586L51.8788 44.2453L51.5688 44.4001L51.5171 44.1421L51.1554 44.3485L51.1037 44.7097L50.7937 44.9161L51.1554 43.3166L51.5171 43.0586ZM51.2071 44.0905L51.4138 43.9357L51.3104 43.4714L51.2071 44.0905ZM54.6691 42.6458L54.3591 42.8006L54.1007 42.0267V42.2847V42.9038L53.7907 43.0586V41.6655L54.2041 41.4075L54.4624 42.1815L54.7208 41.1496L55.1342 40.8916V42.2847L54.8241 42.4395V41.8203V41.5107L54.6691 42.6458ZM58.0278 39.2921V39.5501L57.4594 39.8597V40.1692L57.9245 39.9113V40.1692L57.4594 40.4272V40.7884L58.0278 40.4788V40.7368L57.1494 41.2528V39.8081L58.0278 39.2921Z" fill="url(#paint3_linear_242_8529)"/>
<path opacity="0.44" d="M29.6082 59.6724C45.9603 59.6724 59.2163 46.436 59.2163 30.108C59.2163 13.78 45.9603 0.543579 29.6082 0.543579C13.256 0.543579 0 13.78 0 30.108C0 46.436 13.256 59.6724 29.6082 59.6724Z" fill="url(#paint4_radial_242_8529)"/>
<defs>
<linearGradient id="paint0_linear_242_8529" x1="70.8746" y1="4.64999" x2="78.8841" y2="4.64999" gradientUnits="userSpaceOnUse">
<stop stop-color="#F5ABFF"/>
<stop offset="1" stop-color="#FFC5FF"/>
</linearGradient>
<linearGradient id="paint1_linear_242_8529" x1="30.5434" y1="13.3756" x2="72.2333" y2="13.3756" gradientUnits="userSpaceOnUse">
<stop stop-color="#F5ABFF"/>
<stop offset="1" stop-color="#FFC5FF"/>
</linearGradient>
<linearGradient id="paint2_linear_242_8529" x1="23.94" y1="31.5838" x2="30.9205" y2="31.5838" gradientUnits="userSpaceOnUse">
<stop stop-color="#F5ABFF"/>
<stop offset="1" stop-color="#FFC5FF"/>
</linearGradient>
<linearGradient id="paint3_linear_242_8529" x1="57.9847" y1="39.7673" x2="48.4589" y2="45.7816" gradientUnits="userSpaceOnUse">
<stop stop-color="#DBDBDB"/>
<stop offset="0.3849" stop-color="#E4E4E4"/>
<stop offset="1" stop-color="#EDEDED"/>
</linearGradient>
<radialGradient id="paint4_radial_242_8529" cx="0" cy="0" r="1" gradientUnits="userSpaceOnUse" gradientTransform="translate(29.6168 30.1028) scale(29.6297 29.586)">
<stop stop-color="#FF3DD5" stop-opacity="0.8"/>
<stop offset="0.0984119" stop-color="#FF2AE2" stop-opacity="0.7213"/>
<stop offset="0.2327" stop-color="#FF17EF" stop-opacity="0.6138"/>
<stop offset="0.391" stop-color="#FF0AF8" stop-opacity="0.4872"/>
<stop offset="0.5943" stop-color="#FF02FD" stop-opacity="0.3246"/>
<stop offset="1" stop-color="#FF00FF" stop-opacity="0"/>
</radialGradient>
</defs>
</svg>
