<svg width="262" height="80" viewBox="0 0 262 80" fill="none" xmlns="http://www.w3.org/2000/svg">
<path d="M71.2758 34.3103H67.862C62.6689 34.3103 58.9965 33.5448 56.8448 32.0138C54.7137 30.4828 53.6482 27.8241 53.6482 24.0379V22.2069C53.6482 18.4207 54.7137 15.7724 56.8448 14.2621C58.9965 12.731 62.6689 11.9655 67.862 11.9655H71.2758C75.5793 11.9655 78.7965 12.4828 80.9275 13.5172C83.0793 14.5517 84.4965 16.2483 85.1793 18.6069H78.4448C77.9068 17.8414 77.0689 17.3241 75.931 17.0552C74.8137 16.7862 72.8999 16.6517 70.1896 16.6517H68.8241C66.2586 16.6517 64.3344 16.8483 63.0517 17.2414C61.7896 17.6138 60.9413 18.2034 60.5068 19.0103C60.0724 19.7966 59.8551 20.9966 59.8551 22.6103V23.6655C59.8551 25.2586 60.0724 26.4586 60.5068 27.2655C60.9413 28.0517 61.7999 28.6414 63.0827 29.0345C64.3655 29.4069 66.2793 29.5931 68.8241 29.5931H70.1896C73.3965 29.5931 75.662 29.3241 76.9861 28.7862C78.3103 28.2276 79.0344 27.2241 79.1586 25.7759H68.4206V21.2448H85.3344V24.7207C85.3344 28.1759 84.2172 30.6379 81.9827 32.1069C79.7689 33.5759 76.1999 34.3103 71.2758 34.3103ZM106.19 34.3103H102.776C97.5827 34.3103 93.9103 33.5448 91.7586 32.0138C89.6275 30.4621 88.562 27.7621 88.562 23.9138V22.3621C88.562 18.5138 89.6275 15.8241 91.7586 14.2931C93.9103 12.7414 97.5827 11.9655 102.776 11.9655H106.19C111.383 11.9655 115.055 12.7414 117.207 14.2931C119.359 15.8241 120.434 18.5138 120.434 22.3621V23.9138C120.434 27.7621 119.359 30.4621 117.207 32.0138C115.055 33.5448 111.383 34.3103 106.19 34.3103ZM103.769 29.6241H105.228C107.772 29.6241 109.686 29.4276 110.969 29.0345C112.272 28.6207 113.141 28 113.576 27.1724C114.031 26.3448 114.259 25.1241 114.259 23.5103V22.7966C114.259 21.1621 114.031 19.931 113.576 19.1034C113.141 18.2759 112.272 17.6655 110.969 17.2724C109.686 16.8586 107.772 16.6517 105.228 16.6517H103.769C101.203 16.6517 99.2793 16.8586 97.9965 17.2724C96.7137 17.6655 95.8551 18.2759 95.4206 19.1034C94.9861 19.931 94.7689 21.1621 94.7689 22.7966V23.5103C94.7689 25.1448 94.9861 26.3759 95.4206 27.2034C95.8551 28.0103 96.7137 28.6207 97.9965 29.0345C99.2793 29.4276 101.203 29.6241 103.769 29.6241ZM142.942 12.2759L155.914 34H149.056L146.201 29.2207H130.28L127.425 34H120.628L133.601 12.2759H142.942ZM138.38 16.031H138.132L132.98 24.6276H143.47L138.38 16.031ZM182.453 28.9724V34H158.681V12.2759H164.763V28.9724H182.453ZM60.5068 67.4207V74H54.4241V52.2759H73.293C76.8103 52.2759 79.3344 52.8345 80.8655 53.9517C82.4172 55.0483 83.193 56.9828 83.193 59.7552V60.2207C83.193 62.7862 82.4275 64.6276 80.8965 65.7448C79.3861 66.8621 76.8517 67.4207 73.293 67.4207H60.5068ZM72.2379 56.869H60.5068V62.8276H72.2689C74.2344 62.8276 75.5275 62.631 76.1482 62.2379C76.7896 61.8241 77.1103 61.0793 77.1103 60.0034V59.6931C77.1103 58.5966 76.7896 57.8517 76.1482 57.4586C75.5068 57.0655 74.2034 56.869 72.2379 56.869ZM102.512 52.2759L115.485 74H108.626L105.771 69.2207H89.8502L86.995 74H80.1985L93.1709 52.2759H102.512ZM97.9502 56.031H97.7019L92.5502 64.6276H103.04L97.9502 56.031ZM131.597 74.3103H129.952C128.69 74.3103 127.552 74.2793 126.538 74.2172C125.545 74.1552 124.521 74.0414 123.466 73.8759C122.431 73.7103 121.51 73.4724 120.704 73.1621C119.917 72.8517 119.183 72.4793 118.5 72.0448C117.838 71.5897 117.279 71.0207 116.824 70.3379C116.39 69.6552 116.079 68.8793 115.893 68.0103H122.379C122.835 68.7966 123.704 69.3241 124.986 69.5931C126.29 69.8414 128.39 69.9655 131.286 69.9655C134.266 69.9655 136.366 69.7897 137.586 69.4379C138.828 69.0862 139.459 68.4241 139.479 67.4517V67.2655C139.479 66.6448 139.252 66.1897 138.797 65.9C138.341 65.5897 137.483 65.4241 136.221 65.4034L125.545 65.031C122.317 64.9483 120.052 64.4517 118.748 63.5414C117.445 62.631 116.793 61.1828 116.793 59.1966V58.9483C116.793 56.3621 117.838 54.5517 119.928 53.5172C122.038 52.4828 125.421 51.9655 130.076 51.9655H131.317C133.179 51.9655 134.793 52.0483 136.159 52.2138C137.524 52.3793 138.859 52.6793 140.162 53.1138C141.486 53.5483 142.562 54.2207 143.39 55.131C144.217 56.0207 144.797 57.1379 145.128 58.4828H138.641C138.29 57.6345 137.462 57.0655 136.159 56.7759C134.876 56.4655 132.962 56.3103 130.417 56.3103C127.5 56.3103 125.535 56.4862 124.521 56.8379C123.507 57.169 123 57.7483 123 58.5759V58.6379C123 59.2586 123.228 59.7241 123.683 60.0345C124.138 60.3241 124.986 60.4897 126.228 60.531L136.904 60.9034C140.152 61.0276 142.417 61.5241 143.7 62.3931C144.983 63.2621 145.624 64.6793 145.624 66.6448V66.8931C145.624 69.7069 144.507 71.6517 142.273 72.7276C140.059 73.7828 136.5 74.3103 131.597 74.3103ZM163.965 74.3103H162.32C161.058 74.3103 159.92 74.2793 158.906 74.2172C157.913 74.1552 156.889 74.0414 155.834 73.8759C154.799 73.7103 153.878 73.4724 153.072 73.1621C152.285 72.8517 151.551 72.4793 150.868 72.0448C150.206 71.5897 149.647 71.0207 149.192 70.3379C148.758 69.6552 148.447 68.8793 148.261 68.0103H154.747C155.203 68.7966 156.072 69.3241 157.354 69.5931C158.658 69.8414 160.758 69.9655 163.654 69.9655C166.634 69.9655 168.734 69.7897 169.954 69.4379C171.196 69.0862 171.827 68.4241 171.847 67.4517V67.2655C171.847 66.6448 171.62 66.1897 171.165 65.9C170.709 65.5897 169.851 65.4241 168.589 65.4034L157.913 65.031C154.685 64.9483 152.42 64.4517 151.116 63.5414C149.813 62.631 149.161 61.1828 149.161 59.1966V58.9483C149.161 56.3621 150.206 54.5517 152.296 53.5172C154.406 52.4828 157.789 51.9655 162.444 51.9655H163.685C165.547 51.9655 167.161 52.0483 168.527 52.2138C169.892 52.3793 171.227 52.6793 172.53 53.1138C173.854 53.5483 174.93 54.2207 175.758 55.131C176.585 56.0207 177.165 57.1379 177.496 58.4828H171.009C170.658 57.6345 169.83 57.0655 168.527 56.7759C167.244 56.4655 165.33 56.3103 162.785 56.3103C159.868 56.3103 157.903 56.4862 156.889 56.8379C155.875 57.169 155.368 57.7483 155.368 58.5759V58.6379C155.368 59.2586 155.596 59.7241 156.051 60.0345C156.506 60.3241 157.354 60.4897 158.596 60.531L169.272 60.9034C172.52 61.0276 174.785 61.5241 176.068 62.3931C177.351 63.2621 177.992 64.6793 177.992 66.6448V66.8931C177.992 69.7069 176.875 71.6517 174.641 72.7276C172.427 73.7828 168.868 74.3103 163.965 74.3103ZM187.736 52.2759V74H181.653V52.2759H187.736ZM209.355 74.3103H205.941C200.748 74.3103 197.076 73.5448 194.924 72.0138C192.793 70.4621 191.727 67.7621 191.727 63.9138V62.3621C191.727 58.5138 192.793 55.8241 194.924 54.2931C197.076 52.7414 200.748 51.9655 205.941 51.9655H209.355C214.548 51.9655 218.221 52.7414 220.372 54.2931C222.524 55.8241 223.6 58.5138 223.6 62.3621V63.9138C223.6 67.7621 222.524 70.4621 220.372 72.0138C218.221 73.5448 214.548 74.3103 209.355 74.3103ZM206.934 69.6241H208.393C210.938 69.6241 212.852 69.4276 214.134 69.0345C215.438 68.6207 216.307 68 216.741 67.1724C217.196 66.3448 217.424 65.1241 217.424 63.5103V62.7966C217.424 61.1621 217.196 59.931 216.741 59.1034C216.307 58.2759 215.438 57.6655 214.134 57.2724C212.852 56.8586 210.938 56.6517 208.393 56.6517H206.934C204.369 56.6517 202.445 56.8586 201.162 57.2724C199.879 57.6655 199.021 58.2759 198.586 59.1034C198.152 59.931 197.934 61.1621 197.934 62.7966V63.5103C197.934 65.1448 198.152 66.3759 198.586 67.2034C199.021 68.0103 199.879 68.6207 201.162 69.0345C202.445 69.4276 204.369 69.6241 206.934 69.6241ZM258.758 52.2759V74H249.664L233.775 57.6759H233.558V74H227.599V52.2759H236.692L252.551 68.631H252.799V52.2759H258.758Z" fill="white"/>
<path d="M34.3931 11.7241V74.4827H17.5379V24.7241H16.9103L0.310349 37.8138V21.9448L12.5172 11.7241H34.3931Z" fill="url(#paint0_linear_242_10092)"/>
<defs>
<linearGradient id="paint0_linear_242_10092" x1="19.4084" y1="11.7241" x2="19.4084" y2="74.4828" gradientUnits="userSpaceOnUse">
<stop stop-color="#FE8600"/>
<stop offset="1" stop-color="#F83E00"/>
</linearGradient>
</defs>
</svg>
