<svg width="89" height="56" viewBox="0 0 89 56" fill="none" xmlns="http://www.w3.org/2000/svg">
<path opacity="0.43" d="M44.3469 49.2969C44.3469 49.2969 37.8865 50.118 30.0752 49.4729C22.3227 48.8278 12.2797 41.0867 10.8701 41.2626C9.46055 41.4386 0.181018 34.5185 0.063555 33.9907C0.00482373 33.4629 -0.465026 30.1202 2.41281 27.3052C5.34937 24.4903 21.2068 15.9868 21.2068 15.9868C21.2068 15.9868 61.7314 38.6236 62.0838 38.7996C62.4361 38.9755 63.0234 39.9138 59.4408 40.383C55.8582 40.8521 50.1026 45.0745 49.7502 45.7196C49.3978 46.4233 44.3469 49.2969 44.3469 49.2969Z" fill="#101014"/>
<path d="M66.7235 31.2344C66.7235 31.2344 66.9585 34.8118 66.7235 36.1606C66.4299 37.744 60.1456 40.6762 54.7423 39.6206C48.047 38.3891 39.0023 31.5863 37.6515 30.4134C36.3007 29.2405 34.3038 27.188 32.8356 26.5429C32.307 26.3083 30.8974 25.7218 29.3704 25.7218C27.5497 24.8422 25.6116 24.4903 24.8481 24.0212C24.0846 23.552 23.2036 22.9656 22.6163 22.555C22.1465 22.2032 21.8528 21.6754 21.7941 21.0303C21.7941 20.7371 21.7941 20.2679 21.7941 19.7401C21.7941 17.6875 21.7353 15.635 22.0877 14.8726C22.4401 14.1102 24.6719 12.0577 26.7275 13.5238C28.4307 14.7553 57.6202 26.8947 64.9028 29.1819C66.2537 29.5337 66.7235 31.2344 66.7235 31.2344Z" fill="#8B3DCE"/>
<path d="M21.8527 18.098C21.8527 18.1567 21.8527 18.274 21.8527 18.3912C21.8527 18.6845 21.8527 21.4408 21.8527 21.7926C21.8527 22.3791 23.4972 23.6693 24.5544 24.1971C25.3179 24.6076 31.3085 26.4255 33.4815 27.9503C34.8323 28.8886 35.8308 29.8269 38.0626 31.2344C39.5896 32.2314 47.9882 38.4477 54.6835 39.6792C60.0868 40.6762 66.2536 38.7995 66.6647 36.2192C66.7822 35.4568 66.7822 34.2253 66.7234 32.9351C66.7234 32.6419 66.7234 32.4073 66.7234 32.1727C66.7234 32.1141 66.7234 32.0554 66.7234 31.9381C66.7234 32.5832 66.371 33.4043 66.1948 33.7561C64.6678 36.2778 60.1455 37.5094 54.7422 36.5124C48.0469 35.2809 39.3546 29.2405 38.0038 28.0676C36.653 26.8947 35.5371 25.6045 34.1276 24.7835C33.5403 24.4316 31.5434 23.1415 29.5465 22.6137C27.5497 22.0859 25.5528 21.3235 24.848 20.8543C24.0845 20.3852 23.2036 19.7987 22.6162 19.3882C22.2051 19.0363 21.9702 18.6258 21.8527 18.098C21.8527 18.1567 21.8527 18.1567 21.8527 18.098Z" fill="#101014"/>
<path d="M21.8527 17.101C21.8527 18.0393 21.8527 19.6227 21.8527 19.8573C21.8527 20.4437 23.4972 21.7339 24.5544 22.2617C25.3179 22.6722 31.3085 24.4902 33.4815 26.015C34.8323 26.9533 35.8308 27.8916 38.0626 29.2991C39.5896 30.296 47.9882 36.5123 54.6835 37.7439C60.0868 38.7408 66.2536 36.8642 66.6647 34.2838C66.7234 33.932 66.7234 33.4042 66.7822 32.8764C66.7822 33.756 66.7822 34.5184 66.6647 35.0462C66.2536 37.6852 60.0868 39.5618 54.6835 38.5062C47.9882 37.2747 39.5309 31.0584 38.0626 30.0614C35.8895 28.654 34.8323 27.657 33.4815 26.7773C31.3085 25.2526 25.3179 23.4346 24.5544 23.0241C23.4972 22.4963 21.8527 21.2061 21.8527 20.6197C21.8527 20.3264 21.8527 17.5701 21.8527 17.2183C21.8527 17.101 21.8527 17.0423 21.8527 16.925C21.8527 16.9837 21.8527 17.0423 21.8527 17.101C21.8527 17.0423 21.8527 17.0423 21.8527 17.101Z" fill="#CBCCCF"/>
<path d="M22.6164 17.6875C23.791 19.3882 26.3164 20.3265 28.4308 21.1476C30.5451 21.9686 34.3626 23.0828 38.3564 27.0707C38.65 27.3639 38.9437 27.5985 39.296 27.8917C40.5881 29.0059 42.3501 30.2375 44.2295 31.3517C48.1057 33.7561 52.5693 35.6914 54.6836 35.9846C57.3853 36.3952 60.9679 36.8643 64.4918 34.6358C64.7854 34.4599 65.0791 34.2253 65.2553 33.9907C66.0188 33.1111 66.195 31.9382 66.1362 30.8826C66.0775 30.4134 65.6076 29.1232 65.4902 28.6541C65.0791 27.012 61.1441 25.0181 58.5012 23.1415C55.8583 21.2649 51.2185 15.3418 48.3994 12.996C47.5772 12.2922 44.5819 7.83525 42.9961 7.13151C41.4104 6.48642 37.8865 5.1376 36.7706 4.19929C34.7737 2.49859 31.8372 0.094167 27.9022 0.0355225C27.7847 0.0355225 27.726 0.0355225 27.6085 0.0355225C27.6085 0.0355225 22.7338 0.0355197 22.6164 6.66236C22.6164 7.19016 22.5576 7.65931 22.4989 8.18711C22.4989 8.48034 22.4402 8.77356 22.4402 9.06678C22.0878 14.1102 22.2052 17.1011 22.6164 17.6875Z" fill="#DAADF7"/>
<path d="M34.3038 13.9929C34.3038 13.9929 33.3641 15.4004 31.9546 13.8756C30.6038 12.2922 28.6656 10.8261 27.1974 10.0637C25.7291 9.30134 23.4973 8.7149 22.91 5.78267C22.3814 2.85044 25.318 -0.37501 28.5482 0.0355024C31.5435 0.38737 32.8943 1.20839 35.5372 3.3196C38.1801 5.4308 40.5881 6.07589 40.5881 6.07589C40.5881 6.07589 40.0595 6.89691 39.6484 6.89691C39.296 6.89691 37.4753 6.54505 35.7134 5.31351C33.9515 4.08198 31.8371 2.20535 29.9577 1.6189C28.0783 0.973814 26.3164 1.0911 25.318 2.61586C24.3195 4.08197 24.0846 5.9586 24.4957 6.60369C25.0243 7.42472 25.4942 7.89387 27.0799 8.42167C28.7244 8.94947 31.426 11.5298 31.426 11.5298L32.5419 12.8787L33.8927 13.5824C33.8927 13.4651 35.3023 13.2892 34.3038 13.9929Z" fill="#EEEFF0"/>
<path d="M27.9022 0.0355225C30.7213 0.504679 31.6022 0.680613 34.5388 2.96775C37.2992 5.1376 37.7103 5.60675 39.7659 6.25184C41.7627 6.89693 42.8199 7.71796 43.231 8.12847C43.6422 8.59762 52.3931 17.6875 53.6852 19.2709C55.036 20.8543 55.8583 22.555 57.3853 23.0242C58.8536 23.4933 64.2568 28.6541 64.7267 29.5924C65.1378 30.472 65.314 33.9907 65.314 33.9907C66.0775 33.111 66.2537 31.9382 66.195 30.8826C66.1362 30.4134 65.6664 29.1232 65.5489 28.6541C65.1378 27.012 61.2028 25.0181 58.5599 23.1415C55.917 21.2648 51.2772 15.3418 48.4581 12.996C47.6359 12.2922 44.6406 7.83525 43.0549 7.13151C41.4691 6.48642 37.9452 5.1376 36.8293 4.19929C34.7737 2.55724 31.7784 0.152812 27.9022 0.0355225Z" fill="#B9BABE"/>
<path d="M35.4197 13.6997C35.4197 13.6997 36.242 12.9373 37.769 13.9929C39.296 15.0485 42.5849 18.5672 44.3469 20.2092C46.1088 21.7926 47.2835 22.7896 47.812 23.9625C48.3406 25.1354 48.5755 27.5984 48.5755 28.3608C48.5755 28.3608 50.22 29.8856 52.9217 30.5307C55.4471 31.1171 56.3281 31.0585 56.8567 31.1171C57.3853 31.1757 57.6202 34.8117 57.3852 36.2192C56.4455 36.3365 53.8026 35.8087 51.2184 34.7531C47.7533 33.2869 44.758 31.3517 44.758 31.3517C44.758 31.3517 40.3531 28.7127 37.5928 25.8977C35.361 23.6106 33.3054 24.0798 29.3704 21.9099C25.4354 19.7401 23.2036 17.277 22.6751 16.7492C22.1465 16.2214 22.9687 8.36301 22.8512 7.83521C22.7338 7.30741 23.0274 5.43079 23.0274 5.43079C23.0274 5.43079 22.8512 7.83521 26.61 9.30133C30.2514 10.7088 31.3673 13.2892 32.5419 13.9929C33.7165 14.6966 35.4197 13.6997 35.4197 13.6997Z" fill="#CB89F0"/>
<path d="M31.8959 22.555C33.7753 23.4347 36.0659 24.7835 38.3564 27.0706C38.65 27.3639 38.9437 27.5984 39.2961 27.8917C40.4707 28.8886 41.939 29.9442 43.5834 30.9412C46.9898 26.8361 51.4534 23.8452 57.0329 21.8513C54.3313 19.3296 50.7486 14.9312 48.3994 12.996C48.047 12.7027 47.3423 11.8231 46.5787 10.7675C40.7644 13.6997 35.8309 17.6875 31.8959 22.555Z" fill="#8B3DCE"/>
<path d="M47.9295 25.0181C48.1644 25.7804 47.9882 26.4255 47.5183 26.5428C47.0485 26.6015 46.4024 26.0737 46.1675 25.3113C45.9326 24.5489 46.1088 23.9038 46.5786 23.7865C47.0485 23.7279 47.6945 24.3143 47.9295 25.0181Z" fill="#412B42"/>
<path d="M54.2137 19.916C54.6835 20.6198 54.8597 21.3235 54.566 21.4408C54.2724 21.6167 53.6264 21.1476 53.1565 20.4438C52.6867 19.7401 52.5105 19.0363 52.8041 18.9191C53.0978 18.7431 53.7438 19.2123 54.2137 19.916Z" fill="#412B42"/>
<path d="M50.2788 15.4004C50.7486 16.1041 50.9248 16.8079 50.6311 16.9251C50.3375 17.1011 49.6915 16.6319 49.2216 15.9282C48.7518 15.2245 48.5756 14.5207 48.8692 14.4034C49.2216 14.2275 49.8089 14.6967 50.2788 15.4004Z" fill="#412B42"/>
<path d="M46.1088 10.5916C46.5787 11.2953 46.7549 11.999 46.4613 12.1163C46.1676 12.2923 45.5215 11.8231 45.0517 11.1194C44.5818 10.4156 44.4056 9.71189 44.6993 9.5946C44.993 9.41866 45.639 9.88782 46.1088 10.5916Z" fill="#412B42"/>
<path d="M43.4071 19.5055C43.7595 20.2092 43.7008 20.913 43.1722 21.0303C42.7024 21.2062 41.9976 20.737 41.6452 20.0333C41.2928 19.3296 41.3516 18.6258 41.8801 18.5085C42.35 18.3326 43.0548 18.8018 43.4071 19.5055Z" fill="#412B42"/>
<path d="M38.1214 14.9899C38.4738 15.6936 38.415 16.3973 37.8864 16.5146C37.4166 16.6906 36.7118 16.2214 36.3594 15.5177C36.007 14.8139 36.0658 14.1102 36.5944 13.9929C37.123 13.8756 37.769 14.2861 38.1214 14.9899Z" fill="#412B42"/>
<path d="M58.09 23.1415C58.09 23.1415 64.6092 27.1293 65.0203 28.1263C65.3727 29.1232 64.7266 30.1788 61.6139 31.1171C58.5011 31.9968 56.9154 31.7036 54.0963 31.1758C50.3375 30.472 48.5755 28.3608 48.5755 28.3608C48.5755 28.3608 53.6851 23.552 58.09 23.1415Z" fill="#DAADF7"/>
<path d="M26.7275 8.01114C27.9608 8.42165 29.1355 9.30132 30.1926 10.2396C31.426 11.3539 32.4831 12.5268 33.0704 13.2892C34.0102 14.462 43.877 9.65319 40.1769 6.83825C40.1769 6.83825 38.0626 7.07283 36.0658 5.95858C34.1276 4.90298 32.7768 3.085 30.3688 2.26397C30.2513 2.20533 30.0752 2.14669 29.899 2.14669C27.9021 1.56024 26.4925 1.97075 25.6116 3.20229C25.0243 4.08195 23.2623 6.83825 26.7275 8.01114Z" fill="#6D2977"/>
<path d="M32.5419 12.8786C33.3641 13.5824 34.48 13.817 34.48 13.817C34.48 13.817 36.4769 12.4095 37.6515 13.4651C38.8262 14.5207 44.9342 20.1506 47.1072 22.3791C48.9866 24.373 48.9279 25.3113 48.8692 26.0737C48.8105 26.7774 48.8692 27.4225 48.8692 27.4225C48.8692 27.4225 50.6311 26.191 53.2153 24.6076C54.3899 23.9038 55.682 23.4933 56.4455 23.2587C57.0328 23.0828 57.3852 23.0828 57.3852 23.0828C57.3852 23.0828 54.0963 22.2031 52.9217 20.9716C51.8058 19.7401 46.52 13.9342 45.6977 13.0546C44.8755 12.1749 43.9945 10.2983 43.5247 9.24268C43.0548 8.18707 42.8199 6.2518 41.8802 5.60671C40.9405 4.96162 39.5309 6.48638 38.5325 6.89689C34.5975 8.42165 32.5419 9.65319 32.0721 11.1193C32.1308 11.0607 31.6022 12.0576 32.5419 12.8786Z" fill="#412B42"/>
<path d="M32.5419 12.8786C33.3641 13.5824 34.48 13.817 34.48 13.817C34.48 13.817 33.7165 11.7644 34.48 10.5915C35.2435 9.41861 36.6531 8.94945 38.4737 8.18707C40.2944 7.42469 41.8802 6.36909 41.9976 6.31045C42.1151 6.31045 42.7024 7.01418 43.0548 8.53894C43.4072 10.0051 44.9929 12.9373 46.6374 14.5793C48.2819 16.2214 52.7454 21.1475 53.1566 21.558C53.5677 21.9685 55.2122 22.9655 56.4455 23.2587C57.0328 23.0828 57.3852 23.0828 57.3852 23.0828C57.3852 23.0828 54.0963 22.2031 52.9217 20.9716C51.8058 19.7401 46.52 13.9342 45.6977 13.0546C44.8755 12.1749 43.9945 10.2983 43.5247 9.24268C43.0548 8.18707 42.8199 6.2518 41.8802 5.60671C40.9405 4.96162 39.5309 6.48638 38.5325 6.89689C34.5975 8.42165 32.5419 9.65319 32.0721 11.1193C32.1308 11.0607 31.6022 12.0576 32.5419 12.8786Z" fill="#8B3DCE"/>
<path d="M50.3375 16.5732L43.2897 20.6197L42.0564 18.919L47.9882 15.0485L50.3375 16.5732Z" fill="#E9EAEB"/>
<path d="M45.8151 12.1162L37.8277 16.2214L36.8292 14.2275L44.6405 10.1223C44.9341 9.9464 45.2865 10.0637 45.4627 10.3569L46.05 11.3539C46.2262 11.6471 46.1088 11.9403 45.8151 12.1162Z" fill="#E9EAEB"/>
<path d="M54.0375 20.7957L47.8708 25.8978C47.5771 26.1323 47.1073 26.0151 46.9311 25.7218L46.4612 24.9595C46.285 24.6662 46.3438 24.3144 46.6374 24.0798L53.2153 19.2123L54.0375 20.7957Z" fill="#E9EAEB"/>
<path d="M53.8026 20.913L43.5833 20.7957C43.2309 20.7957 42.8786 20.6197 42.6436 20.2679L42.0563 19.3296C41.8801 19.095 42.0563 18.8018 42.35 18.8018L52.6867 18.919C52.9803 18.919 53.274 19.095 53.3915 19.3296L54.0962 20.5024C54.155 20.6784 54.0375 20.913 53.8026 20.913Z" fill="white"/>
<path d="M50.1026 16.6905L38.1214 16.2214C37.8865 16.2214 37.6515 16.0455 37.5341 15.8695L36.8293 14.5793C36.7118 14.4034 36.888 14.1688 37.0642 14.1688L49.1042 14.638C49.3978 14.638 49.6915 14.8139 49.8677 15.1071L50.455 16.1041C50.5137 16.3973 50.3375 16.6905 50.1026 16.6905Z" fill="white"/>
<path d="M39.942 6.01723C39.942 6.01723 40.9992 5.60671 41.8801 9.94641C40.7642 10.6501 38.0038 12.0576 38.0038 12.0576C38.0038 12.0576 37.2403 9.41861 36.9467 8.83217C36.5356 8.01114 35.9482 7.9525 35.9482 7.9525L39.942 6.01723Z" fill="#F3F4F5"/>
<path d="M26.7275 8.01114C27.9608 8.42165 29.1355 9.30132 30.1926 10.2396C29.899 8.01114 30.3688 2.26397 30.3688 2.26397C30.2514 2.20533 30.0752 2.14669 29.899 2.14669C27.9021 1.56024 26.4926 1.97075 25.6116 3.20229C25.0243 4.08195 23.2623 6.83825 26.7275 8.01114Z" fill="#412B42"/>
<path d="M50.8074 40.7348C50.8074 40.7348 51.0423 44.3121 50.8074 45.661C50.5137 47.2444 44.2295 50.1766 38.8262 49.121C32.1308 47.8894 23.2037 42.5528 21.8528 41.3799C20.502 40.207 18.5052 38.1544 17.0369 37.5094C16.5083 37.2748 14.9813 35.2222 13.4543 35.2222C11.6336 34.3426 9.69546 33.9907 8.93196 33.5215C8.16845 33.0524 7.28749 32.4659 6.70017 32.0554C6.23032 31.7035 5.93667 31.1757 5.87794 30.5307C5.87794 30.2374 5.87794 29.7683 5.87794 29.2405C5.87794 27.1879 5.81921 25.1354 6.17159 24.373C6.52398 23.6106 8.75577 21.558 10.8114 23.0241C12.5146 24.2557 41.704 36.3951 48.9867 38.6822C50.3375 39.0928 50.8074 40.7348 50.8074 40.7348Z" fill="#8B3DCE"/>
<path d="M5.93665 27.0707C5.93665 27.1293 5.93665 27.2466 5.93665 27.3639C5.93665 27.6571 5.93665 30.9999 5.93665 31.3517C5.93665 31.9382 7.58111 33.2284 8.63827 33.7562C9.40178 34.1667 15.5098 37.4508 17.6829 38.9755C19.0337 39.9138 20.0321 40.8522 22.2639 42.2596C23.7909 43.2566 32.072 47.9481 38.7674 49.2383C44.1707 50.2353 50.3375 48.3587 50.7486 45.7783C50.8661 45.0159 50.8661 43.7844 50.8073 42.4942C50.8073 42.201 50.8073 41.9664 50.8073 41.7318C50.8073 41.6732 50.8073 41.6145 50.8073 41.4972C50.8073 42.1423 50.455 42.9634 50.2788 43.3152C48.7518 45.8369 44.2294 47.0685 38.8262 46.0715C32.1308 44.84 23.556 40.2657 22.2052 39.0928C20.8544 37.9199 19.9147 36.8057 18.6813 35.8087C17.9178 35.1636 16.0384 33.4629 13.0431 32.2314C11.105 31.469 9.63672 30.4721 8.87321 30.0029C8.1097 29.5337 7.22872 28.7127 6.64141 28.3022C6.28902 27.9503 6.05411 27.5398 5.93665 27.0707Z" fill="#101014"/>
<path d="M5.93665 26.015C5.93665 26.9534 5.93665 29.1232 5.93665 29.3578C5.93665 29.9442 7.58111 31.2344 8.63827 31.7622C9.40178 32.1727 15.5098 35.4568 17.6829 36.9816C19.0337 37.9199 20.0321 38.8582 22.2639 40.2657C23.7909 41.2626 32.072 45.9542 38.7674 47.2444C44.1707 48.2413 50.3375 46.3647 50.7486 43.7843C50.8073 43.4325 50.8073 42.9047 50.8661 42.3769C50.8661 43.2565 50.866 44.0189 50.7486 44.5467C50.3375 47.1857 44.1707 49.0624 38.7674 48.0068C32.072 46.7752 23.7322 42.025 22.2639 41.028C20.0909 39.6206 19.0337 38.6236 17.6829 37.744C15.5098 36.2192 9.40178 32.9351 8.63827 32.5246C7.58111 31.9968 5.93665 30.7066 5.93665 30.1202C5.93665 29.8269 5.93665 26.4842 5.93665 26.1323C5.93665 26.015 5.93665 25.9564 5.93665 25.8391C5.93665 25.9564 5.93665 25.9564 5.93665 26.015C5.93665 25.9564 5.93665 26.015 5.93665 26.015Z" fill="#CBCCCF"/>
<path d="M49.339 43.491C49.1041 43.7256 48.8692 43.9602 48.5755 44.1948C45.0517 46.4233 41.469 46.0128 38.7674 45.5436C36.6531 45.1917 32.1308 44.0775 28.2545 41.7317C27.7847 41.4385 27.3736 41.2039 26.9624 40.9693C25.6703 40.2656 24.4957 39.7378 23.4973 38.8581C23.1449 38.5649 22.8512 38.3303 22.6163 38.0371C20.0909 35.574 17.6242 33.5801 15.5686 32.2899C14.3939 31.5276 13.3368 30.9411 12.5733 30.6479C10.4589 29.8269 7.9335 28.3021 6.75888 26.6014C6.34776 25.9563 6.23029 23.6105 6.58267 18.5671C6.58267 18.2739 6.64141 17.9807 6.64141 17.6874C6.70014 17.2183 6.75888 16.6905 6.75888 16.2213C6.87634 9.59448 11.751 9.59448 11.751 9.59448H12.0447C15.921 9.71177 18.9163 12.1162 20.9131 13.8169C22.029 14.7552 25.5529 16.0454 27.1386 16.7491C28.0783 17.1596 29.4879 18.8603 30.7212 20.3851C31.5435 21.4407 32.2482 22.3204 32.6006 22.6136C34.9499 24.5489 38.5912 29.0058 41.2341 31.5276C41.7627 31.9967 42.2326 32.4659 42.7024 32.7591C45.3453 34.6357 49.339 36.6296 49.7502 38.2717C49.8676 38.6822 50.3375 39.9724 50.3962 40.5002C50.2788 41.4385 50.1025 42.6114 49.339 43.491Z" fill="#DAADF7"/>
<path d="M18.3877 23.4933C18.3877 23.4933 17.448 24.9007 16.0385 23.376C14.6876 21.7926 12.7495 20.3265 11.2812 19.5641C9.81294 18.8017 7.58116 18.2153 6.99384 15.283C6.46526 12.3508 9.40183 9.12536 12.6321 9.53587C15.6274 9.88774 16.9782 10.7088 19.6211 12.82C22.264 14.9312 24.672 15.5763 24.672 15.5763C24.672 15.5763 24.1434 16.3973 23.7323 16.3973C23.3799 16.3973 21.5592 16.0454 19.7973 14.8139C18.0353 13.5823 15.921 11.7057 14.0416 11.1193C12.1622 10.4742 10.4003 10.5915 9.40183 12.1162C8.4034 13.5823 8.16848 15.459 8.5796 16.1041C9.10818 16.9251 9.57803 17.3942 11.1638 17.922C12.8082 18.4498 15.5099 21.0302 15.5099 21.0302L16.6258 22.379L17.9766 23.0828C17.9766 22.9655 19.3862 22.7895 18.3877 23.4933Z" fill="#EEEFF0"/>
<path d="M11.986 9.53589C14.8051 10.005 15.686 10.181 18.6226 12.4681C21.383 14.638 21.7941 15.1071 23.8497 15.7522C25.8466 16.3973 26.9037 17.2183 27.3148 17.6288C27.726 18.098 36.4769 27.1879 37.769 28.7713C39.1199 30.3547 39.9421 32.0554 41.4691 32.5246C42.9374 32.9937 48.3407 38.1544 48.8105 39.0927C49.2216 39.9724 49.3978 43.4911 49.3978 43.4911C50.1613 42.6114 50.3375 41.4385 50.2788 40.3829C50.2201 39.9138 49.7502 38.6236 49.6327 38.1544C49.2216 36.5124 45.2866 34.5185 42.6437 32.6418C40.0008 30.7652 35.361 24.8421 32.5419 22.4963C31.7197 21.7926 28.7244 17.3356 27.1386 16.6319C25.5529 15.9868 22.029 14.638 20.9131 13.6997C18.8575 12.0576 15.8622 9.65318 11.986 9.53589Z" fill="#B9BABE"/>
<path d="M19.5035 23.2001C19.5035 23.2001 20.3258 22.4377 21.8528 23.4933C23.3798 24.5489 26.6687 28.0676 28.4307 29.7096C30.1926 31.293 31.3672 32.29 31.8958 33.4629C32.4244 34.6358 32.6593 37.0988 32.6593 37.8612C32.6593 37.8612 34.8911 38.9755 37.534 39.6206C40.0595 40.207 40.9405 40.1484 41.469 40.207C41.9976 40.2657 41.704 44.3121 41.469 45.7196C40.5293 45.8369 37.8864 45.3091 35.3022 44.2535C31.8371 42.7874 28.7831 41.6731 28.7831 41.6731C28.7831 41.6731 23.7909 38.7995 23.0274 37.8026C20.9718 35.3395 17.0955 32.4659 13.1605 30.2961C9.22555 28.1262 7.69854 27.6571 6.99376 25.6632C6.75884 24.9594 6.58265 25.3113 6.70011 20.7957C6.70011 20.2092 7.16995 14.8726 7.16995 14.8726C7.16995 14.8726 6.99376 17.277 10.7526 18.7431C14.3939 20.1506 15.5098 22.7309 16.6844 23.4347C17.8003 24.197 19.5035 23.2001 19.5035 23.2001Z" fill="#CB89F0"/>
<path d="M41.1167 31.4103C35.1261 33.4629 30.4863 36.6297 26.9037 40.9694C25.6116 40.2656 24.437 39.7378 23.4386 38.8581C23.0862 38.5649 22.7925 38.3304 22.5576 38.0371C20.0321 35.5741 17.5654 33.5801 15.5098 32.29C19.5623 27.2465 24.6132 23.2001 30.6038 20.2678C31.426 21.3234 32.1308 22.2031 32.4832 22.4963C34.8324 24.4902 38.4738 28.8886 41.1167 31.4103Z" fill="#8B3DCE"/>
<path d="M32.0133 34.5184C32.2482 35.2808 32.072 35.9259 31.6022 36.0432C31.1323 36.1018 30.4863 35.574 30.2514 34.8116C30.0164 34.0493 30.1926 33.4042 30.6625 33.2869C31.1323 33.2282 31.7784 33.8147 32.0133 34.5184Z" fill="#412B42"/>
<path d="M38.2976 29.4165C38.7674 30.1202 38.9436 30.824 38.65 30.9413C38.3563 31.1172 37.7103 30.648 37.2404 29.9443C36.7705 29.2406 36.5944 28.5368 36.888 28.4195C37.1817 28.2436 37.8277 28.7128 38.2976 29.4165Z" fill="#412B42"/>
<path d="M34.4214 24.9008C34.8912 25.6045 35.0674 26.3082 34.7737 26.4255C34.4801 26.6014 33.834 26.1323 33.3642 25.4286C32.8943 24.7248 32.7181 24.0211 33.0118 23.9038C33.3054 23.7279 33.8928 24.197 34.4214 24.9008Z" fill="#412B42"/>
<path d="M30.1927 20.0919C30.6626 20.7957 30.8388 21.4994 30.5451 21.6167C30.2515 21.7926 29.6054 21.3235 29.1356 20.6197C28.6658 19.916 28.4896 19.2123 28.7832 19.095C29.0769 18.919 29.7229 19.3882 30.1927 20.0919Z" fill="#412B42"/>
<path d="M27.491 29.0059C27.8434 29.7096 27.7847 30.4133 27.2561 30.5306C26.7862 30.7065 26.0815 30.2374 25.7291 29.5337C25.3767 28.8299 25.4354 28.1262 25.964 28.0089C26.4338 27.8916 27.1386 28.3021 27.491 29.0059Z" fill="#412B42"/>
<path d="M22.2052 24.4902C22.5576 25.194 22.4988 25.8977 21.9702 26.015C21.5004 26.1909 20.7956 25.7218 20.4432 25.018C20.0909 24.3143 20.1496 23.6106 20.6782 23.4933C21.2067 23.376 21.8528 23.7865 22.2052 24.4902Z" fill="#412B42"/>
<path d="M42.1739 32.6418C42.1739 32.6418 48.6931 36.6297 49.1042 37.6266C49.4566 38.6236 48.8105 39.6792 45.6978 40.6175C42.585 41.4972 41.5866 40.7934 38.7087 40.2656C34.95 39.5619 32.6007 37.8026 32.6007 37.8026C32.6007 37.8026 37.7691 33.0524 42.1739 32.6418Z" fill="#DAADF7"/>
<path d="M10.8113 17.5115C12.0447 17.922 13.2193 18.8017 14.2765 19.74C15.5098 20.8543 16.567 22.0271 17.1543 22.7895C18.094 23.9624 27.9609 19.1536 24.2608 16.3386C24.2608 16.3386 22.1465 16.5732 20.1496 15.459C18.2115 14.4033 16.8607 12.5854 14.4527 11.7643C14.3352 11.7057 14.159 11.6471 13.9828 11.6471C11.986 11.0606 10.5764 11.4711 9.69544 12.7027C9.10813 13.5823 7.34618 16.3386 10.8113 17.5115Z" fill="#6D2977"/>
<path d="M16.6258 22.379C17.448 23.0827 18.5639 23.3173 18.5639 23.3173C18.5639 23.3173 20.5608 21.9099 21.7354 22.9655C22.91 24.0211 29.0181 29.6509 31.1911 31.8794C33.0705 33.8734 33.0118 34.8117 32.9531 35.574C32.8943 36.2778 32.9531 36.9229 32.9531 36.9229C32.9531 36.9229 34.715 35.6913 37.2992 34.1079C38.4738 33.4042 39.7659 32.9937 40.5294 32.7591C41.1167 32.5832 41.4691 32.5832 41.4691 32.5832C41.4691 32.5832 38.1801 31.7035 37.0055 30.472C35.8896 29.2404 30.6038 23.4346 29.7816 22.5549C28.9593 21.6753 28.0784 19.7986 27.6085 18.743C27.1387 17.6874 26.9037 15.7522 25.964 15.1071C25.0243 14.462 23.6148 15.9867 22.6164 16.3973C18.6814 17.922 16.6258 19.1536 16.1559 20.6197C16.2147 20.561 15.6861 21.558 16.6258 22.379Z" fill="#412B42"/>
<path d="M16.6258 22.379C17.448 23.0827 18.5639 23.3173 18.5639 23.3173C18.5639 23.3173 17.8004 21.2648 18.5639 20.0919C19.3274 18.919 20.737 18.4498 22.5576 17.6874C24.3783 16.9251 25.964 15.8695 26.0815 15.8108C26.199 15.8108 26.7863 16.5145 27.1387 18.0393C27.491 19.5054 29.0768 22.4377 30.7213 24.0797C32.3657 25.7217 36.8293 30.6479 37.2404 31.0584C37.6516 31.4689 39.296 32.4659 40.5294 32.7591C41.1167 32.5832 41.4691 32.5832 41.4691 32.5832C41.4691 32.5832 38.1801 31.7035 37.0055 30.472C35.8896 29.2404 30.6038 23.4346 29.7816 22.5549C28.9593 21.6753 28.0784 19.7986 27.6085 18.743C27.1387 17.6874 26.9037 15.7522 25.964 15.1071C25.0243 14.462 23.6148 15.9867 22.6164 16.3973C18.6814 17.922 16.6258 19.1536 16.1559 20.6197C16.2147 20.561 15.6861 21.558 16.6258 22.379Z" fill="#8B3DCE"/>
<path d="M34.4213 26.1322L27.3736 30.1201L26.1402 28.4194L32.0721 24.5488L34.4213 26.1322Z" fill="#E9EAEB"/>
<path d="M29.899 21.6166L21.9115 25.7217L20.9131 23.7278L28.7243 19.6227C29.018 19.4468 29.3704 19.5641 29.5466 19.8573L30.1339 20.8542C30.3101 21.1475 30.1926 21.4993 29.899 21.6166Z" fill="#E9EAEB"/>
<path d="M38.1215 30.296L31.9547 35.3981C31.661 35.6327 31.1912 35.5154 31.015 35.2222L30.5452 34.4598C30.369 34.1666 30.4277 33.8147 30.7213 33.5802L37.2992 28.7126L38.1215 30.296Z" fill="#E9EAEB"/>
<path d="M37.8865 30.4133L27.6673 30.296C27.3149 30.296 26.9625 30.1201 26.7276 29.7682L26.1402 28.8299C25.9641 28.5953 26.1402 28.3021 26.4339 28.3021L36.7706 28.4194C37.0643 28.4194 37.3579 28.5953 37.4754 28.8299L38.1801 30.0028C38.2389 30.1787 38.1214 30.4133 37.8865 30.4133Z" fill="white"/>
<path d="M34.1864 26.191L22.2052 25.7219C21.9703 25.7219 21.7354 25.5459 21.6179 25.37L20.9132 24.0798C20.7957 23.9039 20.9719 23.6693 21.1481 23.6693L33.1293 24.1971C33.4229 24.1971 33.7166 24.373 33.8928 24.6663L34.4801 25.6632C34.5975 25.8978 34.4213 26.191 34.1864 26.191Z" fill="white"/>
<path d="M24.0259 15.5176C24.0259 15.5176 25.083 15.1071 25.964 19.4468C24.8481 20.1505 22.0877 21.558 22.0877 21.558C22.0877 21.558 21.3242 18.919 21.0305 18.3325C20.6194 17.5115 20.0321 17.4529 20.0321 17.4529L24.0259 15.5176Z" fill="#F3F4F5"/>
<path d="M10.8113 17.5115C12.0447 17.922 13.2193 18.8017 14.2765 19.74C13.9828 17.5115 14.4527 11.7643 14.4527 11.7643C14.3352 11.7057 14.159 11.6471 13.9828 11.6471C11.986 11.0606 10.5764 11.4711 9.69544 12.7027C9.10813 13.5823 7.34617 16.3386 10.8113 17.5115Z" fill="#412B42"/>
<path opacity="0.65" d="M61.5552 55.5718C76.3786 55.5718 88.3953 43.5728 88.3953 28.7713C88.3953 13.9697 76.3786 1.9707 61.5552 1.9707C46.7317 1.9707 34.715 13.9697 34.715 28.7713C34.715 43.5728 46.7317 55.5718 61.5552 55.5718Z" fill="url(#paint0_radial_242_8468)"/>
<defs>
<radialGradient id="paint0_radial_242_8468" cx="0" cy="0" r="1" gradientUnits="userSpaceOnUse" gradientTransform="translate(61.5841 28.7936) scale(26.8664 26.8268)">
<stop stop-color="#EDAEFF" stop-opacity="0.6"/>
<stop offset="0.144" stop-color="#F3AFFF" stop-opacity="0.5136"/>
<stop offset="0.4864" stop-color="#FCB1FF" stop-opacity="0.3082"/>
<stop offset="1" stop-color="#FFB2FF" stop-opacity="0"/>
</radialGradient>
</defs>
</svg>
