<?xml version="1.0" encoding="UTF-8"?>
<svg width="152px" height="90px" viewBox="0 0 152 90" version="1.1" xmlns="http://www.w3.org/2000/svg" xmlns:xlink="http://www.w3.org/1999/xlink">
    <title>Group</title>
    <g id="Page-1" stroke="none" stroke-width="1" fill="none" fill-rule="evenodd">
        <g id="42779" transform="translate(-40.000000, -232.000000)">
            <g id="Group" transform="translate(40.229000, 232.859000)">
                <path d="M151.5,88.709 L1,88.709 L1,88.043 C1.898,88.043 2.625,87.315 2.625,86.418 C2.625,85.52 1.898,84.793 1,84.793 L1,83.153 C1.898,83.153 2.625,82.425 2.625,81.528 C2.625,80.63 1.898,79.903 1,79.903 L1,78.263 C1.898,78.263 2.625,77.536 2.625,76.638 C2.625,75.741 1.898,75.013 1,75.013 L1,73.373 C1.898,73.373 2.625,72.646 2.625,71.748 C2.625,70.851 1.898,70.123 1,70.123 L1,68.483 C1.898,68.483 2.625,67.756 2.625,66.858 C2.625,65.961 1.898,65.234 1,65.234 L1,63.594 C1.898,63.594 2.625,62.866 2.625,61.969 C2.625,61.071 1.898,60.344 1,60.344 L1,58.704 C1.898,58.704 2.625,57.977 2.625,57.079 C2.625,56.181 1.898,55.454 1,55.454 L1,53.814 C1.296,53.814 1.57,53.729 1.809,53.591 C6.377,53.181 9.958,49.347 9.958,44.673 C9.958,39.726 5.948,35.715 1,35.715 L1,34.255 C1.898,34.255 2.625,33.527 2.625,32.63 C2.625,31.733 1.898,31.005 1,31.005 L1,29.365 C1.898,29.365 2.625,28.638 2.625,27.74 C2.625,26.843 1.898,26.115 1,26.115 L1,24.475 C1.898,24.475 2.625,23.748 2.625,22.85 C2.625,21.953 1.898,21.225 1,21.225 L1,19.586 C1.898,19.586 2.625,18.858 2.625,17.961 C2.625,17.063 1.898,16.336 1,16.336 L1,14.696 C1.898,14.696 2.625,13.968 2.625,13.071 C2.625,12.173 1.898,11.446 1,11.446 L1,9.806 C1.898,9.806 2.625,9.079 2.625,8.181 C2.625,7.284 1.898,6.556 1,6.556 L1,4.916 C1.898,4.916 2.625,4.189 2.625,3.291 C2.625,2.394 1.898,1.666 1,1.666 L1,1 L151.5,1 L151.5,1.666 C150.603,1.666 149.875,2.394 149.875,3.291 C149.875,4.189 150.603,4.916 151.5,4.916 L151.5,6.556 C150.603,6.556 149.875,7.284 149.875,8.181 C149.875,9.079 150.603,9.806 151.5,9.806 L151.5,11.446 C150.603,11.446 149.875,12.173 149.875,13.071 C149.875,13.968 150.603,14.696 151.5,14.696 L151.5,16.336 C150.603,16.336 149.875,17.063 149.875,17.961 C149.875,18.858 150.603,19.586 151.5,19.586 L151.5,21.225 C150.603,21.225 149.875,21.953 149.875,22.85 C149.875,23.748 150.603,24.475 151.5,24.475 L151.5,26.115 C150.603,26.115 149.875,26.843 149.875,27.74 C149.875,28.638 150.603,29.365 151.5,29.365 L151.5,31.005 C150.603,31.005 149.875,31.733 149.875,32.63 C149.875,33.527 150.603,34.255 151.5,34.255 L151.5,35.895 L151.473,35.898 C146.539,35.912 142.542,39.916 142.542,44.854 C142.542,49.793 146.539,53.798 151.475,53.812 L151.5,53.814 L151.5,55.454 C150.603,55.454 149.875,56.181 149.875,57.079 C149.875,57.977 150.603,58.704 151.5,58.704 L151.5,60.344 C150.603,60.344 149.875,61.071 149.875,61.969 C149.875,62.866 150.603,63.594 151.5,63.594 L151.5,65.234 C150.603,65.234 149.875,65.961 149.875,66.858 C149.875,67.756 150.603,68.483 151.5,68.483 L151.5,70.123 C150.603,70.123 149.875,70.851 149.875,71.748 C149.875,72.646 150.603,73.373 151.5,73.373 L151.5,75.013 C150.603,75.013 149.875,75.741 149.875,76.638 C149.875,77.536 150.603,78.263 151.5,78.263 L151.5,79.903 C150.603,79.903 149.875,80.63 149.875,81.528 C149.875,82.425 150.603,83.153 151.5,83.153 L151.5,84.793 C150.603,84.793 149.875,85.52 149.875,86.418 C149.875,87.315 150.603,88.043 151.5,88.043 L151.5,88.709" id="Fill-164" fill="#7A7C78"></path>
                <path d="M150.5,0.666 L150.5,-1.42108547e-14 L0,-1.42108547e-14 L0,0.666 C0.898,0.666 1.625,1.394 1.625,2.291 C1.625,3.189 0.898,3.916 0,3.916 L0,5.556 C0.898,5.556 1.625,6.284 1.625,7.181 C1.625,8.079 0.898,8.806 0,8.806 L0,10.446 C0.898,10.446 1.625,11.173 1.625,12.071 C1.625,12.968 0.898,13.696 0,13.696 L0,15.336 C0.898,15.336 1.625,16.063 1.625,16.961 C1.625,17.858 0.898,18.586 0,18.586 L0,20.225 C0.898,20.225 1.625,20.953 1.625,21.85 C1.625,22.748 0.898,23.476 0,23.476 L0,25.115 C0.898,25.115 1.625,25.843 1.625,26.74 C1.625,27.638 0.898,28.365 0,28.365 L0,30.005 C0.898,30.005 1.625,30.733 1.625,31.63 C1.625,32.528 0.898,33.255 0,33.255 L0,34.715 C4.948,34.715 8.959,38.726 8.959,43.673 C8.959,48.347 5.377,52.181 0.809,52.591 C0.57,52.729 0.296,52.814 0,52.814 L0,54.454 C0.898,54.454 1.625,55.182 1.625,56.079 C1.625,56.976 0.898,57.704 0,57.704 L0,59.344 C0.898,59.344 1.625,60.071 1.625,60.969 C1.625,61.866 0.898,62.594 0,62.594 L0,64.234 C0.898,64.234 1.625,64.961 1.625,65.859 C1.625,66.756 0.898,67.484 0,67.484 L0,69.123 C0.898,69.123 1.625,69.851 1.625,70.748 C1.625,71.646 0.898,72.373 0,72.373 L0,74.013 C0.898,74.013 1.625,74.741 1.625,75.638 C1.625,76.536 0.898,77.263 0,77.263 L0,78.903 C0.898,78.903 1.625,79.63 1.625,80.528 C1.625,81.425 0.898,82.153 0,82.153 L0,83.793 C0.898,83.793 1.625,84.52 1.625,85.418 C1.625,86.315 0.898,87.043 0,87.043 L0,87.709 L150.5,87.709 L150.5,87.043 C149.603,87.043 148.875,86.315 148.875,85.418 C148.875,84.52 149.603,83.793 150.5,83.793 L150.5,82.153 C149.603,82.153 148.875,81.425 148.875,80.528 C148.875,79.63 149.603,78.903 150.5,78.903 L150.5,77.263 C149.603,77.263 148.875,76.536 148.875,75.638 C148.875,74.741 149.603,74.013 150.5,74.013 L150.5,72.373 C149.603,72.373 148.875,71.646 148.875,70.748 C148.875,69.851 149.603,69.123 150.5,69.123 L150.5,67.484 C149.603,67.484 148.875,66.756 148.875,65.859 C148.875,64.961 149.603,64.234 150.5,64.234 L150.5,62.594 C149.603,62.594 148.875,61.866 148.875,60.969 C148.875,60.071 149.603,59.344 150.5,59.344 L150.5,57.704 C149.603,57.704 148.875,56.976 148.875,56.079 C148.875,55.182 149.603,54.454 150.5,54.454 L150.5,52.814 L150.475,52.812 C145.539,52.798 141.542,48.793 141.542,43.855 C141.542,38.916 145.539,34.912 150.473,34.898 L150.5,34.895 L150.5,33.255 C149.603,33.255 148.875,32.528 148.875,31.63 C148.875,30.733 149.603,30.005 150.5,30.005 L150.5,28.365 C149.603,28.365 148.875,27.638 148.875,26.74 C148.875,25.843 149.603,25.115 150.5,25.115 L150.5,23.476 C149.603,23.476 148.875,22.748 148.875,21.85 C148.875,20.953 149.603,20.225 150.5,20.225 L150.5,18.586 C149.603,18.586 148.875,17.858 148.875,16.961 C148.875,16.063 149.603,15.336 150.5,15.336 L150.5,13.696 C149.603,13.696 148.875,12.968 148.875,12.071 C148.875,11.173 149.603,10.446 150.5,10.446 L150.5,8.806 C149.603,8.806 148.875,8.079 148.875,7.181 C148.875,6.284 149.603,5.556 150.5,5.556 L150.5,3.916 C149.603,3.916 148.875,3.189 148.875,2.291 C148.875,1.394 149.603,0.666 150.5,0.666" id="Fill-165" fill="#F0BB33"></path>
                <path d="M22.25,11.526 C21.147,11.526 20.25,12.423 20.25,13.526 L20.25,75.526 C20.25,76.629 21.147,77.526 22.25,77.526 L128.25,77.526 C129.353,77.526 130.25,76.629 130.25,75.526 L130.25,13.526 C130.25,12.423 129.353,11.526 128.25,11.526 L22.25,11.526 Z M128.25,79.526 L22.25,79.526 C20.045,79.526 18.25,77.732 18.25,75.526 L18.25,13.526 C18.25,11.321 20.045,9.526 22.25,9.526 L128.25,9.526 C130.456,9.526 132.25,11.321 132.25,13.526 L132.25,75.526 C132.25,77.732 130.456,79.526 128.25,79.526 L128.25,79.526 Z" id="Fill-166" fill="#E05932"></path>
                <polygon id="Fill-167" fill="#E05932" points="96.792 78.526 98.792 78.526 98.792 10.526 96.792 10.526"></polygon>
                <path d="M111.719,62.297 C111.813,62.297 111.879,62.196 111.917,61.994 C111.956,61.791 111.991,61.524 112.023,61.19 C112.055,60.856 112.094,60.476 112.141,60.051 C112.188,59.626 112.264,59.193 112.37,58.75 C112.475,58.308 112.622,57.874 112.809,57.45 C112.997,57.025 113.246,56.645 113.556,56.311 C113.867,55.977 114.25,55.709 114.708,55.507 C115.165,55.305 115.715,55.204 116.36,55.204 C116.823,55.204 117.279,55.219 117.726,55.248 C118.175,55.278 118.6,55.356 119.001,55.485 C119.403,55.614 119.773,55.811 120.113,56.075 C120.453,56.338 120.746,56.704 120.992,57.172 C121.238,57.641 121.431,58.227 121.572,58.93 C121.712,59.633 121.783,60.493 121.783,61.506 C121.783,62.52 121.726,63.389 121.611,64.116 C121.498,64.842 121.346,65.455 121.159,65.954 C120.971,66.452 120.754,66.851 120.508,67.153 C120.262,67.454 120.006,67.686 119.74,67.847 C119.473,68.008 119.205,68.114 118.935,68.163 C118.666,68.213 118.414,68.239 118.179,68.239 L116.755,68.239 L116.755,62.297 L119.392,62.297 L119.392,61.145 L116.58,61.145 C116.492,61.145 116.417,61.246 116.355,61.449 C116.294,61.651 116.228,61.918 116.158,62.252 L115.92,63.395 C115.838,63.817 115.732,64.249 115.599,64.692 C115.468,65.134 115.307,65.568 115.117,65.993 C114.926,66.417 114.69,66.797 114.409,67.131 C114.127,67.465 113.798,67.733 113.419,67.935 C113.042,68.137 112.598,68.239 112.088,68.239 C111.456,68.239 110.892,68.199 110.396,68.12 C109.902,68.04 109.469,67.903 109.1,67.706 C108.731,67.51 108.419,67.248 108.164,66.92 C107.91,66.592 107.703,66.18 107.544,65.685 C107.386,65.19 107.272,64.601 107.202,63.918 C107.131,63.236 107.096,62.444 107.096,61.541 C107.096,60.592 107.148,59.787 107.25,59.128 C107.353,58.469 107.491,57.92 107.664,57.481 C107.836,57.041 108.036,56.697 108.261,56.448 C108.487,56.199 108.725,56.012 108.977,55.889 C109.229,55.766 109.484,55.69 109.742,55.661 C110,55.631 110.246,55.618 110.48,55.618 L111.526,55.618 L111.526,61.145 L109.452,61.145 L109.452,62.297 L111.719,62.297" id="Fill-168" fill="#E05932"></path>
                <path d="M116.36,48.225 L116.36,47.118 L112.642,47.672 L116.36,48.225 Z M118.381,48.489 L121.44,48.903 L121.44,54.756 L107.421,51.688 L107.421,43.655 L121.44,40.588 L121.44,46.442 L118.381,46.854 L118.381,48.489 L118.381,48.489 Z" id="Fill-169" fill="#E05932"></path>
                <polyline id="Fill-170" fill="#E05932" points="121.44 39.629 107.421 39.629 107.421 33.688 119.295 33.688 119.295 30.498 121.44 30.498 121.44 39.629"></polyline>
                <polyline id="Fill-171" fill="#E05932" points="107.421 20.426 109.54 20.426 109.54 23.616 112.994 23.616 112.994 20.645 115.191 20.645 115.191 23.616 119.295 23.616 119.295 20.426 121.44 20.426 121.44 29.557 107.421 29.557 107.421 20.426"></polyline>
            </g>
        </g>
    </g>
</svg>