<svg xmlns="http://www.w3.org/2000/svg" xmlns:xlink="http://www.w3.org/1999/xlink" viewBox="0 0 789.18 839.76"><defs><style>.cls-1{fill:none;}.cls-2{fill:url(#Degradado_sin_nombre_5);}.cls-3{isolation:isolate;}.cls-10,.cls-11,.cls-13,.cls-17,.cls-23,.cls-27,.cls-28,.cls-29,.cls-30,.cls-31,.cls-32,.cls-33,.cls-34,.cls-35,.cls-36,.cls-37,.cls-38,.cls-39,.cls-4,.cls-40,.cls-41,.cls-42,.cls-43,.cls-44,.cls-45,.cls-46,.cls-47,.cls-48,.cls-49,.cls-5,.cls-50,.cls-51,.cls-52,.cls-53,.cls-54,.cls-55,.cls-56,.cls-57,.cls-58,.cls-59,.cls-6,.cls-60,.cls-61,.cls-62,.cls-63,.cls-64,.cls-7,.cls-8,.cls-9{mix-blend-mode:color-dodge;}.cls-4{fill:url(#Degradado_sin_nombre_122);}.cls-5{fill:url(#Degradado_sin_nombre_121);}.cls-6{fill:url(#Degradado_sin_nombre_6);}.cls-7{fill:url(#Degradado_sin_nombre_6-2);}.cls-8{fill:url(#Degradado_sin_nombre_6-3);}.cls-9{fill:url(#Degradado_sin_nombre_6-4);}.cls-10{fill:url(#Degradado_sin_nombre_6-5);}.cls-11{fill:url(#Degradado_sin_nombre_6-6);}.cls-12,.cls-14{mix-blend-mode:screen;}.cls-12{fill:url(#Degradado_sin_nombre_2);}.cls-13{fill:url(#Degradado_sin_nombre_2-2);}.cls-15{fill:url(#Degradado_sin_nombre_2-3);}.cls-16{fill:url(#Degradado_sin_nombre_2-4);}.cls-17{fill:url(#Degradado_sin_nombre_2-5);}.cls-18{fill:url(#Degradado_sin_nombre_5-2);}.cls-19{fill:url(#Degradado_sin_nombre_5-3);}.cls-20{fill:url(#Degradado_sin_nombre_4);}.cls-21{fill:url(#Degradado_sin_nombre_5-4);}.cls-22,.cls-25,.cls-85,.cls-86,.cls-87{mix-blend-mode:overlay;}.cls-22{fill:url(#Degradado_sin_nombre_120);}.cls-23{fill:url(#Degradado_sin_nombre_6-7);}.cls-24{fill:url(#Degradado_sin_nombre_118);}.cls-25{fill:url(#Degradado_sin_nombre_117);}.cls-26{fill:url(#Degradado_sin_nombre_4-2);}.cls-27{opacity:0.57;}.cls-28{fill:url(#Degradado_sin_nombre_3);}.cls-29{fill:url(#Degradado_sin_nombre_3-2);}.cls-30{fill:url(#Degradado_sin_nombre_3-3);}.cls-31{fill:url(#Degradado_sin_nombre_3-4);}.cls-32{fill:url(#Degradado_sin_nombre_3-5);}.cls-33{fill:url(#Degradado_sin_nombre_3-6);}.cls-34{fill:url(#Degradado_sin_nombre_3-7);}.cls-35{fill:url(#Degradado_sin_nombre_3-8);}.cls-36{fill:url(#Degradado_sin_nombre_3-9);}.cls-37{fill:url(#Degradado_sin_nombre_3-10);}.cls-38{fill:url(#Degradado_sin_nombre_3-11);}.cls-39{fill:url(#Degradado_sin_nombre_3-12);}.cls-40{fill:url(#Degradado_sin_nombre_3-13);}.cls-41{fill:url(#Degradado_sin_nombre_3-14);}.cls-42{fill:url(#Degradado_sin_nombre_3-15);}.cls-43{fill:url(#Degradado_sin_nombre_3-16);}.cls-44{fill:url(#Degradado_sin_nombre_3-17);}.cls-45{fill:url(#Degradado_sin_nombre_3-18);}.cls-46{fill:url(#Degradado_sin_nombre_3-19);}.cls-47{fill:url(#Degradado_sin_nombre_3-20);}.cls-48{fill:url(#Degradado_sin_nombre_3-21);}.cls-49{fill:url(#Degradado_sin_nombre_3-22);}.cls-50{fill:url(#Degradado_sin_nombre_3-23);}.cls-51{fill:url(#Degradado_sin_nombre_3-24);}.cls-52{fill:url(#Degradado_sin_nombre_3-25);}.cls-53{fill:url(#Degradado_sin_nombre_3-26);}.cls-54{fill:url(#Degradado_sin_nombre_3-27);}.cls-55{fill:url(#Degradado_sin_nombre_3-28);}.cls-56{fill:url(#Degradado_sin_nombre_3-29);}.cls-57{fill:url(#Degradado_sin_nombre_3-30);}.cls-58{fill:url(#Degradado_sin_nombre_3-31);}.cls-59{fill:url(#Degradado_sin_nombre_3-32);}.cls-60{fill:url(#Degradado_sin_nombre_3-33);}.cls-61{fill:url(#Degradado_sin_nombre_3-34);}.cls-62{fill:url(#Degradado_sin_nombre_3-35);}.cls-63{fill:url(#Degradado_sin_nombre_3-36);}.cls-64{fill:url(#Degradado_sin_nombre_2-6);}.cls-65{fill:url(#Degradado_sin_nombre_4-3);}.cls-66{fill:url(#Degradado_sin_nombre_4-4);}.cls-67{clip-path:url(#clip-path);}.cls-68{fill:#828282;}.cls-69{fill:url(#Degradado_sin_nombre_5-5);}.cls-70{fill:url(#Degradado_sin_nombre_4-5);}.cls-71{fill:url(#Degradado_sin_nombre_4-6);}.cls-72{fill:url(#Degradado_sin_nombre_4-7);}.cls-73{fill:url(#Degradado_sin_nombre_4-8);}.cls-74{fill:url(#Degradado_sin_nombre_5-6);}.cls-75{fill:url(#Degradado_sin_nombre_4-9);}.cls-76{clip-path:url(#clip-path-2);}.cls-77{fill:url(#Degradado_sin_nombre_5-8);}.cls-78{fill:url(#Degradado_sin_nombre_5-9);}.cls-79{fill:url(#Degradado_sin_nombre_5-10);}.cls-80{fill:url(#Degradado_sin_nombre_5-11);}.cls-81{fill:url(#Degradado_sin_nombre_5-12);}.cls-82{fill:url(#Degradado_sin_nombre_4-10);}.cls-83{fill:url(#Degradado_sin_nombre_5-13);}.cls-84{fill:url(#Degradado_sin_nombre_5-14);}.cls-85{fill:url(#Degradado_sin_nombre_55);}.cls-86{fill:url(#Degradado_sin_nombre_55-2);}.cls-87{fill:url(#Degradado_sin_nombre_55-3);}</style><linearGradient id="Degradado_sin_nombre_5" x1="356.27" y1="564.22" x2="377.27" y2="564.22" gradientTransform="translate(98.9 -53.27) rotate(10.58)" gradientUnits="userSpaceOnUse"><stop offset="0" stop-color="#e8e9ff"/><stop offset="1" stop-color="#c0c0f6"/></linearGradient><radialGradient id="Degradado_sin_nombre_122" cx="3044.85" cy="479.4" r="297.45" gradientTransform="matrix(0.87, -0.5, 0.86, 0.5, -2624.04, 1913.94)" gradientUnits="userSpaceOnUse"><stop offset="0.02" stop-color="#c25a8b"/><stop offset="0.96" stop-opacity="0"/></radialGradient><radialGradient id="Degradado_sin_nombre_121" cx="347.97" cy="476.93" r="285.23" gradientTransform="translate(415.9 -110.88) rotate(45) scale(1 0.99)" gradientUnits="userSpaceOnUse"><stop offset="0.02" stop-color="#fca999"/><stop offset="0.96" stop-opacity="0"/></radialGradient><radialGradient id="Degradado_sin_nombre_6" cx="187" cy="201.33" r="218.91" gradientTransform="translate(0 1.03) scale(1 0.99)" gradientUnits="userSpaceOnUse"><stop offset="0" stop-color="#d3ffe6"/><stop offset="0.85" stop-opacity="0"/></radialGradient><radialGradient id="Degradado_sin_nombre_6-2" cx="145.23" cy="233.99" r="218.91" gradientTransform="translate(0 1.19) scale(1 0.99)" xlink:href="#Degradado_sin_nombre_6"/><radialGradient id="Degradado_sin_nombre_6-3" cx="168.19" cy="247.77" r="218.91" gradientTransform="translate(0 1.26) scale(1 0.99)" xlink:href="#Degradado_sin_nombre_6"/><radialGradient id="Degradado_sin_nombre_6-4" cx="552.51" cy="126.11" r="218.91" gradientTransform="translate(0 0.64) scale(1 0.99)" xlink:href="#Degradado_sin_nombre_6"/><radialGradient id="Degradado_sin_nombre_6-5" cx="510.74" cy="158.77" r="218.91" gradientTransform="translate(0 0.81) scale(1 0.99)" xlink:href="#Degradado_sin_nombre_6"/><radialGradient id="Degradado_sin_nombre_6-6" cx="533.7" cy="172.55" r="218.91" gradientTransform="translate(0 0.88) scale(1 0.99)" xlink:href="#Degradado_sin_nombre_6"/><linearGradient id="Degradado_sin_nombre_2" x1="732.62" y1="564.59" x2="-623.63" y2="661.58" gradientUnits="userSpaceOnUse"><stop offset="0" stop-color="#55d1ff"/><stop offset="0.11" stop-color="#4bb8df" stop-opacity="0.88"/><stop offset="0.56" stop-color="#235868" stop-opacity="0.41"/><stop offset="0.86" stop-color="#0b1c1d" stop-opacity="0.12"/><stop offset="1" stop-color="#010400" stop-opacity="0"/></linearGradient><linearGradient id="Degradado_sin_nombre_2-2" x1="588.94" y1="728.58" x2="1.11" y2="400.72" xlink:href="#Degradado_sin_nombre_2"/><linearGradient id="Degradado_sin_nombre_2-3" x1="627.54" y1="650.65" x2="821.6" y2="541.83" gradientTransform="translate(-95 -192)" xlink:href="#Degradado_sin_nombre_2"/><linearGradient id="Degradado_sin_nombre_2-4" x1="320.18" y1="836.04" x2="86.21" y2="973.87" gradientTransform="translate(-95 -192)" xlink:href="#Degradado_sin_nombre_2"/><linearGradient id="Degradado_sin_nombre_2-5" x1="686.18" y1="613.96" x2="226.85" y2="869.48" xlink:href="#Degradado_sin_nombre_2"/><linearGradient id="Degradado_sin_nombre_5-2" x1="529.5" y1="526.8" x2="181" y2="509.48" gradientTransform="matrix(1, 0, 0, 1, 0, 0)" xlink:href="#Degradado_sin_nombre_5"/><linearGradient id="Degradado_sin_nombre_5-3" x1="554.89" y1="490.08" x2="435.93" y2="693.43" gradientTransform="matrix(1, 0, 0, 1, 0, 0)" xlink:href="#Degradado_sin_nombre_5"/><linearGradient id="Degradado_sin_nombre_4" x1="341.72" y1="659.62" x2="113.12" y2="561.29" gradientUnits="userSpaceOnUse"><stop offset="0" stop-color="#b6b9fe"/><stop offset="1" stop-color="#5861d6"/></linearGradient><linearGradient id="Degradado_sin_nombre_5-4" x1="613.68" y1="582.8" x2="338.14" y2="649.91" gradientTransform="matrix(1, 0, 0, 1, 0, 0)" xlink:href="#Degradado_sin_nombre_5"/><linearGradient id="Degradado_sin_nombre_120" x1="545.63" y1="527.15" x2="183.85" y2="684.83" gradientUnits="userSpaceOnUse"><stop offset="0" stop-color="#4e0f82"/><stop offset="1" stop-color="#fff" stop-opacity="0"/></linearGradient><radialGradient id="Degradado_sin_nombre_6-7" cx="351.15" cy="523.02" r="562.59" gradientTransform="matrix(1, 0, 0, 1, 0, 0)" xlink:href="#Degradado_sin_nombre_6"/><linearGradient id="Degradado_sin_nombre_118" x1="546.3" y1="531.07" x2="40.12" y2="522.06" gradientUnits="userSpaceOnUse"><stop offset="0" stop-color="#3a55ca"/><stop offset="1" stop-color="#2d2463"/></linearGradient><linearGradient id="Degradado_sin_nombre_117" x1="497.16" y1="506.41" x2="143.29" y2="556.78" gradientUnits="userSpaceOnUse"><stop offset="0" stop-color="#e8e9ff"/><stop offset="1" stop-color="#501275"/></linearGradient><linearGradient id="Degradado_sin_nombre_4-2" x1="171.52" y1="495.22" x2="493.73" y2="477.16" xlink:href="#Degradado_sin_nombre_4"/><radialGradient id="Degradado_sin_nombre_3" cx="326.31" cy="133.18" r="4.39" gradientTransform="matrix(1, 0, 0, 1, 0, 0)" xlink:href="#Degradado_sin_nombre_6"/><radialGradient id="Degradado_sin_nombre_3-2" cx="397.85" cy="212.46" r="4.5" gradientTransform="matrix(1, 0, 0, 1, 0, 0)" xlink:href="#Degradado_sin_nombre_6"/><radialGradient id="Degradado_sin_nombre_3-3" cx="320.13" cy="157.28" r="4.62" gradientTransform="matrix(1, 0, 0, 1, 0, 0)" xlink:href="#Degradado_sin_nombre_6"/><radialGradient id="Degradado_sin_nombre_3-4" cx="351.67" cy="203.37" r="4.72" gradientTransform="matrix(1, 0, 0, 1, 0, 0)" xlink:href="#Degradado_sin_nombre_6"/><radialGradient id="Degradado_sin_nombre_3-5" cx="348.08" cy="250.42" r="4.47" gradientTransform="matrix(1, 0, 0, 1, 0, 0)" xlink:href="#Degradado_sin_nombre_6"/><radialGradient id="Degradado_sin_nombre_3-6" cx="283.42" cy="396.75" r="4.61" gradientTransform="matrix(1, 0, 0, 1, 0, 0)" xlink:href="#Degradado_sin_nombre_6"/><radialGradient id="Degradado_sin_nombre_3-7" cx="259.03" cy="449.08" r="4.55" gradientTransform="matrix(1, 0, 0, 1, 0, 0)" xlink:href="#Degradado_sin_nombre_6"/><radialGradient id="Degradado_sin_nombre_3-8" cx="468.07" cy="435.73" r="4.73" gradientTransform="matrix(1, 0, 0, 1, 0, 0)" xlink:href="#Degradado_sin_nombre_6"/><radialGradient id="Degradado_sin_nombre_3-9" cx="379.24" cy="322.87" r="4.49" gradientTransform="matrix(1, 0, 0, 1, 0, 0)" xlink:href="#Degradado_sin_nombre_6"/><radialGradient id="Degradado_sin_nombre_3-10" cx="296.44" cy="149.03" r="4.72" gradientTransform="matrix(1, 0, 0, 1, 0, 0)" xlink:href="#Degradado_sin_nombre_6"/><radialGradient id="Degradado_sin_nombre_3-11" cx="250.08" cy="126.49" r="4.46" gradientTransform="matrix(1, 0, 0, 1, 0, 0)" xlink:href="#Degradado_sin_nombre_6"/><radialGradient id="Degradado_sin_nombre_3-12" cx="208.72" cy="82.22" r="4.45" gradientTransform="matrix(1, 0, 0, 1, 0, 0)" xlink:href="#Degradado_sin_nombre_6"/><radialGradient id="Degradado_sin_nombre_3-13" cx="283.15" cy="100.63" r="4.62" gradientTransform="matrix(1, 0, 0, 1, 0, 0)" xlink:href="#Degradado_sin_nombre_6"/><radialGradient id="Degradado_sin_nombre_3-14" cx="409.9" cy="63.55" r="4.34" gradientTransform="matrix(1, 0, 0, 1, 0, 0)" xlink:href="#Degradado_sin_nombre_6"/><radialGradient id="Degradado_sin_nombre_3-15" cx="431.25" cy="102.32" r="4.36" gradientTransform="matrix(1, 0, 0, 1, 0, 0)" xlink:href="#Degradado_sin_nombre_6"/><radialGradient id="Degradado_sin_nombre_3-16" cx="428.41" cy="121.63" r="4.48" gradientTransform="matrix(1, 0, 0, 1, 0, 0)" xlink:href="#Degradado_sin_nombre_6"/><radialGradient id="Degradado_sin_nombre_3-17" cx="406.78" cy="162.07" r="4.54" gradientTransform="matrix(1, 0, 0, 1, 0, 0)" xlink:href="#Degradado_sin_nombre_6"/><radialGradient id="Degradado_sin_nombre_3-18" cx="370.71" cy="276.27" r="4.32" gradientTransform="matrix(1, 0, 0, 1, 0, 0)" xlink:href="#Degradado_sin_nombre_6"/><radialGradient id="Degradado_sin_nombre_3-19" cx="313.4" cy="177.73" r="4.46" gradientTransform="matrix(1, 0, 0, 1, 0, 0)" xlink:href="#Degradado_sin_nombre_6"/><radialGradient id="Degradado_sin_nombre_3-20" cx="243.34" cy="237.48" r="4.35" gradientTransform="matrix(1, 0, 0, 1, 0, 0)" xlink:href="#Degradado_sin_nombre_6"/><radialGradient id="Degradado_sin_nombre_3-21" cx="232.67" cy="180.38" r="4.48" gradientTransform="matrix(1, 0, 0, 1, 0, 0)" xlink:href="#Degradado_sin_nombre_6"/><radialGradient id="Degradado_sin_nombre_3-22" cx="281.68" cy="302.29" r="4.51" gradientTransform="matrix(1, 0, 0, 1, 0, 0)" xlink:href="#Degradado_sin_nombre_6"/><radialGradient id="Degradado_sin_nombre_3-23" cx="439.66" cy="322.16" r="4.68" gradientTransform="matrix(1, 0, 0, 1, 0, 0)" xlink:href="#Degradado_sin_nombre_6"/><radialGradient id="Degradado_sin_nombre_3-24" cx="454.44" cy="404.88" r="4.48" gradientTransform="matrix(1, 0, 0, 1, 0, 0)" xlink:href="#Degradado_sin_nombre_6"/><radialGradient id="Degradado_sin_nombre_3-25" cx="315.29" cy="323.4" r="4.59" gradientTransform="matrix(1, 0, 0, 1, 0, 0)" xlink:href="#Degradado_sin_nombre_6"/><radialGradient id="Degradado_sin_nombre_3-26" cx="471.19" cy="463.48" r="4.72" gradientTransform="matrix(1, 0, 0, 1, 0, 0)" xlink:href="#Degradado_sin_nombre_6"/><radialGradient id="Degradado_sin_nombre_3-27" cx="250.08" cy="326.84" r="4.61" gradientTransform="matrix(1, 0, 0, 1, 0, 0)" xlink:href="#Degradado_sin_nombre_6"/><radialGradient id="Degradado_sin_nombre_3-28" cx="337.88" cy="392.13" r="4.71" gradientTransform="matrix(1, 0, 0, 1, 0, 0)" xlink:href="#Degradado_sin_nombre_6"/><radialGradient id="Degradado_sin_nombre_3-29" cx="242.54" cy="404.8" r="4.72" gradientTransform="matrix(1, 0, 0, 1, 0, 0)" xlink:href="#Degradado_sin_nombre_6"/><radialGradient id="Degradado_sin_nombre_3-30" cx="381.92" cy="401.66" r="4.37" gradientTransform="matrix(1, 0, 0, 1, 0, 0)" xlink:href="#Degradado_sin_nombre_6"/><radialGradient id="Degradado_sin_nombre_3-31" cx="354.06" cy="317.6" r="4.44" gradientTransform="matrix(1, 0, 0, 1, 0, 0)" xlink:href="#Degradado_sin_nombre_6"/><radialGradient id="Degradado_sin_nombre_3-32" cx="453.97" cy="288.62" r="4.63" gradientTransform="matrix(1, 0, 0, 1, 0, 0)" xlink:href="#Degradado_sin_nombre_6"/><radialGradient id="Degradado_sin_nombre_3-33" cx="413.51" cy="209.99" r="4.71" gradientTransform="matrix(1, 0, 0, 1, 0, 0)" xlink:href="#Degradado_sin_nombre_6"/><radialGradient id="Degradado_sin_nombre_3-34" cx="345.56" cy="104.68" r="4.51" gradientTransform="matrix(1, 0, 0, 1, 0, 0)" xlink:href="#Degradado_sin_nombre_6"/><radialGradient id="Degradado_sin_nombre_3-35" cx="348.5" cy="96.97" r="4.46" gradientTransform="matrix(1, 0, 0, 1, 0, 0)" xlink:href="#Degradado_sin_nombre_6"/><radialGradient id="Degradado_sin_nombre_3-36" cx="395.72" cy="178.74" r="4.44" gradientTransform="matrix(1, 0, 0, 1, 0, 0)" xlink:href="#Degradado_sin_nombre_6"/><linearGradient id="Degradado_sin_nombre_2-6" x1="321.87" y1="146.71" x2="355.01" y2="451.34" xlink:href="#Degradado_sin_nombre_2"/><linearGradient id="Degradado_sin_nombre_4-3" x1="367.04" y1="454.75" x2="386.82" y2="489" gradientTransform="translate(98.9 -53.27) rotate(10.58)" xlink:href="#Degradado_sin_nombre_4"/><linearGradient id="Degradado_sin_nombre_4-4" x1="397.2" y1="457.43" x2="409.83" y2="479.29" gradientTransform="translate(98.9 -53.27) rotate(10.58)" xlink:href="#Degradado_sin_nombre_4"/><clipPath id="clip-path"><path class="cls-1" d="M342.17,494.15l9.35-24.35a5.32,5.32,0,0,0-.35,1.53l-9.35,24.36A6.06,6.06,0,0,1,342.17,494.15Z"/></clipPath><linearGradient id="Degradado_sin_nombre_5-5" x1="402.84" y1="495.54" x2="432.95" y2="495.54" xlink:href="#Degradado_sin_nombre_5"/><linearGradient id="Degradado_sin_nombre_4-5" x1="331.2" y1="519" x2="355.97" y2="476.1" gradientTransform="translate(98.9 -53.27) rotate(10.58)" xlink:href="#Degradado_sin_nombre_4"/><linearGradient id="Degradado_sin_nombre_4-6" x1="381.96" y1="539.58" x2="381.96" y2="481.86" gradientTransform="translate(98.9 -53.27) rotate(10.58)" xlink:href="#Degradado_sin_nombre_4"/><linearGradient id="Degradado_sin_nombre_4-7" x1="317.25" y1="505.38" x2="317.25" y2="545.28" gradientTransform="translate(98.9 -53.27) rotate(10.58)" xlink:href="#Degradado_sin_nombre_4"/><linearGradient id="Degradado_sin_nombre_4-8" x1="385.3" y1="563.31" x2="385.3" y2="528.56" gradientTransform="translate(98.9 -53.27) rotate(10.58)" xlink:href="#Degradado_sin_nombre_4"/><linearGradient id="Degradado_sin_nombre_5-6" x1="395.72" y1="547.66" x2="414.04" y2="547.66" xlink:href="#Degradado_sin_nombre_5"/><linearGradient id="Degradado_sin_nombre_4-9" x1="348" y1="558.34" x2="348" y2="519.63" gradientTransform="translate(98.9 -53.27) rotate(10.58)" xlink:href="#Degradado_sin_nombre_4"/><clipPath id="clip-path-2"><path class="cls-2" d="M369.26,554.05l-9.35,24.35c-15.39,5.41-15.54,5.34-15.7,5.28l-.74-.33-1-.48,9.35-24.36c.23.13.47.25.95.48a7.92,7.92,0,0,0,.75.33C353.71,559.39,353.87,559.45,369.26,554.05Z"/></clipPath><linearGradient id="Degradado_sin_nombre_5-8" x1="358.3" y1="564.2" x2="377.27" y2="564.2" xlink:href="#Degradado_sin_nombre_5"/><linearGradient id="Degradado_sin_nombre_5-9" x1="358.15" y1="568.23" x2="363.01" y2="568.23" xlink:href="#Degradado_sin_nombre_5"/><linearGradient id="Degradado_sin_nombre_5-10" x1="358.12" y1="568.25" x2="362.87" y2="568.25" xlink:href="#Degradado_sin_nombre_5"/><linearGradient id="Degradado_sin_nombre_5-11" x1="357.96" y1="568.24" x2="362.84" y2="568.24" xlink:href="#Degradado_sin_nombre_5"/><linearGradient id="Degradado_sin_nombre_5-12" x1="356.27" y1="567.99" x2="362.67" y2="567.99" xlink:href="#Degradado_sin_nombre_5"/><linearGradient id="Degradado_sin_nombre_4-10" x1="306.42" y1="581.15" x2="306.42" y2="511.86" gradientTransform="translate(98.9 -53.27) rotate(10.58)" xlink:href="#Degradado_sin_nombre_4"/><linearGradient id="Degradado_sin_nombre_5-13" x1="378.31" y1="447.46" x2="430.36" y2="447.46" xlink:href="#Degradado_sin_nombre_5"/><linearGradient id="Degradado_sin_nombre_5-14" x1="254.66" y1="504.69" x2="433.12" y2="504.69" xlink:href="#Degradado_sin_nombre_5"/><linearGradient id="Degradado_sin_nombre_55" x1="595.43" y1="495.7" x2="166.71" y2="385.69" gradientUnits="userSpaceOnUse"><stop offset="0" stop-color="#fff"/><stop offset="1" stop-color="#fff" stop-opacity="0"/></linearGradient><linearGradient id="Degradado_sin_nombre_55-2" x1="595.43" y1="403.13" x2="166.71" y2="293.12" xlink:href="#Degradado_sin_nombre_55"/><linearGradient id="Degradado_sin_nombre_55-3" x1="595.43" y1="307.66" x2="166.71" y2="197.65" xlink:href="#Degradado_sin_nombre_55"/></defs><g class="cls-3"><g id="Layer_2" data-name="Layer 2"><g id="Layer_1-2" data-name="Layer 1"><ellipse class="cls-4" cx="425.84" cy="629.99" rx="363.33" ry="209.77"/><circle class="cls-5" cx="344.73" cy="447.81" r="222.83" transform="translate(-215.68 374.92) rotate(-45)"/><path class="cls-6" d="M184.7,441.14h0a4.19,4.19,0,0,1-4.18-4.18V217.76a4.19,4.19,0,0,1,4.18-4.18h0a4.2,4.2,0,0,1,4.19,4.18V437A4.2,4.2,0,0,1,184.7,441.14Z"/><path class="cls-7" d="M142.94,473.8h0a4.19,4.19,0,0,1-4.19-4.18V250.42a4.19,4.19,0,0,1,4.19-4.18h0a4.19,4.19,0,0,1,4.18,4.18v219.2A4.19,4.19,0,0,1,142.94,473.8Z"/><path class="cls-8" d="M165.9,487.58h0a4.19,4.19,0,0,1-4.19-4.18V264.2A4.2,4.2,0,0,1,165.9,260h0a4.2,4.2,0,0,1,4.18,4.19V483.4A4.19,4.19,0,0,1,165.9,487.58Z"/><path class="cls-9" d="M550.21,365.92h0a4.19,4.19,0,0,1-4.18-4.18V142.54a4.19,4.19,0,0,1,4.18-4.18h0a4.2,4.2,0,0,1,4.19,4.18v219.2A4.2,4.2,0,0,1,550.21,365.92Z"/><path class="cls-10" d="M508.45,398.58h0a4.2,4.2,0,0,1-4.19-4.18V175.2a4.2,4.2,0,0,1,4.19-4.18h0a4.19,4.19,0,0,1,4.18,4.18V394.4A4.19,4.19,0,0,1,508.45,398.58Z"/><path class="cls-11" d="M531.41,412.36h0a4.19,4.19,0,0,1-4.19-4.18V189a4.2,4.2,0,0,1,4.19-4.19h0a4.2,4.2,0,0,1,4.18,4.19v219.2A4.19,4.19,0,0,1,531.41,412.36Z"/><path class="cls-12" d="M324.89,785a22.44,22.44,0,0,1-11.26-3L37.82,622.78a22.5,22.5,0,0,1,0-39L353.56,402.6a22.57,22.57,0,0,1,22.55.08l273.3,159.4a22.51,22.51,0,0,1-.08,38.94L336.15,782A22.47,22.47,0,0,1,324.89,785ZM364.77,401.6a20.52,20.52,0,0,0-10.22,2.71L38.86,585.48a20.53,20.53,0,0,0,0,35.59L314.62,780.31a20.58,20.58,0,0,0,20.54,0l313.18-181a20.54,20.54,0,0,0,.07-35.52l-273.3-159.4A20.48,20.48,0,0,0,364.77,401.6Z"/><path class="cls-13" d="M336.79,754,604.84,599a18.42,18.42,0,0,0,.07-31.86L371,430.74a18.43,18.43,0,0,0-18.45-.07L82.35,585.73a18.42,18.42,0,0,0,0,31.93L318.37,754A18.4,18.4,0,0,0,336.79,754Z"/><g class="cls-14"><path class="cls-15" d="M611.47,431.33l51-29.46a4.25,4.25,0,0,0,3.73,0,1.17,1.17,0,0,0,0-2.21,4.22,4.22,0,0,0-3.82,0c-.71.41-.93,1-.69,1.5l-51.3,29.62Zm70.89-50.58-83.8,48.38a4.3,4.3,0,0,0-3.22.25,1.17,1.17,0,0,0,0,2.21,4.22,4.22,0,0,0,3.82,0c.87-.51,1-1.27.44-1.86l81.3-47v15.74l-50.68,29.26A4.33,4.33,0,0,0,627,428a1.17,1.17,0,0,0,0,2.21,4.22,4.22,0,0,0,3.82,0c.88-.51,1-1.27.44-1.86l51.11-29.51ZM531.05,454.34a4.3,4.3,0,0,0-3.22.25,1.17,1.17,0,0,0,0,2.21,4.22,4.22,0,0,0,3.82,0c.87-.5,1-1.27.43-1.86L682.3,368.21a4.33,4.33,0,0,0,3.23-.25,1.17,1.17,0,0,0,0-2.21,4.22,4.22,0,0,0-3.82,0c-.88.51-1,1.27-.44,1.86Zm38.66-31.45L661.26,370a4.3,4.3,0,0,0,3.22-.25,1.17,1.17,0,0,0,0-2.21,4.22,4.22,0,0,0-3.82,0c-.87.5-1,1.27-.44,1.86l-89,51.41V406l68.74-39.69a4.28,4.28,0,0,0,3.23-.26,1.16,1.16,0,0,0,0-2.2,4.22,4.22,0,0,0-3.82,0c-.88.5-1,1.27-.44,1.86l-69.18,39.94Zm12.37-16.38,1,.6,92.41-53.35a4.3,4.3,0,0,0,3.22-.25,1.17,1.17,0,0,0,0-2.21,4.22,4.22,0,0,0-3.82,0c-.87.51-1,1.27-.44,1.86Zm139-10.17a4.22,4.22,0,0,0-3.82,0c-.88.5-1,1.27-.44,1.86l-81.33,47H586.33l-35.68,20.6a4.26,4.26,0,0,0-2.88.35,1.17,1.17,0,0,0,0,2.21,4.22,4.22,0,0,0,3.82,0c1-.56,1-1.43.23-2.05L586.94,446H636.1l81.76-47.2a4.27,4.27,0,0,0,3.23-.26A1.16,1.16,0,0,0,721.09,396.34ZM579.54,437.77h52l42.34-24.44a4.2,4.2,0,0,0,3.22-.25,1.17,1.17,0,0,0,0-2.21,4.28,4.28,0,0,0-3.82,0c-.87.51-1,1.27-.44,1.87l-41.9,24.19h-52L519.2,471.42a4.33,4.33,0,0,0-3.23.25,1.17,1.17,0,0,0,0,2.21,4.22,4.22,0,0,0,3.82,0c.88-.51,1-1.27.44-1.86Zm-60,13.52a4.22,4.22,0,0,0,3.82,0c.87-.5,1-1.26.43-1.86l33.91-19.57V403.12l82.89-47.86a4.3,4.3,0,0,0,3.22-.25,1.17,1.17,0,0,0,0-2.21,4.22,4.22,0,0,0-3.82,0c-.87.51-1,1.27-.43,1.87l-83.32,48.1v26.74l-33.48,19.33a4.23,4.23,0,0,0-3.23.25A1.16,1.16,0,0,0,519.49,451.29Z"/></g><g class="cls-14"><path class="cls-16" d="M190.83,673.66a4.33,4.33,0,0,0,3.23-.25,1.17,1.17,0,0,0,0-2.21,4.24,4.24,0,0,0-3.83,0c-.87.51-1,1.27-.43,1.86L39.58,759.79a4.28,4.28,0,0,0-3.23.26,1.16,1.16,0,0,0,0,2.2,4.22,4.22,0,0,0,3.82,0c.88-.5,1-1.27.44-1.86Zm-80.42,23-51,29.47a4.18,4.18,0,0,0-3.73,0,1.16,1.16,0,0,0,0,2.2,4.22,4.22,0,0,0,3.82,0c.71-.4.93-1,.69-1.5l51.3-29.61Zm-24-13.82h49.17l35.68-20.61a4.2,4.2,0,0,0,2.88-.35,1.16,1.16,0,0,0,0-2.2,4.22,4.22,0,0,0-3.82,0c-1,.55-1,1.43-.23,2L134.94,682H85.78L4,729.21a4.23,4.23,0,0,0-3.23.25,1.16,1.16,0,0,0,0,2.2,4.22,4.22,0,0,0,3.82,0c.88-.5,1-1.26.44-1.86ZM39.52,747.26l83.8-48.39a4.2,4.2,0,0,0,3.22-.25,1.16,1.16,0,0,0,0-2.2,4.22,4.22,0,0,0-3.82,0c-.87.5-1,1.26-.43,1.86L41,745.22V729.49l50.69-29.27a4.21,4.21,0,0,0,3.22-.25,1.17,1.17,0,0,0,0-2.21,4.28,4.28,0,0,0-3.82,0c-.88.51-1,1.27-.44,1.87L39.52,729.14Zm112.65-42.15L60.62,758a4.25,4.25,0,0,0-3.22.26,1.16,1.16,0,0,0,0,2.2,4.22,4.22,0,0,0,3.82,0c.87-.5,1-1.26.44-1.86l89.05-51.41v14.9L82,761.74a4.23,4.23,0,0,0-3.23.25,1.16,1.16,0,0,0,0,2.2,4.24,4.24,0,0,0,3.83,0c.87-.5,1-1.26.43-1.86l69.18-39.93Zm50.23-28.4a4.24,4.24,0,0,0-3.83,0c-.87.5-1,1.27-.43,1.86l-33.91,19.58v26.74L81.34,772.74a4.3,4.3,0,0,0-3.22.25,1.17,1.17,0,0,0,0,2.21,4.22,4.22,0,0,0,3.82,0c.87-.51,1-1.27.44-1.86l83.31-48.1V698.5l33.48-19.33a4.28,4.28,0,0,0,3.23-.26A1.16,1.16,0,0,0,202.4,676.71Zm3.51-22.59a4.22,4.22,0,0,0-3.82,0c-.88.51-1,1.27-.44,1.87l-59.31,34.24h-52L48,714.67a4.3,4.3,0,0,0-3.22.25,1.17,1.17,0,0,0,0,2.21,4.22,4.22,0,0,0,3.82,0c.88-.51,1-1.27.44-1.86L91,691.07h52l59.74-34.49a4.28,4.28,0,0,0,3.23-.25A1.17,1.17,0,0,0,205.91,654.12ZM139.8,721.49l-1-.6L46.36,774.24a4.3,4.3,0,0,0-3.22.25,1.17,1.17,0,0,0,0,2.21,4.22,4.22,0,0,0,3.82,0c.88-.5,1-1.27.44-1.86Z"/></g><path class="cls-17" d="M523.66,704.56a16,16,0,0,0-14.5,0c-4,2.32-4,6.06,0,8.38a16,16,0,0,0,14.5,0C527.67,710.62,527.67,706.88,523.66,704.56Zm-33.34,19.25a16,16,0,0,0-14.5,0c-4,2.31-4,6.06,0,8.37a16,16,0,0,0,14.5,0C494.33,729.87,494.33,726.12,490.32,723.81ZM457,743.06a16,16,0,0,0-14.5,0c-4,2.31-4,6.06,0,8.37a16,16,0,0,0,14.5,0C461,749.12,461,745.37,457,743.06Zm-33.34,19.25a16,16,0,0,0-14.5,0c-4,2.31-4,6.06,0,8.37a16,16,0,0,0,14.5,0C427.65,768.37,427.65,764.62,423.65,762.31ZM657,627.57a16,16,0,0,0-14.5,0c-4,2.32-4,6.07,0,8.38a16,16,0,0,0,14.5,0C661,633.64,661,629.89,657,627.57Zm-33.34,19.25a16,16,0,0,0-14.5,0c-4,2.31-4,6.06,0,8.37a16,16,0,0,0,14.5,0C627.68,652.88,627.68,649.13,623.67,646.82Zm-33.33,19.25a16,16,0,0,0-14.5,0c-4,2.31-4,6.06,0,8.37a16,16,0,0,0,14.5,0C594.34,672.13,594.34,668.38,590.34,666.07ZM557,685.32a16,16,0,0,0-14.5,0c-4,2.31-4,6.06,0,8.37a16,16,0,0,0,14.5,0C561,691.38,561,687.63,557,685.32Z"/><polygon class="cls-18" points="533.29 489.23 398.06 411.15 213.32 439.73 213.32 439.73 163.82 546.39 163.82 546.39 299.05 624.47 483.79 595.88 483.79 595.88 533.29 489.23"/><polygon class="cls-19" points="533.29 489.23 483.79 595.88 483.79 649.4 533.29 542.74 533.29 489.23"/><polygon class="cls-20" points="163.82 546.39 163.82 599.9 299.05 677.98 299.05 624.46 163.82 546.39"/><polygon class="cls-21" points="299.05 624.46 483.79 595.88 483.79 649.4 299.05 677.98 299.05 624.46"/><polygon class="cls-22" points="532.13 491.73 532.13 540.42 482.63 647.08 297.89 675.66 163.82 598.25 163.82 599.9 299.05 677.98 483.79 649.4 533.29 542.74 533.29 489.23 532.13 491.73"/><polygon class="cls-23" points="193.82 536.98 303.58 600.35 467.96 574.92 503.29 498.8 554.08 84.17 408.29 0 189.96 33.77 143.03 134.88 193.82 536.98"/><polygon class="cls-24" points="200.92 541 229.15 480.18 393.53 454.75 496.19 514.02 467.98 574.89 303.62 600.35 200.92 541"/><path class="cls-25" d="M407.37,462.81l-171,98.72L239,563,410,464.3Zm-5.64-3.26-171,98.72,2.58,1.49,171-98.72Zm-5.64-3.26L225.1,555l2.58,1.49,171-98.73Zm-10.94-.19L219.46,551.76l2.58,1.49L392.19,455Zm-15.41,2.39-155.92,90L216.4,550,376.79,457.4Zm60.19,17.34-171,98.72,2.58,1.49,171-98.72Zm-5.64-3.25-171,98.72,2.58,1.49,171-98.73Zm-5.64-3.26L247.66,568l2.58,1.49,171-98.72ZM413,466.06,242,564.79l2.58,1.49,171-98.73Zm-151.13,9.11-41.51,24-1.89,4.07,50.45-29.13Zm30.82-4.77-80.59,46.53L210.22,521l89.52-51.69Zm-46.23,7.15-22,12.69-1.89,4.07,30.91-17.85Zm-15.41,2.39-2.43,1.4-1.89,4.07,11.37-6.56Zm92.45-14.3L203.86,534.72,202,538.79l128.59-74.24Zm15.41-2.39L202.54,542l2.58,1.49L346,462.16Zm15.41-2.38L208.18,545.25l2.58,1.49,150.62-87ZM308.1,468,208,525.82l-1.88,4.07,109-63Zm-30.81,4.77L216.24,508l-1.89,4.07,70-40.4ZM435.22,580l41.5-24,1.89-4.07-50.44,29.12Zm15.4-2.38,22-12.69,1.89-4.07-30.9,17.85ZM466,575.19l2.43-1.4,1.89-4.07L459,576.28ZM492,511.65,351.12,593l7.05-1.09,136.38-78.74ZM366.53,590.58l7.05-1.09,119.66-69.08,1.89-4.07ZM389,587.11l100.12-57.8,1.89-4.07-109.06,63Zm46.58-108-171,98.72,2.58,1.49,171-98.72ZM404.4,584.73,485,538.2l1.89-4.07-89.52,51.69Zm15.41-2.39,61-35.24,1.89-4.07-70,40.4Zm66.52-74-150.61,87,7-1.09,146.15-84.38ZM446.85,485.6l-171,98.72,2.58,1.49,171-98.72Zm11.28,6.51-171,98.73,2.58,1.48,171-98.72Zm-5.64-3.25-171,98.72,2.58,1.49,171-98.72Zm-11.28-6.52-171,98.73,2.58,1.49,171-98.73Zm33.84,19.54L304.9,600.12,312,599l165.68-95.66Zm5.64,3.26-160.38,92.6,7.05-1.09,155.91-90Zm-16.92-9.77-171,98.72,2.58,1.49,171-98.72Zm5.64,3.25-171,98.73,2.58,1.49,171-98.73Z"/><polygon class="cls-26" points="229.15 480.18 393.53 454.75 496.19 514.02 503.29 498.72 393.53 435.35 229.15 460.77 193.82 536.9 200.92 541 229.15 480.18"/><g class="cls-27"><circle class="cls-28" cx="326.31" cy="133.18" r="4.39"/><path class="cls-29" d="M402.35,212.46a4.5,4.5,0,1,1-4.5-4.5A4.5,4.5,0,0,1,402.35,212.46Z"/><path class="cls-30" d="M324.75,157.28a4.62,4.62,0,1,1-4.62-4.62A4.61,4.61,0,0,1,324.75,157.28Z"/><path class="cls-31" d="M356.39,203.37a4.73,4.73,0,1,1-4.72-4.72A4.72,4.72,0,0,1,356.39,203.37Z"/><path class="cls-32" d="M352.55,250.42a4.47,4.47,0,1,1-4.47-4.47A4.47,4.47,0,0,1,352.55,250.42Z"/><path class="cls-33" d="M288,396.75a4.62,4.62,0,1,1-4.61-4.62A4.62,4.62,0,0,1,288,396.75Z"/><circle class="cls-34" cx="259.03" cy="449.08" r="4.55"/><path class="cls-35" d="M472.8,435.73a4.73,4.73,0,1,1-4.73-4.73A4.74,4.74,0,0,1,472.8,435.73Z"/><path class="cls-36" d="M383.73,322.87a4.49,4.49,0,1,1-4.49-4.49A4.49,4.49,0,0,1,383.73,322.87Z"/><path class="cls-37" d="M301.16,149a4.72,4.72,0,1,1-4.72-4.72A4.72,4.72,0,0,1,301.16,149Z"/><circle class="cls-38" cx="250.08" cy="126.49" r="4.46"/><circle class="cls-39" cx="208.72" cy="82.22" r="4.45"/><circle class="cls-40" cx="283.15" cy="100.63" r="4.62"/><path class="cls-41" d="M414.24,63.55a4.35,4.35,0,1,1-4.34-4.34A4.34,4.34,0,0,1,414.24,63.55Z"/><circle class="cls-42" cx="431.25" cy="102.32" r="4.36"/><path class="cls-43" d="M432.89,121.63a4.48,4.48,0,1,1-4.48-4.48A4.48,4.48,0,0,1,432.89,121.63Z"/><circle class="cls-44" cx="406.78" cy="162.07" r="4.54"/><path class="cls-45" d="M375,276.27a4.33,4.33,0,1,1-4.32-4.32A4.33,4.33,0,0,1,375,276.27Z"/><circle class="cls-46" cx="313.4" cy="177.73" r="4.46"/><circle class="cls-47" cx="243.34" cy="237.48" r="4.35"/><path class="cls-48" d="M237.16,180.38a4.49,4.49,0,1,1-4.49-4.48A4.49,4.49,0,0,1,237.16,180.38Z"/><path class="cls-49" d="M286.19,302.29a4.51,4.51,0,1,1-4.51-4.51A4.51,4.51,0,0,1,286.19,302.29Z"/><path class="cls-50" d="M444.33,322.16a4.68,4.68,0,1,1-4.67-4.67A4.67,4.67,0,0,1,444.33,322.16Z"/><path class="cls-51" d="M458.93,404.88a4.49,4.49,0,1,1-4.49-4.48A4.49,4.49,0,0,1,458.93,404.88Z"/><path class="cls-52" d="M319.88,323.4a4.59,4.59,0,1,1-4.59-4.58A4.59,4.59,0,0,1,319.88,323.4Z"/><path class="cls-53" d="M475.91,463.48a4.72,4.72,0,1,1-4.72-4.72A4.72,4.72,0,0,1,475.91,463.48Z"/><path class="cls-54" d="M254.69,326.84a4.61,4.61,0,1,1-4.61-4.61A4.6,4.6,0,0,1,254.69,326.84Z"/><path class="cls-55" d="M342.59,392.13a4.71,4.71,0,1,1-4.71-4.7A4.71,4.71,0,0,1,342.59,392.13Z"/><path class="cls-56" d="M247.27,404.8a4.73,4.73,0,1,1-4.72-4.72A4.73,4.73,0,0,1,247.27,404.8Z"/><path class="cls-57" d="M386.29,401.66a4.37,4.37,0,1,1-4.37-4.37A4.37,4.37,0,0,1,386.29,401.66Z"/><path class="cls-58" d="M358.5,317.6a4.44,4.44,0,1,1-4.44-4.44A4.43,4.43,0,0,1,358.5,317.6Z"/><path class="cls-59" d="M458.6,288.62A4.63,4.63,0,1,1,454,284,4.63,4.63,0,0,1,458.6,288.62Z"/><path class="cls-60" d="M418.22,210a4.71,4.71,0,1,1-4.71-4.71A4.71,4.71,0,0,1,418.22,210Z"/><path class="cls-61" d="M350.07,104.68a4.51,4.51,0,1,1-4.51-4.51A4.51,4.51,0,0,1,350.07,104.68Z"/><path class="cls-62" d="M353,97a4.46,4.46,0,1,1-4.46-4.46A4.46,4.46,0,0,1,353,97Z"/><path class="cls-63" d="M400.16,178.74a4.44,4.44,0,1,1-4.44-4.43A4.44,4.44,0,0,1,400.16,178.74Z"/></g><path class="cls-64" d="M421.54,240.93a3.14,3.14,0,0,0-2.06-.65,5.35,5.35,0,0,0-2.58.81,10.5,10.5,0,0,0-2.59,2.17,15.38,15.38,0,0,0-2,3,17.21,17.21,0,0,0-1.36,3.57,15,15,0,0,0-.49,3.81,9.26,9.26,0,0,0,.49,3.23,4.39,4.39,0,0,0,1.36,2,3.09,3.09,0,0,0,2,.64,5.45,5.45,0,0,0,2.59-.84,10.42,10.42,0,0,0,2.58-2.14,14.75,14.75,0,0,0,2.06-3,16.36,16.36,0,0,0,1.35-3.56,15,15,0,0,0,.49-3.81,9.29,9.29,0,0,0-.49-3.24A4.27,4.27,0,0,0,421.54,240.93Zm-1.77,9.45a9.75,9.75,0,0,1-.65,2,7.47,7.47,0,0,1-1,1.64,4.38,4.38,0,0,1-1.25,1.09,2.23,2.23,0,0,1-1.27.36,1.5,1.5,0,0,1-1-.51,3.13,3.13,0,0,1-.64-1.28,7.7,7.7,0,0,1-.22-2,11.25,11.25,0,0,1,.22-2.26,10.15,10.15,0,0,1,.64-2,7.91,7.91,0,0,1,1-1.64,4.56,4.56,0,0,1,1.27-1.11,2.19,2.19,0,0,1,1.25-.34,1.41,1.41,0,0,1,1,.51,3,3,0,0,1,.65,1.3,7.84,7.84,0,0,1,.22,2A11.15,11.15,0,0,1,419.77,250.38ZM270.5,207.44c.38-.43.74-.86,1.06-1.29a6.4,6.4,0,0,0,.72-1.13v8.79l-3.57,2.06v3.51l10.2-5.89V210l-3.19,1.84v-13l-3.44,2a6.33,6.33,0,0,1-.59,1.05c-.31.48-.68,1-1.09,1.55s-.85,1.06-1.28,1.53a5,5,0,0,1-1.11,1v3.63a6.43,6.43,0,0,0,1.09-.83A15.42,15.42,0,0,0,270.5,207.44Zm0,47c.38-.43.74-.87,1.06-1.3a6.37,6.37,0,0,0,.72-1.12v8.79l-3.57,2.06v3.51l10.2-5.89V257l-3.19,1.84V245.74l-3.44,2a5.94,5.94,0,0,1-.59,1.06c-.31.47-.68,1-1.09,1.54s-.85,1.06-1.28,1.54a5.63,5.63,0,0,1-1.11,1v3.62a6.43,6.43,0,0,0,1.09-.83A15.25,15.25,0,0,0,270.5,254.41Zm-18-34.61c.38-.44.74-.87,1.07-1.3a6.89,6.89,0,0,0,.71-1.13v8.79l-3.57,2.06v3.51l10.2-5.89v-3.51l-3.19,1.85V211.12l-3.44,2a6.33,6.33,0,0,1-.59,1c-.31.48-.67,1-1.09,1.55s-.85,1.06-1.28,1.53a5,5,0,0,1-1.11,1v3.63a6.86,6.86,0,0,0,1.1-.83C251.73,220.64,252.12,220.23,252.51,219.8Zm18,11.13c.38-.44.74-.87,1.06-1.3a6.4,6.4,0,0,0,.72-1.13v8.79l-3.57,2.06v3.51l10.2-5.89v-3.51l-3.19,1.85V222.25l-3.44,2a6.33,6.33,0,0,1-.59,1c-.31.48-.68,1-1.09,1.55s-.85,1.06-1.28,1.53a5.42,5.42,0,0,1-1.11,1V233a6.43,6.43,0,0,0,1.09-.83C269.71,231.77,270.11,231.36,270.5,230.93Zm-18-34.62c.38-.43.74-.86,1.07-1.29a6.89,6.89,0,0,0,.71-1.13v8.79l-3.57,2.06v3.51l10.2-5.89v-3.51l-3.19,1.84V187.64l-3.44,2a6.33,6.33,0,0,1-.59,1.05c-.31.48-.67,1-1.09,1.55s-.85,1.06-1.28,1.53a5,5,0,0,1-1.11,1v3.63a6.86,6.86,0,0,0,1.1-.83C251.73,197.15,252.12,196.75,252.51,196.31Zm0,47c.38-.43.74-.87,1.07-1.3a6.86,6.86,0,0,0,.71-1.12v8.78l-3.57,2.06v3.52l10.2-5.89v-3.51l-3.19,1.84v-13l-3.44,2a5.61,5.61,0,0,1-.59,1c-.31.48-.67,1-1.09,1.55s-.85,1.06-1.28,1.54a5.63,5.63,0,0,1-1.11,1v3.62a6.86,6.86,0,0,0,1.1-.83C251.73,244.12,252.12,243.71,252.51,243.28Zm169,44.61a3.14,3.14,0,0,0-2.06-.65,5.38,5.38,0,0,0-2.58.82,10.24,10.24,0,0,0-2.59,2.16,15.68,15.68,0,0,0-2,3,17.21,17.21,0,0,0-1.36,3.57,15,15,0,0,0-.49,3.81,9.36,9.36,0,0,0,.49,3.24,4.41,4.41,0,0,0,1.36,2,3.1,3.1,0,0,0,2,.65,5.47,5.47,0,0,0,2.59-.85,10.6,10.6,0,0,0,2.58-2.13,15,15,0,0,0,2.06-3,16.64,16.64,0,0,0,1.35-3.57,15,15,0,0,0,.49-3.8,9.38,9.38,0,0,0-.49-3.25A4.32,4.32,0,0,0,421.54,287.89Zm-1.77,9.45a9.75,9.75,0,0,1-.65,2,7.25,7.25,0,0,1-1,1.64,4.42,4.42,0,0,1-1.25,1.1,2.14,2.14,0,0,1-1.27.35,1.46,1.46,0,0,1-1-.51,3.13,3.13,0,0,1-.64-1.28,7.62,7.62,0,0,1-.22-2,11.35,11.35,0,0,1,.22-2.27,10.57,10.57,0,0,1,.64-2,7.58,7.58,0,0,1,1-1.63,4.56,4.56,0,0,1,1.27-1.11,2,2,0,0,1,1.25-.34,1.44,1.44,0,0,1,1,.5,3.11,3.11,0,0,1,.65,1.3,7.84,7.84,0,0,1,.22,2A11,11,0,0,1,419.77,297.34ZM260,258.56a3.14,3.14,0,0,0-2.06-.65,5.27,5.27,0,0,0-2.58.82,10.24,10.24,0,0,0-2.59,2.16,15.42,15.42,0,0,0-2,3,17.77,17.77,0,0,0-1.35,3.57,15,15,0,0,0-.49,3.81,9.36,9.36,0,0,0,.49,3.24,4.48,4.48,0,0,0,1.35,2,3.12,3.12,0,0,0,2,.64,5.45,5.45,0,0,0,2.59-.84,10.42,10.42,0,0,0,2.58-2.14,15,15,0,0,0,2.06-3,17.19,17.19,0,0,0,1.35-3.57,15,15,0,0,0,.49-3.81,9.36,9.36,0,0,0-.49-3.24A4.4,4.4,0,0,0,260,258.56ZM258.18,268a9.74,9.74,0,0,1-.64,2,6.92,6.92,0,0,1-1,1.64,4.35,4.35,0,0,1-1.24,1.09,2.15,2.15,0,0,1-1.27.36,1.46,1.46,0,0,1-1-.51,3.13,3.13,0,0,1-.64-1.28,7.65,7.65,0,0,1-.22-2,11.32,11.32,0,0,1,.22-2.26,10.15,10.15,0,0,1,.64-2,7.91,7.91,0,0,1,1-1.64,4.72,4.72,0,0,1,1.27-1.11,2.16,2.16,0,0,1,1.24-.34,1.5,1.5,0,0,1,1,.51,3,3,0,0,1,.64,1.3,7.38,7.38,0,0,1,.23,2A10.48,10.48,0,0,1,258.18,268ZM260,282a3.14,3.14,0,0,0-2.06-.65,5.38,5.38,0,0,0-2.58.82,10.24,10.24,0,0,0-2.59,2.16,15.72,15.72,0,0,0-2,3,17.77,17.77,0,0,0-1.35,3.57,15,15,0,0,0-.49,3.81,9.36,9.36,0,0,0,.49,3.24,4.48,4.48,0,0,0,1.35,2,3.13,3.13,0,0,0,2,.65,5.58,5.58,0,0,0,2.59-.85,10.42,10.42,0,0,0,2.58-2.14,15,15,0,0,0,2.06-3,17.19,17.19,0,0,0,1.35-3.57,15,15,0,0,0,.49-3.81,9.36,9.36,0,0,0-.49-3.24A4.4,4.4,0,0,0,260,282Zm-1.78,9.45a9.74,9.74,0,0,1-.64,2,6.92,6.92,0,0,1-1,1.64,4.55,4.55,0,0,1-1.24,1.1,2.14,2.14,0,0,1-1.27.35,1.46,1.46,0,0,1-1-.51,3.13,3.13,0,0,1-.64-1.28,7.65,7.65,0,0,1-.22-2,11.32,11.32,0,0,1,.22-2.26,10.57,10.57,0,0,1,.64-2,7.58,7.58,0,0,1,1-1.63,4.6,4.6,0,0,1,1.27-1.12,2.16,2.16,0,0,1,1.24-.34,1.5,1.5,0,0,1,1,.51,3,3,0,0,1,.64,1.3,7.38,7.38,0,0,1,.23,2A10.48,10.48,0,0,1,258.18,291.49Zm163.36,19.88a3.19,3.19,0,0,0-2.06-.65,5.38,5.38,0,0,0-2.58.82,10.24,10.24,0,0,0-2.59,2.16,15.45,15.45,0,0,0-2,3,16.92,16.92,0,0,0-1.36,3.56,15,15,0,0,0-.49,3.81,9.29,9.29,0,0,0,.49,3.24,4.41,4.41,0,0,0,1.36,2,3.1,3.1,0,0,0,2,.65,5.56,5.56,0,0,0,2.59-.84,10.88,10.88,0,0,0,2.58-2.14,15,15,0,0,0,2.06-3,16.64,16.64,0,0,0,1.35-3.57,15,15,0,0,0,.49-3.8,9.38,9.38,0,0,0-.49-3.25A4.32,4.32,0,0,0,421.54,311.37Zm-1.77,9.45a9.75,9.75,0,0,1-.65,2,7.25,7.25,0,0,1-1,1.64,4.42,4.42,0,0,1-1.25,1.1,2.14,2.14,0,0,1-1.27.35,1.49,1.49,0,0,1-1-.5,3.25,3.25,0,0,1-.64-1.29,7.62,7.62,0,0,1-.22-2,11.35,11.35,0,0,1,.22-2.27,10.26,10.26,0,0,1,.64-2,7.42,7.42,0,0,1,1-1.64,4.56,4.56,0,0,1,1.27-1.11,2.12,2.12,0,0,1,1.25-.34,1.41,1.41,0,0,1,1,.51,3,3,0,0,1,.65,1.29,7.84,7.84,0,0,1,.22,2A11,11,0,0,1,419.77,320.82ZM260,376a3.2,3.2,0,0,0-2.06-.66,5.49,5.49,0,0,0-2.58.82,10.24,10.24,0,0,0-2.59,2.16,15.49,15.49,0,0,0-2,3,17.46,17.46,0,0,0-1.35,3.56,15.09,15.09,0,0,0-.49,3.81,9.29,9.29,0,0,0,.49,3.24,4.51,4.51,0,0,0,1.35,2,3.18,3.18,0,0,0,2,.64,5.56,5.56,0,0,0,2.59-.84,10.42,10.42,0,0,0,2.58-2.14,14.75,14.75,0,0,0,2.06-3,16.89,16.89,0,0,0,1.35-3.56,15.09,15.09,0,0,0,.49-3.81,9.29,9.29,0,0,0-.49-3.24A4.29,4.29,0,0,0,260,376Zm-1.78,9.45a9.93,9.93,0,0,1-.64,2,7.13,7.13,0,0,1-1,1.64,4.35,4.35,0,0,1-1.24,1.09,2.23,2.23,0,0,1-1.27.36,1.54,1.54,0,0,1-1-.51,3.2,3.2,0,0,1-.64-1.28,7.7,7.7,0,0,1-.22-2,11.25,11.25,0,0,1,.22-2.26,10.15,10.15,0,0,1,.64-2,7.66,7.66,0,0,1,1-1.64,4.56,4.56,0,0,1,1.27-1.11,2.09,2.09,0,0,1,1.24-.34,1.42,1.42,0,0,1,1,.51,3,3,0,0,1,.64,1.3,7.33,7.33,0,0,1,.23,2A10.48,10.48,0,0,1,258.18,385.42Zm19.76,1.68a3.18,3.18,0,0,0-2.06-.66,5.49,5.49,0,0,0-2.57.82,10.29,10.29,0,0,0-2.59,2.17,14.71,14.71,0,0,0-2.05,3,17,17,0,0,0-1.35,3.57,15,15,0,0,0-.49,3.8,9.29,9.29,0,0,0,.49,3.24,4.38,4.38,0,0,0,1.35,2,3.16,3.16,0,0,0,2.05.64,5.56,5.56,0,0,0,2.59-.84,10.2,10.2,0,0,0,2.57-2.14,14.36,14.36,0,0,0,2.06-3,16.92,16.92,0,0,0,1.36-3.56,15.49,15.49,0,0,0,.49-3.81,9.52,9.52,0,0,0-.49-3.24A4.36,4.36,0,0,0,277.94,387.1Zm-1.77,9.45a9.93,9.93,0,0,1-.64,2,7.5,7.5,0,0,1-1,1.64,4.35,4.35,0,0,1-1.24,1.09,2.23,2.23,0,0,1-1.27.36,1.48,1.48,0,0,1-1-.51,3,3,0,0,1-.64-1.28,7.67,7.67,0,0,1-.23-2,11.25,11.25,0,0,1,.23-2.26,9.55,9.55,0,0,1,.64-2,7.5,7.5,0,0,1,1-1.64,4.56,4.56,0,0,1,1.27-1.11,2.16,2.16,0,0,1,1.24-.34,1.44,1.44,0,0,1,1,.51,3,3,0,0,1,.64,1.3,7.75,7.75,0,0,1,.23,2A11.15,11.15,0,0,1,276.17,396.55ZM254.29,307a6.33,6.33,0,0,1-.59,1c-.31.48-.67,1-1.09,1.54s-.85,1.07-1.28,1.54a5.31,5.31,0,0,1-1.11,1v3.63a7,7,0,0,0,1.1-.84,15.16,15.16,0,0,0,1.19-1.21c.38-.43.74-.86,1.07-1.3a6.86,6.86,0,0,0,.71-1.12v8.79l-3.57,2.06v3.51l10.2-5.89v-3.51l-3.19,1.84V305.05ZM260,352.49a3.2,3.2,0,0,0-2.06-.66,5.49,5.49,0,0,0-2.58.82,10.24,10.24,0,0,0-2.59,2.16,15.49,15.49,0,0,0-2,3,17.46,17.46,0,0,0-1.35,3.56,15.09,15.09,0,0,0-.49,3.81,9.29,9.29,0,0,0,.49,3.24,4.42,4.42,0,0,0,1.35,2,3.13,3.13,0,0,0,2,.65,5.56,5.56,0,0,0,2.59-.84,10.65,10.65,0,0,0,2.58-2.14,15,15,0,0,0,2.06-3,17.19,17.19,0,0,0,1.35-3.57,15,15,0,0,0,.49-3.8,9.29,9.29,0,0,0-.49-3.24A4.29,4.29,0,0,0,260,352.49Zm-1.78,9.44a9.83,9.83,0,0,1-.64,2,7.13,7.13,0,0,1-1,1.64,4.51,4.51,0,0,1-1.24,1.09,2.23,2.23,0,0,1-1.27.36,1.54,1.54,0,0,1-1-.51,3.27,3.27,0,0,1-.64-1.28,7.7,7.7,0,0,1-.22-2,11.35,11.35,0,0,1,.22-2.27,10.26,10.26,0,0,1,.64-2,7.66,7.66,0,0,1,1-1.64,4.56,4.56,0,0,1,1.27-1.11,2.09,2.09,0,0,1,1.24-.34,1.42,1.42,0,0,1,1,.51,3,3,0,0,1,.64,1.29,7.46,7.46,0,0,1,.23,2A10.32,10.32,0,0,1,258.18,361.93Zm157.69-96a5.94,5.94,0,0,1-.59,1.06c-.31.47-.67,1-1.09,1.54s-.85,1.06-1.28,1.54a5.63,5.63,0,0,1-1.11,1v3.62a6.45,6.45,0,0,0,1.1-.83,15.16,15.16,0,0,0,1.19-1.21c.38-.43.74-.87,1.07-1.3a6.86,6.86,0,0,0,.71-1.12V279L412.31,281v3.51l10.2-5.89v-3.51L419.32,277V263.94ZM260,329a3.25,3.25,0,0,0-2.06-.65,5.49,5.49,0,0,0-2.58.82,10.24,10.24,0,0,0-2.59,2.16,15.49,15.49,0,0,0-2,3,17.46,17.46,0,0,0-1.35,3.56,15.09,15.09,0,0,0-.49,3.81,9.29,9.29,0,0,0,.49,3.24,4.42,4.42,0,0,0,1.35,2,3.13,3.13,0,0,0,2,.65,5.56,5.56,0,0,0,2.59-.84,10.65,10.65,0,0,0,2.58-2.14,15,15,0,0,0,2.06-3,17.19,17.19,0,0,0,1.35-3.57,15,15,0,0,0,.49-3.8,9.29,9.29,0,0,0-.49-3.24A4.38,4.38,0,0,0,260,329Zm-1.78,9.45a9.83,9.83,0,0,1-.64,2,6.85,6.85,0,0,1-1,1.63,4.39,4.39,0,0,1-1.24,1.1,2.14,2.14,0,0,1-1.27.35,1.49,1.49,0,0,1-1-.5,3.25,3.25,0,0,1-.64-1.29,7.62,7.62,0,0,1-.22-2,11.35,11.35,0,0,1,.22-2.27,10.26,10.26,0,0,1,.64-2,7.66,7.66,0,0,1,1-1.64,4.56,4.56,0,0,1,1.27-1.11,2.09,2.09,0,0,1,1.24-.34,1.42,1.42,0,0,1,1,.51,3,3,0,0,1,.64,1.29,7.41,7.41,0,0,1,.23,2A10.32,10.32,0,0,1,258.18,338.45Zm85.37-171.22c.39-.43.74-.87,1.07-1.3a6.37,6.37,0,0,0,.72-1.12v8.79l-3.57,2.06v3.51l10.2-5.89v-3.51l-3.19,1.84V158.56l-3.44,2a7.19,7.19,0,0,1-.59,1c-.31.48-.68,1-1.1,1.54s-.84,1.07-1.28,1.54a5.07,5.07,0,0,1-1.1,1v3.63a7,7,0,0,0,1.09-.84A13.63,13.63,0,0,0,343.55,167.23Zm36.15-53.49c.38-.44.74-.87,1.07-1.3a6.89,6.89,0,0,0,.71-1.13v8.79l-3.57,2.06v3.51l10.2-5.89v-3.51l-3.19,1.85V105.06l-3.44,2a6.33,6.33,0,0,1-.59,1c-.31.48-.67,1-1.09,1.55s-.85,1.06-1.28,1.53a5,5,0,0,1-1.11,1v3.63a6.86,6.86,0,0,0,1.1-.83C378.92,114.58,379.31,114.17,379.7,113.74Zm0,23.48c.38-.44.74-.87,1.07-1.3a6.86,6.86,0,0,0,.71-1.12v8.78l-3.57,2.06v3.51l10.2-5.89v-3.51l-3.19,1.85v-13l-3.44,2a6.33,6.33,0,0,1-.59,1.05c-.31.48-.67,1-1.09,1.55s-.85,1.06-1.28,1.53a5.42,5.42,0,0,1-1.11,1v3.62a6.86,6.86,0,0,0,1.1-.83C378.92,138.06,379.31,137.65,379.7,137.22ZM398,150.76c.39-.44.74-.87,1.07-1.3a7.8,7.8,0,0,0,.72-1.12v8.78l-3.57,2.06v3.52l10.2-5.89V153.3l-3.19,1.84v-13l-3.44,2a6.53,6.53,0,0,1-.6,1.05c-.31.48-.67,1-1.09,1.55s-.85,1.06-1.28,1.54a5.63,5.63,0,0,1-1.1,1v3.62a6.85,6.85,0,0,0,1.09-.83C397.19,151.6,397.58,151.19,398,150.76Zm0,23.48c.39-.43.74-.86,1.07-1.3a7.8,7.8,0,0,0,.72-1.12v8.79l-3.57,2.06v3.51l10.2-5.89v-3.51l-3.19,1.84V165.57l-3.44,2a7.53,7.53,0,0,1-.6,1.05c-.31.48-.67,1-1.09,1.54s-.85,1.07-1.28,1.54a5.31,5.31,0,0,1-1.1,1v3.63a7,7,0,0,0,1.09-.84A15.16,15.16,0,0,0,398,174.24Zm-36.43-19.36c.39-.43.74-.87,1.07-1.3a7,7,0,0,0,.72-1.12v8.79l-3.57,2.06v3.51l10.2-5.89v-3.51l-3.19,1.84v-13l-3.44,2a7.53,7.53,0,0,1-.6,1.05c-.31.48-.67,1-1.09,1.54s-.85,1.07-1.28,1.54a5.07,5.07,0,0,1-1.11,1v3.63a7.17,7.17,0,0,0,1.1-.84A15.16,15.16,0,0,0,361.54,154.88Zm18.16,5.82c.38-.43.74-.87,1.07-1.3a6.86,6.86,0,0,0,.71-1.12v8.79l-3.57,2.06v3.51l10.2-5.89v-3.51l-3.19,1.84V152l-3.44,2a5.94,5.94,0,0,1-.59,1.06c-.31.48-.67,1-1.09,1.54s-.85,1.07-1.28,1.54a5.63,5.63,0,0,1-1.11,1v3.63a7.69,7.69,0,0,0,1.1-.84A15.16,15.16,0,0,0,379.7,160.7Zm34.39,41.47c.38-.44.74-.87,1.07-1.3a6.89,6.89,0,0,0,.71-1.13v8.79l-3.56,2.06v3.51l10.2-5.89V204.7l-3.19,1.85V193.49l-3.45,2a6.33,6.33,0,0,1-.59,1.05c-.31.48-.67,1-1.09,1.55s-.85,1.06-1.28,1.53a5,5,0,0,1-1.11,1v3.63a6.45,6.45,0,0,0,1.1-.83C413.31,203,413.7,202.6,414.09,202.17ZM398,127.28c.39-.44.74-.87,1.07-1.3a7.8,7.8,0,0,0,.72-1.12v8.78l-3.57,2.06v3.51l10.2-5.88v-3.52l-3.19,1.85v-13l-3.44,2a7.53,7.53,0,0,1-.6,1c-.31.48-.67,1-1.09,1.55s-.85,1.06-1.28,1.54a5.63,5.63,0,0,1-1.1,1v3.62a6.85,6.85,0,0,0,1.09-.83C397.19,128.12,397.58,127.71,398,127.28Zm16.12,27.92c.38-.43.74-.86,1.07-1.3a6.86,6.86,0,0,0,.71-1.12v8.79l-3.56,2.06v3.51l10.2-5.89v-3.51l-3.19,1.84V146.53l-3.45,2a6.33,6.33,0,0,1-.59,1c-.31.48-.67,1-1.09,1.54s-.85,1.07-1.28,1.54a5.31,5.31,0,0,1-1.11,1v3.63a6.07,6.07,0,0,0,1.1-.84A15.16,15.16,0,0,0,414.09,155.2Zm0,23.48c.38-.43.74-.86,1.07-1.3a6.46,6.46,0,0,0,.71-1.12v8.79l-3.56,2.06v3.51l10.2-5.89v-3.51l-3.19,1.84V170l-3.45,2a6.33,6.33,0,0,1-.59,1.05c-.31.48-.67,1-1.09,1.54s-.85,1.07-1.28,1.54a5.31,5.31,0,0,1-1.11,1v3.63a6.07,6.07,0,0,0,1.1-.84A15.16,15.16,0,0,0,414.09,178.68Zm-52.55-.32c.39-.43.74-.86,1.07-1.3a7,7,0,0,0,.72-1.12v8.79l-3.57,2.06v3.51l10.2-5.89V180.9l-3.19,1.84V169.69l-3.44,2a7.53,7.53,0,0,1-.6,1c-.31.48-.67,1-1.09,1.54s-.85,1.07-1.28,1.54a5.07,5.07,0,0,1-1.11,1v3.63a6.58,6.58,0,0,0,1.1-.84A15.16,15.16,0,0,0,361.54,178.36Zm50.73,57.06a3.09,3.09,0,0,0,2,.64,5.56,5.56,0,0,0,2.59-.84,10.42,10.42,0,0,0,2.58-2.14,14.75,14.75,0,0,0,2.06-3,16.36,16.36,0,0,0,1.35-3.56,15,15,0,0,0,.49-3.81,9.29,9.29,0,0,0-.49-3.24,4.27,4.27,0,0,0-1.35-2,3.2,3.2,0,0,0-2.06-.66,5.49,5.49,0,0,0-2.58.82,10.5,10.5,0,0,0-2.59,2.17,15.09,15.09,0,0,0-2,3,17,17,0,0,0-1.36,3.57,15,15,0,0,0-.49,3.8,9.29,9.29,0,0,0,.49,3.24A4.39,4.39,0,0,0,412.27,235.42ZM414,226a10.15,10.15,0,0,1,.64-2,7.91,7.91,0,0,1,1-1.64,4.56,4.56,0,0,1,1.27-1.11,2.19,2.19,0,0,1,1.25-.34,1.41,1.41,0,0,1,1,.51,3,3,0,0,1,.65,1.3,7.78,7.78,0,0,1,.22,2,11.15,11.15,0,0,1-.22,2.25,9.75,9.75,0,0,1-.65,2,7.47,7.47,0,0,1-1,1.64,4.38,4.38,0,0,1-1.25,1.09,2.23,2.23,0,0,1-1.27.36,1.5,1.5,0,0,1-1-.51,3.13,3.13,0,0,1-.64-1.28,7.7,7.7,0,0,1-.22-2A11.25,11.25,0,0,1,414,226Zm-107.08.84c.38-.44.74-.87,1.06-1.3a6.4,6.4,0,0,0,.72-1.13v8.79l-3.57,2.06v3.51l10.2-5.89v-3.51l-3.19,1.85V218.13l-3.44,2a6.33,6.33,0,0,1-.59,1c-.31.48-.68,1-1.09,1.55s-.85,1.06-1.28,1.53a5,5,0,0,1-1.11,1v3.63a6.43,6.43,0,0,0,1.09-.83C306.14,227.65,306.54,227.24,306.93,226.81Zm0-23.49c.38-.43.74-.86,1.06-1.3a6,6,0,0,0,.72-1.12v8.79l-3.57,2.06v3.51l10.2-5.89v-3.51l-3.19,1.84v-13l-3.44,2a6.33,6.33,0,0,1-.59,1.05c-.31.48-.68,1-1.09,1.54s-.85,1.07-1.28,1.54a5.31,5.31,0,0,1-1.11,1v3.63a6.05,6.05,0,0,0,1.09-.84A15.25,15.25,0,0,0,306.93,203.32Zm54.61-1.48c.39-.43.74-.86,1.07-1.29a7,7,0,0,0,.72-1.13v8.79l-3.57,2.06v3.51l10.2-5.89v-3.51l-3.19,1.84V193.17l-3.44,2a7.53,7.53,0,0,1-.6,1.05c-.31.48-.67,1-1.09,1.55s-.85,1.06-1.28,1.53a4.81,4.81,0,0,1-1.11,1v3.63a6.07,6.07,0,0,0,1.1-.84A15.16,15.16,0,0,0,361.54,201.84Zm-72.89,11.42c.39-.43.74-.86,1.07-1.29a6.4,6.4,0,0,0,.72-1.13v8.79l-3.57,2.06v3.51l10.2-5.89V215.8l-3.19,1.84v-13l-3.44,2a7.19,7.19,0,0,1-.59,1c-.31.48-.68,1-1.1,1.55a19.9,19.9,0,0,1-1.28,1.53,4.8,4.8,0,0,1-1.1,1v3.63a6.42,6.42,0,0,0,1.09-.84A13.63,13.63,0,0,0,288.65,213.26Zm0-47c.39-.43.74-.87,1.07-1.3a6.37,6.37,0,0,0,.72-1.12v8.79l-3.57,2.06v3.51l10.2-5.89v-3.51l-3.19,1.84V157.63l-3.44,2a7.19,7.19,0,0,1-.59,1c-.31.48-.68,1-1.1,1.54s-.84,1.07-1.28,1.54a5.07,5.07,0,0,1-1.1,1v3.63a7,7,0,0,0,1.09-.84A13.63,13.63,0,0,0,288.65,166.3Zm0,23.48c.39-.43.74-.86,1.07-1.3a6.37,6.37,0,0,0,.72-1.12v8.79l-3.57,2.06v3.51l10.2-5.89v-3.51l-3.19,1.84v-13l-3.44,2a7.19,7.19,0,0,1-.59,1.05c-.31.48-.68,1-1.1,1.54s-.84,1.07-1.28,1.54a5.07,5.07,0,0,1-1.1,1v3.63a7,7,0,0,0,1.09-.84A13.63,13.63,0,0,0,288.65,189.78Zm34.4,64.95c.38-.43.74-.87,1.06-1.3a6.37,6.37,0,0,0,.72-1.12v8.79l-3.57,2.06v3.51l10.2-5.89v-3.51l-3.19,1.84V246.06l-3.44,2a6.33,6.33,0,0,1-.59,1c-.31.48-.68,1-1.1,1.54s-.84,1.07-1.27,1.54a5.31,5.31,0,0,1-1.11,1v3.63a6.56,6.56,0,0,0,1.09-.84A15.25,15.25,0,0,0,323.05,254.73Zm-16.12-74.89c.38-.43.74-.86,1.06-1.3a6.37,6.37,0,0,0,.72-1.12v8.79l-3.57,2.06v3.51l10.2-5.89v-3.51l-3.19,1.84V171.17l-3.44,2a6.33,6.33,0,0,1-.59,1.05c-.31.48-.68,1-1.09,1.54s-.85,1.07-1.28,1.54a5.31,5.31,0,0,1-1.11,1v3.63a6.56,6.56,0,0,0,1.09-.84A15.25,15.25,0,0,0,306.93,179.84Zm-29,183.78a3.18,3.18,0,0,0-2.06-.66,5.49,5.49,0,0,0-2.57.82,10.24,10.24,0,0,0-2.59,2.16,15.06,15.06,0,0,0-2.05,3,16.89,16.89,0,0,0-1.35,3.56,15.09,15.09,0,0,0-.49,3.81,9.29,9.29,0,0,0,.49,3.24,4.43,4.43,0,0,0,1.35,2,3.16,3.16,0,0,0,2.05.64,5.56,5.56,0,0,0,2.59-.84,10.2,10.2,0,0,0,2.57-2.14,14.36,14.36,0,0,0,2.06-3,17,17,0,0,0,1.36-3.57,15.42,15.42,0,0,0,.49-3.8,9.52,9.52,0,0,0-.49-3.24A4.31,4.31,0,0,0,277.94,363.62Zm-1.77,9.45a9.93,9.93,0,0,1-.64,2,7.5,7.5,0,0,1-1,1.64,4.51,4.51,0,0,1-1.24,1.09,2.23,2.23,0,0,1-1.27.36,1.52,1.52,0,0,1-1-.51,3.07,3.07,0,0,1-.64-1.28,7.67,7.67,0,0,1-.23-2,11.25,11.25,0,0,1,.23-2.26,9.55,9.55,0,0,1,.64-2,7.27,7.27,0,0,1,1-1.64,4.56,4.56,0,0,1,1.27-1.11,2.09,2.09,0,0,1,1.24-.34,1.44,1.44,0,0,1,1,.51,3,3,0,0,1,.64,1.29,7.88,7.88,0,0,1,.23,2A11.15,11.15,0,0,1,276.17,373.07Zm67.38-229.32c.39-.43.74-.87,1.07-1.3a6.37,6.37,0,0,0,.72-1.12v8.79l-3.57,2.06v3.51L352,149.8v-3.51l-3.19,1.84v-13l-3.44,2a6.68,6.68,0,0,1-.59,1.06c-.31.48-.68,1-1.1,1.54s-.84,1.07-1.28,1.54a5.07,5.07,0,0,1-1.1,1v3.63a7.68,7.68,0,0,0,1.09-.84A13.63,13.63,0,0,0,343.55,143.75Zm0,47c.39-.43.74-.86,1.07-1.29a6.4,6.4,0,0,0,.72-1.13v8.79l-3.57,2.06v3.51l10.2-5.89v-3.51l-3.19,1.84V182l-3.44,2a7.19,7.19,0,0,1-.59,1.05c-.31.48-.68,1-1.1,1.55a19.9,19.9,0,0,1-1.28,1.53,4.8,4.8,0,0,1-1.1,1v3.63a6.42,6.42,0,0,0,1.09-.84A13.63,13.63,0,0,0,343.55,190.71Zm-20.5,40.54c.38-.44.74-.87,1.06-1.3a6.37,6.37,0,0,0,.72-1.12v8.78l-3.57,2.06v3.52l10.2-5.89v-3.51l-3.19,1.84v-13l-3.44,2a6,6,0,0,1-.59,1.05c-.31.48-.68,1-1.1,1.55s-.84,1.06-1.27,1.54a5.63,5.63,0,0,1-1.11,1v3.62a6.43,6.43,0,0,0,1.09-.83C322.26,232.09,322.66,231.68,323.05,231.25Zm0-23.48c.38-.44.74-.87,1.06-1.3a6.37,6.37,0,0,0,.72-1.12v8.78l-3.57,2.06v3.51l10.2-5.88V210.3l-3.19,1.85V199.09l-3.44,2a6.33,6.33,0,0,1-.59,1c-.31.48-.68,1-1.1,1.55a19.83,19.83,0,0,1-1.27,1.53,5.42,5.42,0,0,1-1.11,1v3.62a6.43,6.43,0,0,0,1.09-.83C322.26,208.61,322.66,208.2,323.05,207.77Zm40.28,57.83a7.53,7.53,0,0,1-.6,1c-.31.48-.67,1-1.09,1.55s-.85,1.06-1.28,1.53a5.17,5.17,0,0,1-1.11,1v3.62a6.45,6.45,0,0,0,1.1-.83c.41-.37.8-.78,1.19-1.21s.74-.87,1.07-1.3a7,7,0,0,0,.72-1.12v8.78l-3.57,2.06v3.51l10.2-5.88v-3.52l-3.19,1.85V263.62ZM351,299.92a3.12,3.12,0,0,0-2.06-.65,5.34,5.34,0,0,0-2.57.82,10.07,10.07,0,0,0-2.59,2.16,15.28,15.28,0,0,0-2,3,16.64,16.64,0,0,0-1.35,3.57,15,15,0,0,0-.5,3.81,9.35,9.35,0,0,0,.5,3.24,4.32,4.32,0,0,0,1.35,2,3.16,3.16,0,0,0,2,.65,5.62,5.62,0,0,0,2.59-.85,10.38,10.38,0,0,0,2.57-2.14,14.56,14.56,0,0,0,2.06-3,17.21,17.21,0,0,0,1.36-3.57,15.43,15.43,0,0,0,.49-3.81,9.61,9.61,0,0,0-.49-3.24A4.41,4.41,0,0,0,351,299.92Zm-1.77,9.45a9.74,9.74,0,0,1-.64,2,7.27,7.27,0,0,1-1,1.64,4.7,4.7,0,0,1-1.24,1.1,2.15,2.15,0,0,1-1.27.35,1.42,1.42,0,0,1-1-.51,3,3,0,0,1-.64-1.28,7.21,7.21,0,0,1-.23-2,10.63,10.63,0,0,1,.23-2.26,9.92,9.92,0,0,1,.64-2,7.13,7.13,0,0,1,1-1.64,4.58,4.58,0,0,1,1.27-1.11,2.14,2.14,0,0,1,1.24-.34,1.52,1.52,0,0,1,1,.51,3,3,0,0,1,.64,1.3,7.84,7.84,0,0,1,.22,2A11.15,11.15,0,0,1,349.23,309.37ZM387.15,176a3.14,3.14,0,0,0-2.06-.65,5.38,5.38,0,0,0-2.58.82,10.24,10.24,0,0,0-2.59,2.16,15.28,15.28,0,0,0-2.05,3,17.77,17.77,0,0,0-1.35,3.57,15,15,0,0,0-.49,3.81,9.36,9.36,0,0,0,.49,3.24,4.48,4.48,0,0,0,1.35,2,3.11,3.11,0,0,0,2.05.65,5.47,5.47,0,0,0,2.59-.85,10.42,10.42,0,0,0,2.58-2.14,14.68,14.68,0,0,0,2.06-3A17.19,17.19,0,0,0,388.5,185a15,15,0,0,0,.49-3.81,9.36,9.36,0,0,0-.49-3.24A4.4,4.4,0,0,0,387.15,176Zm-1.78,9.45a9.74,9.74,0,0,1-.64,2,6.92,6.92,0,0,1-1,1.64,4.55,4.55,0,0,1-1.24,1.1,2.14,2.14,0,0,1-1.27.35,1.46,1.46,0,0,1-1-.51,3.13,3.13,0,0,1-.64-1.28,7.65,7.65,0,0,1-.22-2,11.32,11.32,0,0,1,.22-2.26,10.57,10.57,0,0,1,.64-2,7.58,7.58,0,0,1,1-1.63,4.56,4.56,0,0,1,1.27-1.11,2,2,0,0,1,1.24-.34,1.44,1.44,0,0,1,1,.5,3.1,3.1,0,0,1,.64,1.3,7.38,7.38,0,0,1,.23,2A10.41,10.41,0,0,1,385.37,185.43Zm-3.89,39a6.33,6.33,0,0,1-.59,1c-.31.48-.67,1-1.09,1.54s-.85,1.07-1.28,1.54a5.31,5.31,0,0,1-1.11,1v3.63a6.44,6.44,0,0,0,1.1-.84,15.16,15.16,0,0,0,1.19-1.21c.38-.43.74-.86,1.07-1.3a6.86,6.86,0,0,0,.71-1.12v8.79l-3.57,2.06v3.51l10.2-5.89v-3.51l-3.19,1.84V222.47Zm5.67,22a3.2,3.2,0,0,0-2.06-.66,5.49,5.49,0,0,0-2.58.82,10.24,10.24,0,0,0-2.59,2.16,15.06,15.06,0,0,0-2.05,3,17.46,17.46,0,0,0-1.35,3.56,15.09,15.09,0,0,0-.49,3.81,9.29,9.29,0,0,0,.49,3.24,4.42,4.42,0,0,0,1.35,2,3.11,3.11,0,0,0,2.05.65,5.56,5.56,0,0,0,2.59-.84,10.42,10.42,0,0,0,2.58-2.14,14.75,14.75,0,0,0,2.06-3,17.19,17.19,0,0,0,1.35-3.57,15,15,0,0,0,.49-3.8,9.29,9.29,0,0,0-.49-3.24A4.29,4.29,0,0,0,387.15,246.43Zm-1.78,9.45a9.93,9.93,0,0,1-.64,2,7.13,7.13,0,0,1-1,1.64,4.51,4.51,0,0,1-1.24,1.09,2.23,2.23,0,0,1-1.27.36,1.54,1.54,0,0,1-1-.51,3.2,3.2,0,0,1-.64-1.28,7.7,7.7,0,0,1-.22-2,11.18,11.18,0,0,1,.22-2.26,10.15,10.15,0,0,1,.64-2,7.66,7.66,0,0,1,1-1.64,4.56,4.56,0,0,1,1.27-1.11,2.09,2.09,0,0,1,1.24-.34,1.42,1.42,0,0,1,1,.51,3,3,0,0,1,.64,1.29,7.46,7.46,0,0,1,.23,2A10.48,10.48,0,0,1,385.37,255.88ZM351,323.4a3.12,3.12,0,0,0-2.06-.65,5.34,5.34,0,0,0-2.57.82,10.07,10.07,0,0,0-2.59,2.16,15.28,15.28,0,0,0-2,3,16.64,16.64,0,0,0-1.35,3.57,15,15,0,0,0-.5,3.81,9.35,9.35,0,0,0,.5,3.24,4.32,4.32,0,0,0,1.35,2,3.11,3.11,0,0,0,2,.65,5.5,5.5,0,0,0,2.59-.85,10.56,10.56,0,0,0,2.57-2.13,14.63,14.63,0,0,0,2.06-3,17.21,17.21,0,0,0,1.36-3.57,15.43,15.43,0,0,0,.49-3.81,9.61,9.61,0,0,0-.49-3.24A4.41,4.41,0,0,0,351,323.4Zm-1.77,9.45a9.74,9.74,0,0,1-.64,2,7.27,7.27,0,0,1-1,1.64,4.53,4.53,0,0,1-1.24,1.1,2.15,2.15,0,0,1-1.27.35,1.42,1.42,0,0,1-1-.51,3,3,0,0,1-.64-1.28,7.18,7.18,0,0,1-.23-2,10.66,10.66,0,0,1,.23-2.27,9.92,9.92,0,0,1,.64-2,6.85,6.85,0,0,1,1-1.63,4.42,4.42,0,0,1,1.27-1.11,2,2,0,0,1,1.24-.34,1.46,1.46,0,0,1,1,.5,3.1,3.1,0,0,1,.64,1.3,7.84,7.84,0,0,1,.22,2A11.08,11.08,0,0,1,349.23,332.85ZM330.49,270a3.12,3.12,0,0,0-2.06-.65,5.37,5.37,0,0,0-2.57.82,10.24,10.24,0,0,0-2.59,2.16,15.28,15.28,0,0,0-2,3,17.19,17.19,0,0,0-1.35,3.57,15,15,0,0,0-.49,3.81,9.36,9.36,0,0,0,.49,3.24,4.4,4.4,0,0,0,1.35,2,3.11,3.11,0,0,0,2,.65,5.47,5.47,0,0,0,2.59-.85,10.37,10.37,0,0,0,2.57-2.13,14.63,14.63,0,0,0,2.06-3,17.21,17.21,0,0,0,1.36-3.57,15.43,15.43,0,0,0,.49-3.81,9.61,9.61,0,0,0-.49-3.24A4.41,4.41,0,0,0,330.49,270Zm-1.77,9.45a9.74,9.74,0,0,1-.64,2,7.27,7.27,0,0,1-1,1.64,4.39,4.39,0,0,1-1.24,1.1,2.14,2.14,0,0,1-1.27.35,1.44,1.44,0,0,1-1-.51,3,3,0,0,1-.64-1.28,7.58,7.58,0,0,1-.23-2,11.35,11.35,0,0,1,.23-2.27,9.92,9.92,0,0,1,.64-2,7.19,7.19,0,0,1,1-1.63,4.56,4.56,0,0,1,1.27-1.11,2,2,0,0,1,1.24-.34,1.46,1.46,0,0,1,1,.5,3.1,3.1,0,0,1,.64,1.3,7.8,7.8,0,0,1,.23,2A11,11,0,0,1,328.72,279.46Zm1.77,108a3.12,3.12,0,0,0-2.06-.65,5.27,5.27,0,0,0-2.57.82,10.24,10.24,0,0,0-2.59,2.16,15,15,0,0,0-2,3,17.19,17.19,0,0,0-1.35,3.57,15,15,0,0,0-.49,3.81,9.26,9.26,0,0,0,.49,3.23,4.38,4.38,0,0,0,1.35,2,3.1,3.1,0,0,0,2,.64,5.45,5.45,0,0,0,2.59-.84,10.2,10.2,0,0,0,2.57-2.14,14.36,14.36,0,0,0,2.06-3,16.92,16.92,0,0,0,1.36-3.56,15.43,15.43,0,0,0,.49-3.81,9.52,9.52,0,0,0-.49-3.24A4.36,4.36,0,0,0,330.49,387.42Zm-1.77,9.45a9.74,9.74,0,0,1-.64,2,7.5,7.5,0,0,1-1,1.64,4.35,4.35,0,0,1-1.24,1.09,2.15,2.15,0,0,1-1.27.36,1.44,1.44,0,0,1-1-.51,3,3,0,0,1-.64-1.28,7.67,7.67,0,0,1-.23-2,11.33,11.33,0,0,1,.23-2.26,9.55,9.55,0,0,1,.64-2,7.5,7.5,0,0,1,1-1.64,4.56,4.56,0,0,1,1.27-1.11,2.16,2.16,0,0,1,1.24-.34,1.44,1.44,0,0,1,1,.51,3,3,0,0,1,.64,1.3,7.8,7.8,0,0,1,.23,2A11.15,11.15,0,0,1,328.72,396.87Zm1.77-32.93a3.12,3.12,0,0,0-2.06-.65,5.35,5.35,0,0,0-2.57.81,10.5,10.5,0,0,0-2.59,2.17,15,15,0,0,0-2,3,17.19,17.19,0,0,0-1.35,3.57,15,15,0,0,0-.49,3.8,9.29,9.29,0,0,0,.49,3.24,4.38,4.38,0,0,0,1.35,2,3.1,3.1,0,0,0,2,.64,5.56,5.56,0,0,0,2.59-.84,10.2,10.2,0,0,0,2.57-2.14,14.36,14.36,0,0,0,2.06-3,16.92,16.92,0,0,0,1.36-3.56,15.43,15.43,0,0,0,.49-3.81,9.52,9.52,0,0,0-.49-3.24A4.36,4.36,0,0,0,330.49,363.94Zm-1.77,9.45a9.74,9.74,0,0,1-.64,2,7.5,7.5,0,0,1-1,1.64,4.35,4.35,0,0,1-1.24,1.09,2.23,2.23,0,0,1-1.27.36,1.48,1.48,0,0,1-1-.51,3,3,0,0,1-.64-1.28,7.67,7.67,0,0,1-.23-2,11.25,11.25,0,0,1,.23-2.26,9.55,9.55,0,0,1,.64-2,7.5,7.5,0,0,1,1-1.64,4.56,4.56,0,0,1,1.27-1.11,2.16,2.16,0,0,1,1.24-.34,1.44,1.44,0,0,1,1,.51,3,3,0,0,1,.64,1.3,7.75,7.75,0,0,1,.23,2A11.15,11.15,0,0,1,328.72,373.39Zm1.77-32.93a3.18,3.18,0,0,0-2.06-.66,5.49,5.49,0,0,0-2.57.82,10.45,10.45,0,0,0-2.59,2.16,15.06,15.06,0,0,0-2,3,16.89,16.89,0,0,0-1.35,3.56,15.09,15.09,0,0,0-.49,3.81,9.29,9.29,0,0,0,.49,3.24,4.43,4.43,0,0,0,1.35,2,3.16,3.16,0,0,0,2,.64,5.56,5.56,0,0,0,2.59-.84,10.2,10.2,0,0,0,2.57-2.14,14.36,14.36,0,0,0,2.06-3,16.92,16.92,0,0,0,1.36-3.56,15.43,15.43,0,0,0,.49-3.81,9.52,9.52,0,0,0-.49-3.24A4.36,4.36,0,0,0,330.49,340.46Zm-1.77,9.45a9.93,9.93,0,0,1-.64,2,7.5,7.5,0,0,1-1,1.64,4.35,4.35,0,0,1-1.24,1.09,2.23,2.23,0,0,1-1.27.36,1.48,1.48,0,0,1-1-.51,3,3,0,0,1-.64-1.28,7.67,7.67,0,0,1-.23-2A11.25,11.25,0,0,1,323,349a9.55,9.55,0,0,1,.64-2,7.5,7.5,0,0,1,1-1.64,4.56,4.56,0,0,1,1.27-1.11,2.09,2.09,0,0,1,1.24-.34,1.44,1.44,0,0,1,1,.51,3,3,0,0,1,.64,1.3,7.75,7.75,0,0,1,.23,2A11.15,11.15,0,0,1,328.72,349.91Zm58.43-150.45a3.14,3.14,0,0,0-2.06-.65,5.38,5.38,0,0,0-2.58.82,10.24,10.24,0,0,0-2.59,2.16,15.28,15.28,0,0,0-2.05,3,17.77,17.77,0,0,0-1.35,3.57,15,15,0,0,0-.49,3.81,9.36,9.36,0,0,0,.49,3.24,4.48,4.48,0,0,0,1.35,2,3.11,3.11,0,0,0,2.05.65,5.47,5.47,0,0,0,2.59-.85,10.6,10.6,0,0,0,2.58-2.13,15,15,0,0,0,2.06-3,17.19,17.19,0,0,0,1.35-3.57,15,15,0,0,0,.49-3.8,9.38,9.38,0,0,0-.49-3.25A4.4,4.4,0,0,0,387.15,199.46Zm-1.78,9.45a9.74,9.74,0,0,1-.64,2,6.92,6.92,0,0,1-1,1.64,4.39,4.39,0,0,1-1.24,1.1,2.14,2.14,0,0,1-1.27.35,1.46,1.46,0,0,1-1-.51,3.13,3.13,0,0,1-.64-1.28,7.62,7.62,0,0,1-.22-2,11.35,11.35,0,0,1,.22-2.27,10.57,10.57,0,0,1,.64-2,7.58,7.58,0,0,1,1-1.63,4.56,4.56,0,0,1,1.27-1.11,2,2,0,0,1,1.24-.34,1.44,1.44,0,0,1,1,.5,3.1,3.1,0,0,1,.64,1.3,7.38,7.38,0,0,1,.23,2A10.35,10.35,0,0,1,385.37,208.91ZM324.83,318.49a6.33,6.33,0,0,1-.59,1.05c-.31.48-.68,1-1.1,1.55a19.83,19.83,0,0,1-1.27,1.53,5,5,0,0,1-1.11,1v3.63a6.05,6.05,0,0,0,1.09-.84,15.25,15.25,0,0,0,1.2-1.21c.38-.43.74-.86,1.06-1.3a6,6,0,0,0,.72-1.12v8.79l-3.57,2.06v3.51l10.2-5.89v-3.51l-3.19,1.84V316.5Zm5.66-25a3.17,3.17,0,0,0-2.06-.65,5.37,5.37,0,0,0-2.57.82,10.24,10.24,0,0,0-2.59,2.16,15.06,15.06,0,0,0-2,3,16.89,16.89,0,0,0-1.35,3.56,15,15,0,0,0-.49,3.81,9.29,9.29,0,0,0,.49,3.24,4.4,4.4,0,0,0,1.35,2,3.11,3.11,0,0,0,2,.65,5.56,5.56,0,0,0,2.59-.84,10.64,10.64,0,0,0,2.57-2.14,14.63,14.63,0,0,0,2.06-3,17.21,17.21,0,0,0,1.36-3.57,15.42,15.42,0,0,0,.49-3.8,9.63,9.63,0,0,0-.49-3.25A4.41,4.41,0,0,0,330.49,293.49Zm-1.77,9.45a10,10,0,0,1-.64,2,7.42,7.42,0,0,1-1,1.63,4.39,4.39,0,0,1-1.24,1.1,2.14,2.14,0,0,1-1.27.35,1.46,1.46,0,0,1-1-.5,3.12,3.12,0,0,1-.64-1.29,7.58,7.58,0,0,1-.23-2A11.35,11.35,0,0,1,323,302a9.64,9.64,0,0,1,.64-2,7.05,7.05,0,0,1,1-1.64,4.56,4.56,0,0,1,1.27-1.11,2.09,2.09,0,0,1,1.24-.34,1.44,1.44,0,0,1,1,.51,3,3,0,0,1,.64,1.29,7.8,7.8,0,0,1,.23,2A11,11,0,0,1,328.72,302.94ZM369,217.13a3.2,3.2,0,0,0-2.06-.66,5.49,5.49,0,0,0-2.58.82,10.24,10.24,0,0,0-2.59,2.16,15.45,15.45,0,0,0-2,3,16.92,16.92,0,0,0-1.36,3.56,15.09,15.09,0,0,0-.49,3.81,9.29,9.29,0,0,0,.49,3.24,4.36,4.36,0,0,0,1.36,2,3.1,3.1,0,0,0,2,.65,5.56,5.56,0,0,0,2.59-.84,10.42,10.42,0,0,0,2.58-2.14,14.75,14.75,0,0,0,2.06-3,16.45,16.45,0,0,0,1.35-3.57,15,15,0,0,0,.49-3.8,9.29,9.29,0,0,0-.49-3.24A4.22,4.22,0,0,0,369,217.13Zm-1.77,9.45a9.94,9.94,0,0,1-.65,2,7.47,7.47,0,0,1-1,1.64,4.54,4.54,0,0,1-1.25,1.09,2.23,2.23,0,0,1-1.27.36,1.54,1.54,0,0,1-1-.51,3.41,3.41,0,0,1-.64-1.28,7.7,7.7,0,0,1-.22-2,11.35,11.35,0,0,1,.22-2.27,11,11,0,0,1,.64-2,7.66,7.66,0,0,1,1-1.64,4.56,4.56,0,0,1,1.27-1.11,2.12,2.12,0,0,1,1.25-.34,1.41,1.41,0,0,1,1,.51,3,3,0,0,1,.65,1.29,7.92,7.92,0,0,1,.22,2A11.15,11.15,0,0,1,367.22,226.58ZM369,311.05a3.14,3.14,0,0,0-2.06-.65,5.38,5.38,0,0,0-2.58.82,10.24,10.24,0,0,0-2.59,2.16,15.68,15.68,0,0,0-2,3,17.21,17.21,0,0,0-1.36,3.57,15,15,0,0,0-.49,3.81,9.36,9.36,0,0,0,.49,3.24,4.41,4.41,0,0,0,1.36,2,3.1,3.1,0,0,0,2,.65,5.47,5.47,0,0,0,2.59-.85,10.42,10.42,0,0,0,2.58-2.14,14.68,14.68,0,0,0,2.06-3,16.64,16.64,0,0,0,1.35-3.57,15,15,0,0,0,.49-3.81,9.36,9.36,0,0,0-.49-3.24A4.32,4.32,0,0,0,369,311.05Zm-1.77,9.45a9.75,9.75,0,0,1-.65,2,7.25,7.25,0,0,1-1,1.64,4.59,4.59,0,0,1-1.25,1.1,2.14,2.14,0,0,1-1.27.35,1.46,1.46,0,0,1-1-.51,3.26,3.26,0,0,1-.64-1.28,7.65,7.65,0,0,1-.22-2,10.67,10.67,0,0,1,.86-4.3,7.58,7.58,0,0,1,1-1.63,4.56,4.56,0,0,1,1.27-1.11,2,2,0,0,1,1.25-.34,1.44,1.44,0,0,1,1,.5,3.11,3.11,0,0,1,.65,1.3,7.84,7.84,0,0,1,.22,2A11.08,11.08,0,0,1,367.22,320.5ZM369,287.57a3.14,3.14,0,0,0-2.06-.65,5.27,5.27,0,0,0-2.58.82,10.24,10.24,0,0,0-2.59,2.16,15.38,15.38,0,0,0-2,3,17.21,17.21,0,0,0-1.36,3.57,15,15,0,0,0-.49,3.81,9.36,9.36,0,0,0,.49,3.24,4.41,4.41,0,0,0,1.36,2,3.09,3.09,0,0,0,2,.64,5.45,5.45,0,0,0,2.59-.84,10.42,10.42,0,0,0,2.58-2.14,15,15,0,0,0,2.06-3,16.64,16.64,0,0,0,1.35-3.57,15,15,0,0,0,.49-3.81,9.36,9.36,0,0,0-.49-3.24A4.32,4.32,0,0,0,369,287.57ZM367.22,297a9.75,9.75,0,0,1-.65,2,7.25,7.25,0,0,1-1,1.64,4.38,4.38,0,0,1-1.25,1.09,2.15,2.15,0,0,1-1.27.36,1.46,1.46,0,0,1-1-.51,3.26,3.26,0,0,1-.64-1.28,7.65,7.65,0,0,1-.22-2,11.32,11.32,0,0,1,.22-2.26,11.07,11.07,0,0,1,.64-2,7.91,7.91,0,0,1,1-1.64,4.72,4.72,0,0,1,1.27-1.11,2.19,2.19,0,0,1,1.25-.34,1.5,1.5,0,0,1,1,.51,3,3,0,0,1,.65,1.3,7.84,7.84,0,0,1,.22,2A11.15,11.15,0,0,1,367.22,297ZM369,240.61a3.2,3.2,0,0,0-2.06-.66,5.49,5.49,0,0,0-2.58.82,10.45,10.45,0,0,0-2.59,2.16,15.45,15.45,0,0,0-2,3,16.92,16.92,0,0,0-1.36,3.56,15.09,15.09,0,0,0-.49,3.81,9.29,9.29,0,0,0,.49,3.24,4.39,4.39,0,0,0,1.36,2,3.15,3.15,0,0,0,2,.64,5.56,5.56,0,0,0,2.59-.84,10.42,10.42,0,0,0,2.58-2.14,14.75,14.75,0,0,0,2.06-3,16.36,16.36,0,0,0,1.35-3.56,15.09,15.09,0,0,0,.49-3.81,9.29,9.29,0,0,0-.49-3.24A4.27,4.27,0,0,0,369,240.61Zm-1.77,9.45a9.94,9.94,0,0,1-.65,2,7.47,7.47,0,0,1-1,1.64,4.38,4.38,0,0,1-1.25,1.09,2.23,2.23,0,0,1-1.27.36,1.54,1.54,0,0,1-1-.51,3.26,3.26,0,0,1-.64-1.28,7.7,7.7,0,0,1-.22-2,11.25,11.25,0,0,1,.22-2.26,10.83,10.83,0,0,1,.64-2,7.66,7.66,0,0,1,1-1.64,4.56,4.56,0,0,1,1.27-1.11,2.12,2.12,0,0,1,1.25-.34,1.41,1.41,0,0,1,1,.51,3,3,0,0,1,.65,1.3,7.78,7.78,0,0,1,.22,2A11.15,11.15,0,0,1,367.22,250.06ZM369,334.53a3.19,3.19,0,0,0-2.06-.65,5.38,5.38,0,0,0-2.58.82,10.24,10.24,0,0,0-2.59,2.16,15.68,15.68,0,0,0-2,3,17.21,17.21,0,0,0-1.36,3.57,15,15,0,0,0-.49,3.81,9.36,9.36,0,0,0,.49,3.24,4.41,4.41,0,0,0,1.36,2,3.1,3.1,0,0,0,2,.65,5.47,5.47,0,0,0,2.59-.85,10.6,10.6,0,0,0,2.58-2.13,15,15,0,0,0,2.06-3,16.64,16.64,0,0,0,1.35-3.57,15,15,0,0,0,.49-3.8,9.38,9.38,0,0,0-.49-3.25A4.32,4.32,0,0,0,369,334.53ZM367.22,344a9.75,9.75,0,0,1-.65,2,7.25,7.25,0,0,1-1,1.64,4.42,4.42,0,0,1-1.25,1.1,2.14,2.14,0,0,1-1.27.35,1.46,1.46,0,0,1-1-.51,3.26,3.26,0,0,1-.64-1.28,7.62,7.62,0,0,1-.22-2,10.67,10.67,0,0,1,.86-4.31,7.58,7.58,0,0,1,1-1.63,4.56,4.56,0,0,1,1.27-1.11,2,2,0,0,1,1.25-.34,1.44,1.44,0,0,1,1,.5,3.11,3.11,0,0,1,.65,1.3,7.84,7.84,0,0,1,.22,2A11,11,0,0,1,367.22,344Zm19.93-74.07a3.2,3.2,0,0,0-2.06-.66,5.49,5.49,0,0,0-2.58.82,10.29,10.29,0,0,0-2.59,2.17,14.71,14.71,0,0,0-2.05,3,17.46,17.46,0,0,0-1.35,3.56,15.09,15.09,0,0,0-.49,3.81,9.29,9.29,0,0,0,.49,3.24,4.46,4.46,0,0,0,1.35,2,3.16,3.16,0,0,0,2.05.64,5.56,5.56,0,0,0,2.59-.84,10.42,10.42,0,0,0,2.58-2.14,14.75,14.75,0,0,0,2.06-3A16.89,16.89,0,0,0,388.5,279a15,15,0,0,0,.49-3.81,9.29,9.29,0,0,0-.49-3.24A4.35,4.35,0,0,0,387.15,269.91Zm-1.78,9.45a9.93,9.93,0,0,1-.64,2,7.13,7.13,0,0,1-1,1.64,4.35,4.35,0,0,1-1.24,1.09,2.23,2.23,0,0,1-1.27.36,1.54,1.54,0,0,1-1-.51,3.13,3.13,0,0,1-.64-1.28,7.7,7.7,0,0,1-.22-2,11.25,11.25,0,0,1,.22-2.26,10.15,10.15,0,0,1,.64-2,7.66,7.66,0,0,1,1-1.64,4.56,4.56,0,0,1,1.27-1.11,2.16,2.16,0,0,1,1.24-.34,1.42,1.42,0,0,1,1,.51,3,3,0,0,1,.64,1.3,7.33,7.33,0,0,1,.23,2A10.48,10.48,0,0,1,385.37,279.36Zm-40-24.89a7.19,7.19,0,0,1-.59,1.05c-.31.48-.68,1-1.1,1.55a19.9,19.9,0,0,1-1.28,1.53,5.17,5.17,0,0,1-1.1,1v3.62a6.85,6.85,0,0,0,1.09-.83,15.14,15.14,0,0,0,1.19-1.21c.39-.44.74-.87,1.07-1.3a6.4,6.4,0,0,0,.72-1.13v8.79l-3.57,2.06v3.51L352,267.2v-3.51l-3.19,1.85V252.48Zm5.66,22a3.12,3.12,0,0,0-2.06-.65,5.24,5.24,0,0,0-2.57.82,10.07,10.07,0,0,0-2.59,2.16,15,15,0,0,0-2,3,16.64,16.64,0,0,0-1.35,3.57,15,15,0,0,0-.5,3.81,9.35,9.35,0,0,0,.5,3.24,4.32,4.32,0,0,0,1.35,2,3.1,3.1,0,0,0,2,.64,5.48,5.48,0,0,0,2.59-.84,10.38,10.38,0,0,0,2.57-2.14,14.56,14.56,0,0,0,2.06-3,17.21,17.21,0,0,0,1.36-3.57,15.43,15.43,0,0,0,.49-3.81,9.61,9.61,0,0,0-.49-3.24A4.41,4.41,0,0,0,351,276.44Zm-1.77,9.45a9.74,9.74,0,0,1-.64,2,7.27,7.27,0,0,1-1,1.64,4.49,4.49,0,0,1-1.24,1.09,2.17,2.17,0,0,1-1.27.36,1.42,1.42,0,0,1-1-.51,3,3,0,0,1-.64-1.28,7.21,7.21,0,0,1-.23-2,10.63,10.63,0,0,1,.23-2.26,9.55,9.55,0,0,1,.64-2,7.13,7.13,0,0,1,1-1.64,4.58,4.58,0,0,1,1.27-1.11,2.14,2.14,0,0,1,1.24-.34,1.52,1.52,0,0,1,1,.51,3,3,0,0,1,.64,1.3,7.84,7.84,0,0,1,.22,2A11.15,11.15,0,0,1,349.23,285.89ZM351,206a3.23,3.23,0,0,0-2.06-.65,5.45,5.45,0,0,0-2.57.82,10.07,10.07,0,0,0-2.59,2.16,15.06,15.06,0,0,0-2,3,16.36,16.36,0,0,0-1.35,3.56,15.1,15.1,0,0,0-.5,3.81,9.27,9.27,0,0,0,.5,3.24,4.27,4.27,0,0,0,1.35,2,3.11,3.11,0,0,0,2,.65,5.59,5.59,0,0,0,2.59-.84,10.6,10.6,0,0,0,2.57-2.14,14.63,14.63,0,0,0,2.06-3,17.21,17.21,0,0,0,1.36-3.57,15.42,15.42,0,0,0,.49-3.8,9.52,9.52,0,0,0-.49-3.24A4.39,4.39,0,0,0,351,206Zm-1.77,9.45a9.83,9.83,0,0,1-.64,2,7.5,7.5,0,0,1-1,1.64,4.66,4.66,0,0,1-1.24,1.09,2.25,2.25,0,0,1-1.27.36,1.5,1.5,0,0,1-1-.51,3.14,3.14,0,0,1-.64-1.28,7.31,7.31,0,0,1-.23-2,10.66,10.66,0,0,1,.23-2.27,9.64,9.64,0,0,1,.64-2,6.92,6.92,0,0,1,1-1.64,4.42,4.42,0,0,1,1.27-1.11,2.07,2.07,0,0,1,1.24-.34,1.44,1.44,0,0,1,1,.51,3,3,0,0,1,.64,1.29,7.92,7.92,0,0,1,.22,2A11,11,0,0,1,349.23,215.44Zm1.77,14a3.18,3.18,0,0,0-2.06-.66,5.45,5.45,0,0,0-2.57.82,10.07,10.07,0,0,0-2.59,2.16,15.06,15.06,0,0,0-2,3,16.36,16.36,0,0,0-1.35,3.56,15.1,15.1,0,0,0-.5,3.81,9.27,9.27,0,0,0,.5,3.24,4.27,4.27,0,0,0,1.35,2,3.11,3.11,0,0,0,2,.65,5.59,5.59,0,0,0,2.59-.84,10.38,10.38,0,0,0,2.57-2.14,14.36,14.36,0,0,0,2.06-3,16.79,16.79,0,0,0,1.36-3.57,15.42,15.42,0,0,0,.49-3.8,9.52,9.52,0,0,0-.49-3.24A4.31,4.31,0,0,0,351,229.48Zm-1.77,9.45a9.93,9.93,0,0,1-.64,2,7.5,7.5,0,0,1-1,1.64,4.66,4.66,0,0,1-1.24,1.09,2.25,2.25,0,0,1-1.27.36,1.5,1.5,0,0,1-1-.51,3.07,3.07,0,0,1-.64-1.28,7.26,7.26,0,0,1-.23-2,10.57,10.57,0,0,1,.23-2.26,9.55,9.55,0,0,1,.64-2,6.92,6.92,0,0,1,1-1.64,4.42,4.42,0,0,1,1.27-1.11,2.07,2.07,0,0,1,1.24-.34,1.44,1.44,0,0,1,1,.51,3,3,0,0,1,.64,1.29,7.92,7.92,0,0,1,.22,2A11.15,11.15,0,0,1,349.23,238.93Zm37.92,54.46a3.2,3.2,0,0,0-2.06-.66,5.49,5.49,0,0,0-2.58.82,10.5,10.5,0,0,0-2.59,2.17,15,15,0,0,0-2.05,3,17.77,17.77,0,0,0-1.35,3.57,15,15,0,0,0-.49,3.81,9.26,9.26,0,0,0,.49,3.23,4.46,4.46,0,0,0,1.35,2,3.1,3.1,0,0,0,2.05.64,5.56,5.56,0,0,0,2.59-.84,10.42,10.42,0,0,0,2.58-2.14,14.75,14.75,0,0,0,2.06-3,16.89,16.89,0,0,0,1.35-3.56,15,15,0,0,0,.49-3.81,9.29,9.29,0,0,0-.49-3.24A4.35,4.35,0,0,0,387.15,293.39Zm-1.78,9.45a9.74,9.74,0,0,1-.64,2,7.13,7.13,0,0,1-1,1.64,4.35,4.35,0,0,1-1.24,1.09,2.23,2.23,0,0,1-1.27.36,1.5,1.5,0,0,1-1-.51,3.13,3.13,0,0,1-.64-1.28,7.7,7.7,0,0,1-.22-2,11.25,11.25,0,0,1,.22-2.26,10.15,10.15,0,0,1,.64-2,7.91,7.91,0,0,1,1-1.64,4.56,4.56,0,0,1,1.27-1.11,2.16,2.16,0,0,1,1.24-.34,1.42,1.42,0,0,1,1,.51,3,3,0,0,1,.64,1.3,7.33,7.33,0,0,1,.23,2A10.48,10.48,0,0,1,385.37,302.84ZM290.44,277a7.19,7.19,0,0,1-.59,1.05c-.31.48-.68,1-1.1,1.55s-.84,1.06-1.28,1.54a5.36,5.36,0,0,1-1.1,1v3.62a6.85,6.85,0,0,0,1.09-.83,15.14,15.14,0,0,0,1.19-1.21c.39-.44.74-.87,1.07-1.3a6.37,6.37,0,0,0,.72-1.12v8.78l-3.57,2.06v3.51l10.2-5.89v-3.51l-3.19,1.85V275Zm5.66,45.45a3.12,3.12,0,0,0-2.06-.65,5.34,5.34,0,0,0-2.57.82,10.07,10.07,0,0,0-2.59,2.16,15.28,15.28,0,0,0-2.05,3,16.64,16.64,0,0,0-1.35,3.57,15,15,0,0,0-.5,3.81,9.35,9.35,0,0,0,.5,3.24,4.32,4.32,0,0,0,1.35,2,3.11,3.11,0,0,0,2.05.65,5.5,5.5,0,0,0,2.59-.85A10.38,10.38,0,0,0,294,338.1a14.29,14.29,0,0,0,2.06-3,17.21,17.21,0,0,0,1.36-3.57,15.43,15.43,0,0,0,.49-3.81,9.61,9.61,0,0,0-.49-3.24A4.41,4.41,0,0,0,296.1,322.47Zm-1.77,9.45a9.74,9.74,0,0,1-.64,2,7.27,7.27,0,0,1-1,1.64,4.53,4.53,0,0,1-1.24,1.1,2.15,2.15,0,0,1-1.27.35,1.42,1.42,0,0,1-1-.51,3,3,0,0,1-.64-1.28,7.18,7.18,0,0,1-.23-2,10.66,10.66,0,0,1,.23-2.27,9.92,9.92,0,0,1,.64-2,6.85,6.85,0,0,1,1-1.63,4.42,4.42,0,0,1,1.27-1.11,2,2,0,0,1,1.24-.34,1.46,1.46,0,0,1,1,.5,3.1,3.1,0,0,1,.64,1.3,7.84,7.84,0,0,1,.22,2A11.08,11.08,0,0,1,294.33,331.92ZM405.42,213a3.19,3.19,0,0,0-2.06-.65,5.38,5.38,0,0,0-2.58.82,10.24,10.24,0,0,0-2.59,2.16,15.45,15.45,0,0,0-2,3,16.92,16.92,0,0,0-1.36,3.56,15,15,0,0,0-.49,3.81,9.29,9.29,0,0,0,.49,3.24,4.41,4.41,0,0,0,1.36,2,3.1,3.1,0,0,0,2,.65,5.56,5.56,0,0,0,2.59-.84,10.88,10.88,0,0,0,2.58-2.14,15,15,0,0,0,2.06-3,16.64,16.64,0,0,0,1.35-3.57,15,15,0,0,0,.49-3.8,9.38,9.38,0,0,0-.49-3.25A4.32,4.32,0,0,0,405.42,213Zm-1.77,9.45a9.84,9.84,0,0,1-.65,2,7.4,7.4,0,0,1-1,1.63,4.42,4.42,0,0,1-1.25,1.1,2.14,2.14,0,0,1-1.27.35,1.49,1.49,0,0,1-1-.5,3.38,3.38,0,0,1-.64-1.29,7.62,7.62,0,0,1-.22-2,11.35,11.35,0,0,1,.22-2.27,11,11,0,0,1,.64-2,7.42,7.42,0,0,1,1-1.64,4.56,4.56,0,0,1,1.27-1.11,2.12,2.12,0,0,1,1.25-.34,1.41,1.41,0,0,1,1,.51,3,3,0,0,1,.65,1.29,7.84,7.84,0,0,1,.22,2A11,11,0,0,1,403.65,222.45Zm17.89,112.4a3.25,3.25,0,0,0-2.06-.65,5.49,5.49,0,0,0-2.58.82,10.24,10.24,0,0,0-2.59,2.16,15.45,15.45,0,0,0-2,3,16.92,16.92,0,0,0-1.36,3.56,15,15,0,0,0-.49,3.81,9.29,9.29,0,0,0,.49,3.24,4.36,4.36,0,0,0,1.36,2,3.1,3.1,0,0,0,2,.65,5.56,5.56,0,0,0,2.59-.84,10.65,10.65,0,0,0,2.58-2.14,15,15,0,0,0,2.06-3,16.64,16.64,0,0,0,1.35-3.57,15,15,0,0,0,.49-3.8,9.29,9.29,0,0,0-.49-3.24A4.31,4.31,0,0,0,421.54,334.85Zm-1.77,9.45a9.84,9.84,0,0,1-.65,2,7.17,7.17,0,0,1-1,1.63,4.42,4.42,0,0,1-1.25,1.1,2.14,2.14,0,0,1-1.27.35,1.49,1.49,0,0,1-1-.5,3.25,3.25,0,0,1-.64-1.29,7.62,7.62,0,0,1-.22-2,11.35,11.35,0,0,1,.22-2.27,10.26,10.26,0,0,1,.64-2,7.66,7.66,0,0,1,1-1.64,4.56,4.56,0,0,1,1.27-1.11,2.12,2.12,0,0,1,1.25-.34,1.41,1.41,0,0,1,1,.51,3,3,0,0,1,.65,1.29,7.86,7.86,0,0,1,.22,2A11,11,0,0,1,419.77,344.3ZM296.1,299a3.12,3.12,0,0,0-2.06-.65,5.34,5.34,0,0,0-2.57.82,10.07,10.07,0,0,0-2.59,2.16,15,15,0,0,0-2.05,3,16.64,16.64,0,0,0-1.35,3.57,15,15,0,0,0-.5,3.81,9.35,9.35,0,0,0,.5,3.24,4.32,4.32,0,0,0,1.35,2,3.16,3.16,0,0,0,2.05.65,5.5,5.5,0,0,0,2.59-.85,10.38,10.38,0,0,0,2.57-2.14,14.56,14.56,0,0,0,2.06-3,17.21,17.21,0,0,0,1.36-3.57,15.43,15.43,0,0,0,.49-3.81,9.61,9.61,0,0,0-.49-3.24A4.41,4.41,0,0,0,296.1,299Zm-1.77,9.45a9.74,9.74,0,0,1-.64,2,7.27,7.27,0,0,1-1,1.64,4.49,4.49,0,0,1-1.24,1.09,2.1,2.1,0,0,1-1.27.36,1.42,1.42,0,0,1-1-.51,3,3,0,0,1-.64-1.28,7.21,7.21,0,0,1-.23-2,10.63,10.63,0,0,1,.23-2.26,9.92,9.92,0,0,1,.64-2,6.85,6.85,0,0,1,1-1.63,4.46,4.46,0,0,1,1.27-1.12,2.14,2.14,0,0,1,1.24-.34,1.52,1.52,0,0,1,1,.51,3,3,0,0,1,.64,1.3,7.84,7.84,0,0,1,.22,2A11.15,11.15,0,0,1,294.33,308.44ZM296.1,346a3.17,3.17,0,0,0-2.06-.65,5.34,5.34,0,0,0-2.57.82,10.07,10.07,0,0,0-2.59,2.16,15.28,15.28,0,0,0-2.05,3,16.64,16.64,0,0,0-1.35,3.57,15,15,0,0,0-.5,3.81,9.27,9.27,0,0,0,.5,3.24,4.32,4.32,0,0,0,1.35,2,3.11,3.11,0,0,0,2.05.65,5.5,5.5,0,0,0,2.59-.85,10.56,10.56,0,0,0,2.57-2.13,14.63,14.63,0,0,0,2.06-3,17.21,17.21,0,0,0,1.36-3.57,15.42,15.42,0,0,0,.49-3.8,9.63,9.63,0,0,0-.49-3.25A4.41,4.41,0,0,0,296.1,346Zm-1.77,9.45a9.74,9.74,0,0,1-.64,2,7.27,7.27,0,0,1-1,1.64,4.53,4.53,0,0,1-1.24,1.1,2.15,2.15,0,0,1-1.27.35,1.42,1.42,0,0,1-1-.51,3,3,0,0,1-.64-1.28,7.18,7.18,0,0,1-.23-2,10.66,10.66,0,0,1,.23-2.27,9.92,9.92,0,0,1,.64-2,6.85,6.85,0,0,1,1-1.63,4.42,4.42,0,0,1,1.27-1.11,2,2,0,0,1,1.24-.34,1.46,1.46,0,0,1,1,.5,3.1,3.1,0,0,1,.64,1.3,7.84,7.84,0,0,1,.22,2A11,11,0,0,1,294.33,355.4Zm20-113.31a3.18,3.18,0,0,0-2.06-.66,5.49,5.49,0,0,0-2.57.82,10.5,10.5,0,0,0-2.59,2.17,15,15,0,0,0-2,3,17,17,0,0,0-1.35,3.57,15,15,0,0,0-.49,3.8,9.29,9.29,0,0,0,.49,3.24,4.38,4.38,0,0,0,1.35,2,3.1,3.1,0,0,0,2,.64,5.56,5.56,0,0,0,2.59-.84,10.2,10.2,0,0,0,2.57-2.14,14.36,14.36,0,0,0,2.06-3,16.92,16.92,0,0,0,1.36-3.56,15.49,15.49,0,0,0,.49-3.81,9.52,9.52,0,0,0-.49-3.24A4.36,4.36,0,0,0,314.37,242.09Zm-1.77,9.45a9.93,9.93,0,0,1-.64,2,7.5,7.5,0,0,1-1,1.64,4.35,4.35,0,0,1-1.24,1.09,2.23,2.23,0,0,1-1.27.36,1.48,1.48,0,0,1-1-.51,3,3,0,0,1-.64-1.28,7.67,7.67,0,0,1-.23-2,11.25,11.25,0,0,1,.23-2.26,9.55,9.55,0,0,1,.64-2,7.5,7.5,0,0,1,1-1.64,4.56,4.56,0,0,1,1.27-1.11,2.16,2.16,0,0,1,1.24-.34,1.44,1.44,0,0,1,1,.51,3,3,0,0,1,.64,1.3,7.75,7.75,0,0,1,.23,2A11.15,11.15,0,0,1,312.6,251.54Zm-34.66,88.59a3.23,3.23,0,0,0-2.06-.65,5.49,5.49,0,0,0-2.57.82,10.24,10.24,0,0,0-2.59,2.16,15.06,15.06,0,0,0-2.05,3,16.89,16.89,0,0,0-1.35,3.56,15.09,15.09,0,0,0-.49,3.81,9.29,9.29,0,0,0,.49,3.24,4.35,4.35,0,0,0,1.35,2,3.11,3.11,0,0,0,2.05.65,5.56,5.56,0,0,0,2.59-.84,10.42,10.42,0,0,0,2.57-2.14,14.63,14.63,0,0,0,2.06-3,17.21,17.21,0,0,0,1.36-3.57,15.42,15.42,0,0,0,.49-3.8,9.52,9.52,0,0,0-.49-3.24A4.39,4.39,0,0,0,277.94,340.13Zm-1.77,9.45a9.83,9.83,0,0,1-.64,2,7.5,7.5,0,0,1-1,1.64,4.51,4.51,0,0,1-1.24,1.09,2.23,2.23,0,0,1-1.27.36,1.52,1.52,0,0,1-1-.51,3.14,3.14,0,0,1-.64-1.28,7.72,7.72,0,0,1-.23-2,11.35,11.35,0,0,1,.23-2.27,9.64,9.64,0,0,1,.64-2,7.27,7.27,0,0,1,1-1.64,4.56,4.56,0,0,1,1.27-1.11,2.09,2.09,0,0,1,1.24-.34,1.44,1.44,0,0,1,1,.51,3,3,0,0,1,.64,1.29,7.88,7.88,0,0,1,.23,2A11,11,0,0,1,276.17,349.58Zm-3.89-31.41a6.33,6.33,0,0,1-.59,1.05c-.31.48-.68,1-1.09,1.54s-.85,1.07-1.28,1.54a5.31,5.31,0,0,1-1.11,1v3.63a6.05,6.05,0,0,0,1.09-.84,15.25,15.25,0,0,0,1.2-1.21c.38-.43.74-.86,1.06-1.3a6.37,6.37,0,0,0,.72-1.12v8.79l-3.57,2.06v3.51l10.2-5.89v-3.51l-3.19,1.84V316.18Zm5.66-48.48a3.12,3.12,0,0,0-2.06-.65,5.37,5.37,0,0,0-2.57.82,10.24,10.24,0,0,0-2.59,2.16,15,15,0,0,0-2.05,3,17.19,17.19,0,0,0-1.35,3.57,15,15,0,0,0-.49,3.81,9.36,9.36,0,0,0,.49,3.24,4.4,4.4,0,0,0,1.35,2,3.1,3.1,0,0,0,2.05.64,5.34,5.34,0,0,0,2.59-.84,10.2,10.2,0,0,0,2.57-2.14,14.56,14.56,0,0,0,2.06-3,17.21,17.21,0,0,0,1.36-3.57,15.43,15.43,0,0,0,.49-3.81,9.61,9.61,0,0,0-.49-3.24A4.41,4.41,0,0,0,277.94,269.69Zm-1.77,9.45a9.74,9.74,0,0,1-.64,2,7.27,7.27,0,0,1-1,1.64,4.35,4.35,0,0,1-1.24,1.09,2.15,2.15,0,0,1-1.27.36,1.44,1.44,0,0,1-1-.51,3,3,0,0,1-.64-1.28,7.61,7.61,0,0,1-.23-2,11.33,11.33,0,0,1,.23-2.26,9.92,9.92,0,0,1,.64-2,7.5,7.5,0,0,1,1-1.64,4.72,4.72,0,0,1,1.27-1.11,2.16,2.16,0,0,1,1.24-.34,1.52,1.52,0,0,1,1,.51,3,3,0,0,1,.64,1.3,7.8,7.8,0,0,1,.23,2A11.15,11.15,0,0,1,276.17,279.14ZM399.76,238a7.53,7.53,0,0,1-.6,1.05c-.31.48-.67,1-1.09,1.55s-.85,1.06-1.28,1.53a5,5,0,0,1-1.1,1v3.63a6.42,6.42,0,0,0,1.09-.84,15.16,15.16,0,0,0,1.19-1.21c.39-.43.74-.86,1.07-1.29a7.83,7.83,0,0,0,.72-1.13v8.79l-3.57,2.06v3.51l10.2-5.89v-3.51l-3.19,1.84V236Zm5.66-48.48a3.19,3.19,0,0,0-2.06-.65,5.38,5.38,0,0,0-2.58.82,10.24,10.24,0,0,0-2.59,2.16,15.68,15.68,0,0,0-2,3,17.21,17.21,0,0,0-1.36,3.57,15,15,0,0,0-.49,3.81,9.36,9.36,0,0,0,.49,3.24,4.41,4.41,0,0,0,1.36,2,3.1,3.1,0,0,0,2,.65,5.47,5.47,0,0,0,2.59-.85,10.6,10.6,0,0,0,2.58-2.13,15,15,0,0,0,2.06-3,16.64,16.64,0,0,0,1.35-3.57,15,15,0,0,0,.49-3.8,9.38,9.38,0,0,0-.49-3.25A4.32,4.32,0,0,0,405.42,189.52ZM403.65,199a9.75,9.75,0,0,1-.65,2,7.25,7.25,0,0,1-1,1.64,4.42,4.42,0,0,1-1.25,1.1,2.14,2.14,0,0,1-1.27.35,1.49,1.49,0,0,1-1-.5,3.38,3.38,0,0,1-.64-1.29,7.62,7.62,0,0,1-.22-2,10.67,10.67,0,0,1,.86-4.31,7.58,7.58,0,0,1,1-1.63,4.56,4.56,0,0,1,1.27-1.11,2,2,0,0,1,1.25-.34,1.44,1.44,0,0,1,1,.5,3.11,3.11,0,0,1,.65,1.3,7.84,7.84,0,0,1,.22,2A11,11,0,0,1,403.65,199Zm-125.71,94.2a3.12,3.12,0,0,0-2.06-.65,5.37,5.37,0,0,0-2.57.82,10.24,10.24,0,0,0-2.59,2.16,15.28,15.28,0,0,0-2.05,3,17.19,17.19,0,0,0-1.35,3.57,15,15,0,0,0-.49,3.81,9.36,9.36,0,0,0,.49,3.24,4.4,4.4,0,0,0,1.35,2,3.11,3.11,0,0,0,2.05.65,5.47,5.47,0,0,0,2.59-.85,10.2,10.2,0,0,0,2.57-2.14,14.29,14.29,0,0,0,2.06-3,17.21,17.21,0,0,0,1.36-3.57,15.43,15.43,0,0,0,.49-3.81,9.61,9.61,0,0,0-.49-3.24A4.41,4.41,0,0,0,277.94,293.17Zm-1.77,9.45a9.74,9.74,0,0,1-.64,2,7.27,7.27,0,0,1-1,1.64,4.55,4.55,0,0,1-1.24,1.1,2.14,2.14,0,0,1-1.27.35,1.44,1.44,0,0,1-1-.51,3,3,0,0,1-.64-1.28,7.58,7.58,0,0,1-.23-2,11.35,11.35,0,0,1,.23-2.27,9.92,9.92,0,0,1,.64-2,7.19,7.19,0,0,1,1-1.63,4.56,4.56,0,0,1,1.27-1.11,2,2,0,0,1,1.24-.34,1.46,1.46,0,0,1,1,.5,3.1,3.1,0,0,1,.64,1.3,7.8,7.8,0,0,1,.23,2A11.08,11.08,0,0,1,276.17,302.62Zm32.54-12.06a5.94,5.94,0,0,1-.59,1.06c-.31.47-.68,1-1.09,1.54s-.85,1.06-1.28,1.54a5.63,5.63,0,0,1-1.11,1v3.62a6.43,6.43,0,0,0,1.09-.83c.41-.37.81-.78,1.2-1.21s.74-.87,1.06-1.3a6.37,6.37,0,0,0,.72-1.12v8.78l-3.57,2.06v3.52l10.2-5.89v-3.51l-3.19,1.84V288.58ZM314.37,336a3.17,3.17,0,0,0-2.06-.65,5.37,5.37,0,0,0-2.57.82,10.24,10.24,0,0,0-2.59,2.16,15.06,15.06,0,0,0-2,3,16.89,16.89,0,0,0-1.35,3.56,15,15,0,0,0-.49,3.81,9.29,9.29,0,0,0,.49,3.24,4.4,4.4,0,0,0,1.35,2,3.11,3.11,0,0,0,2,.65,5.47,5.47,0,0,0,2.59-.85,10.37,10.37,0,0,0,2.57-2.13,14.63,14.63,0,0,0,2.06-3,17.21,17.21,0,0,0,1.36-3.57,15.42,15.42,0,0,0,.49-3.8,9.63,9.63,0,0,0-.49-3.25A4.41,4.41,0,0,0,314.37,336Zm-1.77,9.45a9.74,9.74,0,0,1-.64,2,7.27,7.27,0,0,1-1,1.64,4.39,4.39,0,0,1-1.24,1.1,2.14,2.14,0,0,1-1.27.35,1.46,1.46,0,0,1-1-.5,3.12,3.12,0,0,1-.64-1.29,7.58,7.58,0,0,1-.23-2,11.35,11.35,0,0,1,.23-2.27,9.64,9.64,0,0,1,.64-2,7.05,7.05,0,0,1,1-1.64,4.56,4.56,0,0,1,1.27-1.11,2.09,2.09,0,0,1,1.24-.34,1.46,1.46,0,0,1,1,.5,3.1,3.1,0,0,1,.64,1.3,7.8,7.8,0,0,1,.23,2A11,11,0,0,1,312.6,345.46Zm1.77-32.93a3.12,3.12,0,0,0-2.06-.65,5.37,5.37,0,0,0-2.57.82,10.24,10.24,0,0,0-2.59,2.16,15.28,15.28,0,0,0-2,3,17.19,17.19,0,0,0-1.35,3.57,15,15,0,0,0-.49,3.81,9.36,9.36,0,0,0,.49,3.24,4.4,4.4,0,0,0,1.35,2,3.11,3.11,0,0,0,2,.65,5.47,5.47,0,0,0,2.59-.85,10.37,10.37,0,0,0,2.57-2.13,14.63,14.63,0,0,0,2.06-3,17.21,17.21,0,0,0,1.36-3.57,15.42,15.42,0,0,0,.49-3.8,9.63,9.63,0,0,0-.49-3.25A4.41,4.41,0,0,0,314.37,312.53ZM312.6,322a9.74,9.74,0,0,1-.64,2,7.27,7.27,0,0,1-1,1.64,4.39,4.39,0,0,1-1.24,1.1,2.14,2.14,0,0,1-1.27.35,1.44,1.44,0,0,1-1-.51,3,3,0,0,1-.64-1.28,7.58,7.58,0,0,1-.23-2,11.35,11.35,0,0,1,.23-2.27,9.92,9.92,0,0,1,.64-2,7.19,7.19,0,0,1,1-1.63,4.56,4.56,0,0,1,1.27-1.11,2,2,0,0,1,1.24-.34,1.46,1.46,0,0,1,1,.5,3.1,3.1,0,0,1,.64,1.3,7.8,7.8,0,0,1,.23,2A11,11,0,0,1,312.6,322Zm-16.5-70a3.18,3.18,0,0,0-2.06-.66,5.45,5.45,0,0,0-2.57.82,10.11,10.11,0,0,0-2.59,2.17,14.71,14.71,0,0,0-2.05,3,16.25,16.25,0,0,0-1.35,3.57,15,15,0,0,0-.5,3.8,9.27,9.27,0,0,0,.5,3.24,4.31,4.31,0,0,0,1.35,2,3.16,3.16,0,0,0,2.05.64,5.59,5.59,0,0,0,2.59-.84,10.38,10.38,0,0,0,2.57-2.14,14.36,14.36,0,0,0,2.06-3,16.92,16.92,0,0,0,1.36-3.56,15.49,15.49,0,0,0,.49-3.81,9.52,9.52,0,0,0-.49-3.24A4.36,4.36,0,0,0,296.1,252Zm-1.77,9.45a9.93,9.93,0,0,1-.64,2,7.5,7.5,0,0,1-1,1.64,4.49,4.49,0,0,1-1.24,1.09,2.25,2.25,0,0,1-1.27.36,1.5,1.5,0,0,1-1-.51,3,3,0,0,1-.64-1.28,7.26,7.26,0,0,1-.23-2,10.57,10.57,0,0,1,.23-2.26,9.55,9.55,0,0,1,.64-2,6.92,6.92,0,0,1,1-1.64,4.42,4.42,0,0,1,1.27-1.11,2.14,2.14,0,0,1,1.24-.34,1.44,1.44,0,0,1,1,.51,3,3,0,0,1,.64,1.3,7.78,7.78,0,0,1,.22,2A11.15,11.15,0,0,1,294.33,261.48Zm20,4.09a3.18,3.18,0,0,0-2.06-.66,5.49,5.49,0,0,0-2.57.82,10.5,10.5,0,0,0-2.59,2.17,15,15,0,0,0-2,3,17.19,17.19,0,0,0-1.35,3.57,15,15,0,0,0-.49,3.81,9.26,9.26,0,0,0,.49,3.23,4.38,4.38,0,0,0,1.35,2,3.1,3.1,0,0,0,2,.64,5.45,5.45,0,0,0,2.59-.84,10.2,10.2,0,0,0,2.57-2.14,14.36,14.36,0,0,0,2.06-3,16.92,16.92,0,0,0,1.36-3.56,15.43,15.43,0,0,0,.49-3.81,9.52,9.52,0,0,0-.49-3.24A4.36,4.36,0,0,0,314.37,265.57ZM312.6,275a9.74,9.74,0,0,1-.64,2,7.5,7.5,0,0,1-1,1.64,4.35,4.35,0,0,1-1.24,1.09,2.23,2.23,0,0,1-1.27.36,1.48,1.48,0,0,1-1-.51,3,3,0,0,1-.64-1.28,7.67,7.67,0,0,1-.23-2,11.25,11.25,0,0,1,.23-2.26,9.55,9.55,0,0,1,.64-2,7.5,7.5,0,0,1,1-1.64,4.56,4.56,0,0,1,1.27-1.11A2.16,2.16,0,0,1,311,269a1.44,1.44,0,0,1,1,.51,3,3,0,0,1,.64,1.3,7.8,7.8,0,0,1,.23,2A11.15,11.15,0,0,1,312.6,275Zm92.82,31.91a3.14,3.14,0,0,0-2.06-.65,5.35,5.35,0,0,0-2.58.81,10.5,10.5,0,0,0-2.59,2.17,15.38,15.38,0,0,0-2,3,17.21,17.21,0,0,0-1.36,3.57,15,15,0,0,0-.49,3.81,9.36,9.36,0,0,0,.49,3.24,4.41,4.41,0,0,0,1.36,2,3.09,3.09,0,0,0,2,.64,5.45,5.45,0,0,0,2.59-.84,10.42,10.42,0,0,0,2.58-2.14,15,15,0,0,0,2.06-3,16.64,16.64,0,0,0,1.35-3.57,15,15,0,0,0,.49-3.81,9.36,9.36,0,0,0-.49-3.24A4.27,4.27,0,0,0,405.42,306.93Zm-1.77,9.45a9.75,9.75,0,0,1-.65,2,7.25,7.25,0,0,1-1,1.64,4.38,4.38,0,0,1-1.25,1.09,2.15,2.15,0,0,1-1.27.36,1.46,1.46,0,0,1-1-.51,3.26,3.26,0,0,1-.64-1.28,7.65,7.65,0,0,1-.22-2,11.32,11.32,0,0,1,.22-2.26,10.83,10.83,0,0,1,.64-2,7.91,7.91,0,0,1,1-1.64,4.56,4.56,0,0,1,1.27-1.11,2.19,2.19,0,0,1,1.25-.34,1.45,1.45,0,0,1,1,.51,3,3,0,0,1,.65,1.3,7.84,7.84,0,0,1,.22,2A11.15,11.15,0,0,1,403.65,316.38ZM405.42,260a3.2,3.2,0,0,0-2.06-.66,5.49,5.49,0,0,0-2.58.82,10.5,10.5,0,0,0-2.59,2.17,15.09,15.09,0,0,0-2,3,17,17,0,0,0-1.36,3.57,15,15,0,0,0-.49,3.8,9.29,9.29,0,0,0,.49,3.24,4.39,4.39,0,0,0,1.36,2,3.15,3.15,0,0,0,2,.64,5.56,5.56,0,0,0,2.59-.84,10.42,10.42,0,0,0,2.58-2.14,14.75,14.75,0,0,0,2.06-3,16.36,16.36,0,0,0,1.35-3.56,15,15,0,0,0,.49-3.81,9.29,9.29,0,0,0-.49-3.24A4.27,4.27,0,0,0,405.42,260Zm-1.77,9.45a9.94,9.94,0,0,1-.65,2,7.47,7.47,0,0,1-1,1.64,4.38,4.38,0,0,1-1.25,1.09,2.23,2.23,0,0,1-1.27.36,1.5,1.5,0,0,1-1-.51,3.26,3.26,0,0,1-.64-1.28,7.7,7.7,0,0,1-.22-2,11.25,11.25,0,0,1,.22-2.26,10.83,10.83,0,0,1,.64-2,7.91,7.91,0,0,1,1-1.64,4.56,4.56,0,0,1,1.27-1.11,2.19,2.19,0,0,1,1.25-.34,1.41,1.41,0,0,1,1,.51,3,3,0,0,1,.65,1.3,7.78,7.78,0,0,1,.22,2A11.15,11.15,0,0,1,403.65,269.42ZM296.1,228.55a3.18,3.18,0,0,0-2.06-.66,5.45,5.45,0,0,0-2.57.82,10.07,10.07,0,0,0-2.59,2.16,15.06,15.06,0,0,0-2.05,3,16.36,16.36,0,0,0-1.35,3.56,15.1,15.1,0,0,0-.5,3.81,9.27,9.27,0,0,0,.5,3.24,4.27,4.27,0,0,0,1.35,2,3.11,3.11,0,0,0,2.05.65,5.59,5.59,0,0,0,2.59-.84,10.38,10.38,0,0,0,2.57-2.14,14.36,14.36,0,0,0,2.06-3,17,17,0,0,0,1.36-3.57,15.42,15.42,0,0,0,.49-3.8,9.52,9.52,0,0,0-.49-3.24A4.31,4.31,0,0,0,296.1,228.55ZM294.33,238a9.93,9.93,0,0,1-.64,2,7.5,7.5,0,0,1-1,1.64,4.66,4.66,0,0,1-1.24,1.09,2.25,2.25,0,0,1-1.27.36,1.5,1.5,0,0,1-1-.51,3.07,3.07,0,0,1-.64-1.28,7.26,7.26,0,0,1-.23-2,10.5,10.5,0,0,1,.23-2.26,9.55,9.55,0,0,1,.64-2,6.92,6.92,0,0,1,1-1.64,4.42,4.42,0,0,1,1.27-1.11,2.07,2.07,0,0,1,1.24-.34,1.44,1.44,0,0,1,1,.51,3,3,0,0,1,.64,1.29,7.92,7.92,0,0,1,.22,2A11.15,11.15,0,0,1,294.33,238Zm111.09,45.45a3.14,3.14,0,0,0-2.06-.65,5.35,5.35,0,0,0-2.58.81,10.5,10.5,0,0,0-2.59,2.17,15.38,15.38,0,0,0-2,3,17.21,17.21,0,0,0-1.36,3.57,15,15,0,0,0-.49,3.81,9.26,9.26,0,0,0,.49,3.23,4.39,4.39,0,0,0,1.36,2,3.09,3.09,0,0,0,2,.64,5.45,5.45,0,0,0,2.59-.84,10.42,10.42,0,0,0,2.58-2.14,14.75,14.75,0,0,0,2.06-3,16.36,16.36,0,0,0,1.35-3.56,15,15,0,0,0,.49-3.81,9.29,9.29,0,0,0-.49-3.24A4.27,4.27,0,0,0,405.42,283.45Zm-1.77,9.45a9.75,9.75,0,0,1-.65,2,7.47,7.47,0,0,1-1,1.64,4.38,4.38,0,0,1-1.25,1.09,2.23,2.23,0,0,1-1.27.36,1.5,1.5,0,0,1-1-.51,3.26,3.26,0,0,1-.64-1.28,7.7,7.7,0,0,1-.22-2,11.25,11.25,0,0,1,.22-2.26,10.83,10.83,0,0,1,.64-2,7.91,7.91,0,0,1,1-1.64,4.56,4.56,0,0,1,1.27-1.11,2.19,2.19,0,0,1,1.25-.34,1.41,1.41,0,0,1,1,.51,3,3,0,0,1,.65,1.3,7.84,7.84,0,0,1,.22,2A11.15,11.15,0,0,1,403.65,292.9Zm-89.28,66.59a3.17,3.17,0,0,0-2.06-.65,5.49,5.49,0,0,0-2.57.82,10.24,10.24,0,0,0-2.59,2.16,15.06,15.06,0,0,0-2,3,16.89,16.89,0,0,0-1.35,3.56,15,15,0,0,0-.49,3.81,9.29,9.29,0,0,0,.49,3.24,4.4,4.4,0,0,0,1.35,2,3.11,3.11,0,0,0,2,.65,5.56,5.56,0,0,0,2.59-.84,10.42,10.42,0,0,0,2.57-2.14,14.63,14.63,0,0,0,2.06-3,17.21,17.21,0,0,0,1.36-3.57,15.42,15.42,0,0,0,.49-3.8,9.63,9.63,0,0,0-.49-3.25A4.41,4.41,0,0,0,314.37,359.49Zm-1.77,9.45a9.83,9.83,0,0,1-.64,2,7.19,7.19,0,0,1-1,1.63,4.39,4.39,0,0,1-1.24,1.1,2.14,2.14,0,0,1-1.27.35,1.46,1.46,0,0,1-1-.5,3.12,3.12,0,0,1-.64-1.29,7.58,7.58,0,0,1-.23-2,11.35,11.35,0,0,1,.23-2.27,9.64,9.64,0,0,1,.64-2,7.05,7.05,0,0,1,1-1.64,4.56,4.56,0,0,1,1.27-1.11,2.09,2.09,0,0,1,1.24-.34,1.44,1.44,0,0,1,1,.51,3,3,0,0,1,.64,1.29,7.83,7.83,0,0,1,.23,2A11,11,0,0,1,312.6,368.94Z"/><polygon class="cls-65" points="386.57 478.36 377.23 502.71 378.99 481.22 388.33 456.87 386.57 478.36"/><path class="cls-66" d="M440.54,457.53l-.12.25c-.08.18-.17.35-.26.53l-.13.23c-.12.22-.25.43-.38.65a.56.56,0,0,0,0,.08c-.15.23-.31.47-.48.7l-.15.2-.39.49-.18.22-.44.49-.16.17-.62.62c-.26.24-.53.48-.81.71l-.18.14-.69.53-.33.22c-.2.14-.4.28-.61.41l-.39.23-.61.36-.42.22c-.21.12-.42.22-.64.33l-.44.21-.7.29-.44.19-.8.29-.4.14-1.24.38-41.91,11.55-9.34,24.35,41.91-11.55c.42-.11.84-.24,1.24-.38.14,0,.26-.09.39-.14l.81-.29.44-.18.69-.3.45-.21.64-.32.42-.23c.21-.11.41-.23.61-.35l.39-.24c.21-.13.41-.26.6-.4s.23-.15.33-.23.47-.35.69-.53l.19-.14c.28-.23.54-.46.8-.71l0,0c.21-.2.41-.39.6-.59l.15-.17.44-.49.19-.22c.13-.17.26-.33.38-.5a1.56,1.56,0,0,0,.16-.2l.48-.7,0-.08c.14-.21.27-.43.39-.64l.12-.24a5.28,5.28,0,0,0,.27-.53l.12-.24a1,1,0,0,1,.07-.15l.24-.59,9.34-24.36C440.76,457,440.65,457.29,440.54,457.53Z"/><g class="cls-3"><g class="cls-67"><g class="cls-3"><path class="cls-68" d="M351.17,471.33l-9.35,24.36a6.06,6.06,0,0,1,.35-1.54l9.35-24.35a5.32,5.32,0,0,0-.35,1.53"/></g></g></g><path class="cls-69" d="M437.31,492.25c-.15.32-.31.64-.48.95l-.11.19c-.17.27-.34.54-.52.81l-.11.16c-.22.29-.45.58-.69.86a1.54,1.54,0,0,1-.17.19c-.23.26-.48.51-.73.76l-.09.09c-.22.2-.45.41-.69.6a1.67,1.67,0,0,1-.16.12c-.19.16-.39.31-.59.46l-.28.19-.52.35-.33.2-.52.3-.37.2-.54.27-.38.18-.6.26-.38.15-.68.25-.34.12c-.35.12-.7.23-1.07.33l-17.76,4.89-9.34,24.36,17.76-4.9c.37-.1.72-.21,1.07-.32l.34-.12.68-.25.38-.16.59-.25.38-.18.55-.28.36-.19.52-.3.34-.21.51-.34.29-.2c.2-.14.4-.3.59-.45l.15-.12c.24-.2.47-.4.69-.61l0,0,.06-.06c.26-.25.51-.5.74-.76l.17-.19c.24-.28.47-.57.68-.87l.11-.15c.19-.27.36-.54.52-.82a1.74,1.74,0,0,0,.11-.18,9.4,9.4,0,0,0,.48-.95.3.3,0,0,0,0-.08,5.49,5.49,0,0,0,.21-.51l9.34-24.35C437.48,491.86,437.39,492.06,437.31,492.25Z"/><polygon class="cls-70" points="348.75 502.12 339.41 526.48 341.82 495.69 351.17 471.33 348.75 502.12"/><polygon class="cls-71" points="384.56 522.89 375.21 547.25 376.62 514.9 385.97 490.54 384.56 522.89"/><path class="cls-72" d="M314.07,502.52l-.88-.49-.32-.18-.3-.15-.21-.11-.28-.14-.17-.09-.34-.16-.34-.15-.35-.15-.14-.07-.09,0-.12-.05a2.53,2.53,0,0,0-.36-.14l-.36-.14-.36-.13-.16,0-.21-.07-.17-.05-.2-.06-.16-.05-.22-.06-.16,0-.21,0-.18,0h0l-.2-.05-.17,0-.21,0-.18,0-.22,0-.16,0-.23,0-.16,0-.23,0h-1.57l-.17,0-.23,0-.17,0-.23,0-.16,0-.1,0-.13,0h0l-.07,0h-.08l-.23.06-.16,0-.38.11-12.86,3.53-9.34,24.36L293,524.36l.39-.12.16,0,.23-.05.17,0,.23,0,.16,0,.23,0,.17,0,.23,0h.16l.23,0h1.35l.22,0,.17,0,.23,0,.16,0,.22,0a.47.47,0,0,1,.17,0l.22,0,.17,0,.21,0,.17,0,.21.06.16,0,.23.06.15,0,.21.06.17.06.21.06.16.06.36.12.36.14.36.14.2.09.15.06.35.15.34.16.33.16.18.08.28.15.21.1.3.16.32.17.88.5,33.14,19.2,9.34-24.36Z"/><polygon class="cls-73" points="388.79 545.8 370.38 535.13 361.02 559.49 379.44 570.16 384.45 573.12 393.81 548.76 388.79 545.8"/><path class="cls-74" d="M387.29,572.81l.21,0,.23,0,.22,0,.26-.06.24-.05.28-.06.28-.07.28-.06.31-.07.33-.08.33-.08.34-.08L391,572l.36-.08.41-.1.43-.11.38-.09.48-.11.42-.1.48-.12.47-.11.6-.15.41-.1.63-.16.47-.11.44-.11,1.94-.49,9.34-24.35-1.94.48-.44.11-.37.09-.76.19-.16,0-.84.21-.3.07-.65.16-.33.08-.55.13-.35.08-.47.11-.36.09-.39.09-.35.08-.37.09-.3.07-.35.08-.29.07-.31.07-.25,0-.31.07-.21,0-.28.06-.21.05-.25,0-.18,0-.22,0-.18,0-.18,0-.27,0-.11,0-.33.06h-.05l-.24,0H395l-.16,0h-.08l-.14,0h-.06l-.16,0H394l-.08,0h0l-.08,0-9.34,24.35.07,0h0l.08,0h0l.13,0h.49l.15,0h.08l.16,0h.09l.24-.05h0l.34-.06.1,0,.28-.06h.07l.1,0,.19,0Z"/><polygon class="cls-75" points="346.18 534.81 336.84 559.16 337.87 546.08 347.21 521.72 346.18 534.81"/><path class="cls-2" d="M369.26,554.05l-9.35,24.35c-15.39,5.41-15.54,5.34-15.7,5.28l-.74-.33-1-.48,9.35-24.36c.23.13.47.25.95.48a7.92,7.92,0,0,0,.75.33C353.71,559.39,353.87,559.45,369.26,554.05Z"/><g class="cls-76"><g class="cls-3"><path class="cls-77" d="M369.26,554.05l-9.35,24.35c-12.33,4.33-14.88,5.15-15.48,5.27l9.34-24.35c.6-.12,3.15-.94,15.49-5.27"/><path class="cls-78" d="M353.77,559.32l-9.34,24.35a.6.6,0,0,1-.16,0l9.35-24.35.15,0"/><path class="cls-79" d="M353.62,559.34l-9.35,24.35h0l9.35-24.36h0"/><path class="cls-80" d="M353.59,559.33l-9.35,24.36h0l-.12,0,9.34-24.36.13.05h0"/><path class="cls-81" d="M353.43,559.27l-9.34,24.36c-.34-.14-.48-.21-.62-.28l-1-.48,9.35-24.36c.23.13.47.25.95.48l.62.28"/></g></g><path class="cls-82" d="M350.83,558l-81.3-45.14-2.73-1.49-1.33-.73c-9.58-5-11.49-9.55-10.25-13.48.05-.15.1-.3.16-.44L246,521l-.15.43c-1.24,3.94.67,8.48,10.25,13.48l1.33.73,2.73,1.5,81.3,45.14c.31.18,2.39,1.24,2.79,1.45l9.34-24.36C353.22,559.2,351.14,558.14,350.83,558Z"/><path class="cls-83" d="M388.5,456.7l50.19-13.94L441,447.3c3.61,7.72-2,16.24-11.73,19.32l-42.59,11.69Z"/><path class="cls-84" d="M437.12,484l-2.95-6.45L386.1,490.64,384.67,523l-12.73-7.51,3.48-55.08-20.6,5.87a4.12,4.12,0,0,0-3.06,3.47l-3,32.31-32.37-19.35c-5.88-3.51-9.77-3.08-16.55-1.43l-35.91,9.09c-9.86,2.39-12.54,11.91-3.83,16.75l93.83,52.09,15.31-5.09,1.24-18.74,23.07,14,14.33-3.47,1.19-40.67,19.76-5.33C436.22,497.89,440.09,490.47,437.12,484ZM289.39,503.76l13.73-4.19c3.12-.95,7.26.65,10,2.32l34.16,20L346,534.73Z"/><polygon class="cls-85" points="200.92 445.8 229.15 384.98 393.53 359.55 496.19 418.82 467.98 479.69 303.62 505.15 200.92 445.8"/><polygon class="cls-86" points="200.92 353.24 229.15 292.42 393.53 266.99 496.19 326.26 467.98 387.13 303.62 412.59 200.92 353.24"/><polygon class="cls-87" points="200.92 257.76 229.15 196.94 393.53 171.52 496.19 230.79 467.98 291.65 303.62 317.12 200.92 257.76"/></g></g></g></svg>